<svg xmlns="http://www.w3.org/2000/svg" width="1424" height="425" viewBox="0 0 1424 425" fill="none">
		<g opacity="0.3" width="currentWidth" height="currentHeight">
		<path d="M1411.44 387.46L1424 387.46L1424 375.437L1411.44 375.437L1411.44 387.46Z" fill="#8763A6"/>
		<path d="M1411.44 368.689L1424 368.689L1424 356.667L1411.44 356.667L1411.44 368.689Z" fill="#8763A6"/>
		<path d="M1411.44 331.138L1424 331.138L1424 319.115L1411.44 319.115L1411.44 331.138Z" fill="#8763A6"/>
		<path d="M1411.44 312.368L1424 312.368L1424 300.345L1411.44 300.345L1411.44 312.368Z" fill="#8763A6"/>
		<path d="M1411.44 293.598L1424 293.598L1424 281.575L1411.44 281.575L1411.44 293.598Z" fill="#8763A6"/>
		<path d="M1411.44 274.827L1424 274.827L1424 262.805L1411.44 262.805L1411.44 274.827Z" fill="#8763A6"/>
		<path d="M1411.44 256.057L1424 256.057L1424 244.034L1411.44 244.034L1411.44 256.057Z" fill="#8763A6"/>
		<path d="M1411.44 237.287L1424 237.287L1424 225.264L1411.44 225.264L1411.44 237.287Z" fill="#8763A6"/>
		<path d="M1411.44 218.517L1424 218.517L1424 206.494L1411.44 206.494L1411.44 218.517Z" fill="#8763A6"/>
		<path d="M1411.44 199.736L1424 199.736L1424 187.713L1411.44 187.713L1411.44 199.736Z" fill="#8763A6"/>
		<path d="M1411.44 124.655L1424 124.655L1424 112.632L1411.44 112.632L1411.44 124.655Z" fill="#8763A6"/>
		<path d="M1411.44 87.1038L1424 87.1038L1424 75.0811L1411.44 75.0811L1411.44 87.1038Z" fill="#8763A6"/>
		<path d="M1411.44 68.3335L1424 68.3335L1424 56.3109L1411.44 56.3109L1411.44 68.3335Z" fill="#8763A6"/>
		<path d="M1411.44 30.7931L1424 30.7931L1424 18.7704L1411.44 18.7704L1411.44 30.7931Z" fill="#8763A6"/>
		<path d="M1391.84 237.287L1404.4 237.287L1404.4 225.264L1391.84 225.264L1391.84 237.287Z" fill="#8763A6"/>
		<path d="M1391.84 218.517L1404.4 218.517L1404.4 206.494L1391.84 206.494L1391.84 218.517Z" fill="#8763A6"/>
		<path d="M1391.84 199.736L1404.4 199.736L1404.4 187.713L1391.84 187.713L1391.84 199.736Z" fill="#8763A6"/>
		<path d="M1391.84 180.966L1404.4 180.966L1404.4 168.943L1391.84 168.943L1391.84 180.966Z" fill="#8763A6"/>
		<path d="M1391.84 162.195L1404.4 162.195L1404.4 150.173L1391.84 150.173L1391.84 162.195Z" fill="#8763A6"/>
		<path d="M1391.84 105.885L1404.4 105.885L1404.4 93.8619L1391.84 93.8619L1391.84 105.885Z" fill="#8763A6"/>
		<path d="M1391.84 49.5633L1404.4 49.5633L1404.4 37.5406L1391.84 37.5406L1391.84 49.5633Z" fill="#8763A6"/>
		<path d="M1391.84 12.0228L1404.4 12.0228L1404.4 0.000120357L1391.84 0.000119259L1391.84 12.0228Z" fill="#8763A6"/>
		<path d="M1372.24 425L1384.8 425L1384.8 412.977L1372.24 412.977L1372.24 425Z" fill="#8763A6"/>
		<path d="M1372.24 368.689L1384.8 368.689L1384.8 356.667L1372.24 356.667L1372.24 368.689Z" fill="#8763A6"/>
		<path d="M1372.24 349.919L1384.8 349.919L1384.8 337.896L1372.24 337.896L1372.24 349.919Z" fill="#8763A6"/>
		<path d="M1372.24 331.138L1384.8 331.138L1384.8 319.115L1372.24 319.115L1372.24 331.138Z" fill="#8763A6"/>
		<path d="M1372.24 293.598L1384.8 293.598L1384.8 281.575L1372.24 281.575L1372.24 293.598Z" fill="#8763A6"/>
		<path d="M1372.24 274.827L1384.8 274.827L1384.8 262.805L1372.24 262.805L1372.24 274.827Z" fill="#8763A6"/>
		<path d="M1372.24 237.287L1384.8 237.287L1384.8 225.264L1372.24 225.264L1372.24 237.287Z" fill="#8763A6"/>
		<path d="M1372.24 180.966L1384.8 180.966L1384.8 168.943L1372.24 168.943L1372.24 180.966Z" fill="#8763A6"/>
		<path d="M1372.24 162.195L1384.8 162.195L1384.8 150.173L1372.24 150.173L1372.24 162.195Z" fill="#8763A6"/>
		<path d="M1372.24 143.425L1384.8 143.425L1384.8 131.402L1372.24 131.402L1372.24 143.425Z" fill="#8763A6"/>
		<path d="M1372.24 124.655L1384.8 124.655L1384.8 112.632L1372.24 112.632L1372.24 124.655Z" fill="#8763A6"/>
		<path d="M1372.24 105.885L1384.8 105.885L1384.8 93.8619L1372.24 93.8619L1372.24 105.885Z" fill="#8763A6"/>
		<path d="M1372.24 87.1038L1384.8 87.1038L1384.8 75.0811L1372.24 75.0811L1372.24 87.1038Z" fill="#8763A6"/>
		<path d="M1372.24 68.3335L1384.8 68.3335L1384.8 56.3108L1372.24 56.3108L1372.24 68.3335Z" fill="#8763A6"/>
		<path d="M1372.24 49.5633L1384.8 49.5633L1384.8 37.5406L1372.24 37.5406L1372.24 49.5633Z" fill="#8763A6"/>
		<path d="M1372.24 30.7931L1384.8 30.7931L1384.8 18.7704L1372.24 18.7704L1372.24 30.7931Z" fill="#8763A6"/>
		<path d="M1372.24 12.0228L1384.8 12.0228L1384.8 0.000118643L1372.24 0.000117545L1372.24 12.0228Z" fill="#8763A6"/>
		<path d="M1352.64 406.23L1365.19 406.23L1365.19 394.207L1352.64 394.207L1352.64 406.23Z" fill="#8763A6"/>
		<path d="M1352.64 387.459L1365.19 387.459L1365.19 375.437L1352.64 375.437L1352.64 387.459Z" fill="#8763A6"/>
		<path d="M1352.64 368.689L1365.19 368.689L1365.19 356.667L1352.64 356.667L1352.64 368.689Z" fill="#8763A6"/>
		<path d="M1352.64 349.919L1365.19 349.919L1365.19 337.896L1352.64 337.896L1352.64 349.919Z" fill="#8763A6"/>
		<path d="M1352.64 331.138L1365.19 331.138L1365.19 319.115L1352.64 319.115L1352.64 331.138Z" fill="#8763A6"/>
		<path d="M1352.64 312.368L1365.19 312.368L1365.19 300.345L1352.64 300.345L1352.64 312.368Z" fill="#8763A6"/>
		<path d="M1352.64 293.598L1365.19 293.598L1365.19 281.575L1352.64 281.575L1352.64 293.598Z" fill="#8763A6"/>
		<path d="M1352.64 274.827L1365.19 274.827L1365.19 262.805L1352.64 262.805L1352.64 274.827Z" fill="#8763A6"/>
		<path d="M1352.64 256.057L1365.19 256.057L1365.19 244.034L1352.64 244.034L1352.64 256.057Z" fill="#8763A6"/>
		<path d="M1352.64 218.517L1365.19 218.517L1365.19 206.494L1352.64 206.494L1352.64 218.517Z" fill="#8763A6"/>
		<path d="M1352.64 180.966L1365.19 180.966L1365.19 168.943L1352.64 168.943L1352.64 180.966Z" fill="#8763A6"/>
		<path d="M1352.64 143.425L1365.19 143.425L1365.19 131.402L1352.64 131.402L1352.64 143.425Z" fill="#8763A6"/>
		<path d="M1352.64 124.655L1365.19 124.655L1365.19 112.632L1352.64 112.632L1352.64 124.655Z" fill="#8763A6"/>
		<path d="M1352.64 105.885L1365.19 105.885L1365.19 93.8619L1352.64 93.8619L1352.64 105.885Z" fill="#8763A6"/>
		<path d="M1352.64 87.1038L1365.19 87.1038L1365.19 75.0811L1352.64 75.0811L1352.64 87.1038Z" fill="#8763A6"/>
		<path d="M1352.64 49.5633L1365.19 49.5633L1365.19 37.5406L1352.64 37.5406L1352.64 49.5633Z" fill="#8763A6"/>
		<path d="M1352.64 30.7931L1365.19 30.7931L1365.19 18.7704L1352.64 18.7704L1352.64 30.7931Z" fill="#8763A6"/>
		<path d="M1352.64 12.0228L1365.19 12.0228L1365.19 0.000116929L1352.64 0.000115832L1352.64 12.0228Z" fill="#8763A6"/>
		<path d="M1333.03 331.138L1345.58 331.138L1345.58 319.115L1333.03 319.115L1333.03 331.138Z" fill="#8763A6"/>
		<path d="M1333.03 312.368L1345.58 312.368L1345.58 300.345L1333.03 300.345L1333.03 312.368Z" fill="#8763A6"/>
		<path d="M1333.03 293.598L1345.58 293.598L1345.58 281.575L1333.03 281.575L1333.03 293.598Z" fill="#8763A6"/>
		<path d="M1333.03 218.517L1345.58 218.517L1345.58 206.494L1333.03 206.494L1333.03 218.517Z" fill="#8763A6"/>
		<path d="M1333.03 199.736L1345.58 199.736L1345.58 187.713L1333.03 187.713L1333.03 199.736Z" fill="#8763A6"/>
		<path d="M1333.03 180.966L1345.58 180.966L1345.58 168.943L1333.03 168.943L1333.03 180.966Z" fill="#8763A6"/>
		<path d="M1333.03 162.195L1345.58 162.195L1345.58 150.173L1333.03 150.173L1333.03 162.195Z" fill="#8763A6"/>
		<path d="M1333.03 143.425L1345.58 143.425L1345.58 131.402L1333.03 131.402L1333.03 143.425Z" fill="#8763A6"/>
		<path d="M1333.03 124.655L1345.58 124.655L1345.58 112.632L1333.03 112.632L1333.03 124.655Z" fill="#8763A6"/>
		<path d="M1333.03 105.885L1345.58 105.885L1345.58 93.8619L1333.03 93.8619L1333.03 105.885Z" fill="#8763A6"/>
		<path d="M1333.03 87.1038L1345.58 87.1038L1345.58 75.0811L1333.03 75.0811L1333.03 87.1038Z" fill="#8763A6"/>
		<path d="M1333.03 68.3335L1345.58 68.3335L1345.58 56.3108L1333.03 56.3108L1333.03 68.3335Z" fill="#8763A6"/>
		<path d="M1333.03 49.5633L1345.58 49.5633L1345.58 37.5406L1333.03 37.5405L1333.03 49.5633Z" fill="#8763A6"/>
		<path d="M1333.03 30.7931L1345.58 30.7931L1345.58 18.7704L1333.03 18.7704L1333.03 30.7931Z" fill="#8763A6"/>
		<path d="M1333.03 12.0228L1345.58 12.0228L1345.58 0.000115215L1333.03 0.000114117L1333.03 12.0228Z" fill="#8763A6"/>
		<path d="M1313.43 406.23L1325.98 406.23L1325.98 394.207L1313.43 394.207L1313.43 406.23Z" fill="#8763A6"/>
		<path d="M1313.43 387.459L1325.98 387.459L1325.98 375.437L1313.43 375.437L1313.43 387.459Z" fill="#8763A6"/>
		<path d="M1313.43 368.689L1325.98 368.689L1325.98 356.667L1313.43 356.667L1313.43 368.689Z" fill="#8763A6"/>
		<path d="M1313.43 349.919L1325.98 349.919L1325.98 337.896L1313.43 337.896L1313.43 349.919Z" fill="#8763A6"/>
		<path d="M1313.43 331.138L1325.98 331.138L1325.98 319.115L1313.43 319.115L1313.43 331.138Z" fill="#8763A6"/>
		<path d="M1313.43 312.368L1325.98 312.368L1325.98 300.345L1313.43 300.345L1313.43 312.368Z" fill="#8763A6"/>
		<path d="M1313.43 256.057L1325.98 256.057L1325.98 244.034L1313.43 244.034L1313.43 256.057Z" fill="#8763A6"/>
		<path d="M1313.43 237.287L1325.98 237.287L1325.98 225.264L1313.43 225.264L1313.43 237.287Z" fill="#8763A6"/>
		<path d="M1313.43 218.517L1325.98 218.517L1325.98 206.494L1313.43 206.494L1313.43 218.517Z" fill="#8763A6"/>
		<path d="M1313.43 199.736L1325.98 199.736L1325.98 187.713L1313.43 187.713L1313.43 199.736Z" fill="#8763A6"/>
		<path d="M1313.43 143.425L1325.98 143.425L1325.98 131.402L1313.43 131.402L1313.43 143.425Z" fill="#8763A6"/>
		<path d="M1313.43 87.1038L1325.98 87.1038L1325.98 75.0811L1313.43 75.0811L1313.43 87.1038Z" fill="#8763A6"/>
		<path d="M1313.43 68.3335L1325.98 68.3335L1325.98 56.3108L1313.43 56.3108L1313.43 68.3335Z" fill="#8763A6"/>
		<path d="M1313.43 30.7931L1325.98 30.7931L1325.98 18.7704L1313.43 18.7704L1313.43 30.7931Z" fill="#8763A6"/>
		<path d="M1313.43 12.0228L1325.98 12.0228L1325.98 0.000113501L1313.43 0.000112404L1313.43 12.0228Z" fill="#8763A6"/>
		<path d="M1293.82 349.919L1306.38 349.919L1306.38 337.896L1293.82 337.896L1293.82 349.919Z" fill="#8763A6"/>
		<path d="M1293.82 312.368L1306.38 312.368L1306.38 300.345L1293.82 300.345L1293.82 312.368Z" fill="#8763A6"/>
		<path d="M1293.82 274.827L1306.38 274.827L1306.38 262.805L1293.82 262.805L1293.82 274.827Z" fill="#8763A6"/>
		<path d="M1293.82 256.057L1306.38 256.057L1306.38 244.034L1293.82 244.034L1293.82 256.057Z" fill="#8763A6"/>
		<path d="M1293.82 237.287L1306.38 237.287L1306.38 225.264L1293.82 225.264L1293.82 237.287Z" fill="#8763A6"/>
		<path d="M1293.82 218.517L1306.38 218.517L1306.38 206.494L1293.82 206.494L1293.82 218.517Z" fill="#8763A6"/>
		<path d="M1293.82 199.736L1306.38 199.736L1306.38 187.713L1293.82 187.713L1293.82 199.736Z" fill="#8763A6"/>
		<path d="M1293.82 180.966L1306.38 180.966L1306.38 168.943L1293.82 168.943L1293.82 180.966Z" fill="#8763A6"/>
		<path d="M1293.82 162.195L1306.38 162.195L1306.38 150.173L1293.82 150.173L1293.82 162.195Z" fill="#8763A6"/>
		<path d="M1293.82 143.425L1306.38 143.425L1306.38 131.402L1293.82 131.402L1293.82 143.425Z" fill="#8763A6"/>
		<path d="M1293.82 124.655L1306.38 124.655L1306.38 112.632L1293.82 112.632L1293.82 124.655Z" fill="#8763A6"/>
		<path d="M1293.82 105.885L1306.38 105.885L1306.38 93.8619L1293.82 93.8619L1293.82 105.885Z" fill="#8763A6"/>
		<path d="M1293.82 87.1038L1306.38 87.1038L1306.38 75.0811L1293.82 75.0811L1293.82 87.1038Z" fill="#8763A6"/>
		<path d="M1293.82 68.3335L1306.38 68.3335L1306.38 56.3108L1293.82 56.3108L1293.82 68.3335Z" fill="#8763A6"/>
		<path d="M1293.82 49.5633L1306.38 49.5633L1306.38 37.5405L1293.82 37.5405L1293.82 49.5633Z" fill="#8763A6"/>
		<path d="M1293.82 30.793L1306.38 30.7931L1306.38 18.7704L1293.82 18.7704L1293.82 30.793Z" fill="#8763A6"/>
		<path d="M1293.82 12.0228L1306.38 12.0228L1306.38 0.000111788L1293.82 0.00011069L1293.82 12.0228Z" fill="#8763A6"/>
		<path d="M1274.22 331.138L1286.78 331.138L1286.78 319.115L1274.22 319.115L1274.22 331.138Z" fill="#8763A6"/>
		<path d="M1274.22 312.368L1286.78 312.368L1286.78 300.345L1274.22 300.345L1274.22 312.368Z" fill="#8763A6"/>
		<path d="M1274.22 293.598L1286.78 293.598L1286.78 281.575L1274.22 281.575L1274.22 293.598Z" fill="#8763A6"/>
		<path d="M1274.22 274.827L1286.78 274.827L1286.78 262.805L1274.22 262.805L1274.22 274.827Z" fill="#8763A6"/>
		<path d="M1274.22 199.736L1286.78 199.736L1286.78 187.713L1274.22 187.713L1274.22 199.736Z" fill="#8763A6"/>
		<path d="M1274.22 180.966L1286.78 180.966L1286.78 168.943L1274.22 168.943L1274.22 180.966Z" fill="#8763A6"/>
		<path d="M1274.22 162.195L1286.78 162.195L1286.78 150.173L1274.22 150.173L1274.22 162.195Z" fill="#8763A6"/>
		<path d="M1274.22 143.425L1286.78 143.425L1286.78 131.402L1274.22 131.402L1274.22 143.425Z" fill="#8763A6"/>
		<path d="M1274.22 124.655L1286.78 124.655L1286.78 112.632L1274.22 112.632L1274.22 124.655Z" fill="#8763A6"/>
		<path d="M1274.22 68.3335L1286.78 68.3335L1286.78 56.3108L1274.22 56.3108L1274.22 68.3335Z" fill="#8763A6"/>
		<path d="M1274.22 49.5633L1286.78 49.5633L1286.78 37.5405L1274.22 37.5405L1274.22 49.5633Z" fill="#8763A6"/>
		<path d="M1274.22 30.793L1286.78 30.793L1286.78 18.7704L1274.22 18.7704L1274.22 30.793Z" fill="#8763A6"/>
		<path d="M1274.22 12.0228L1286.78 12.0228L1286.78 0.000110074L1274.22 0.000108976L1274.22 12.0228Z" fill="#8763A6"/>
		<path d="M1254.62 274.827L1267.18 274.827L1267.18 262.805L1254.62 262.805L1254.62 274.827Z" fill="#8763A6"/>
		<path d="M1254.62 256.057L1267.18 256.057L1267.18 244.034L1254.62 244.034L1254.62 256.057Z" fill="#8763A6"/>
		<path d="M1254.62 237.287L1267.18 237.287L1267.18 225.264L1254.62 225.264L1254.62 237.287Z" fill="#8763A6"/>
		<path d="M1254.62 199.736L1267.18 199.736L1267.18 187.713L1254.62 187.713L1254.62 199.736Z" fill="#8763A6"/>
		<path d="M1254.62 180.966L1267.18 180.966L1267.18 168.943L1254.62 168.943L1254.62 180.966Z" fill="#8763A6"/>
		<path d="M1254.62 162.195L1267.18 162.195L1267.18 150.173L1254.62 150.173L1254.62 162.195Z" fill="#8763A6"/>
		<path d="M1254.62 143.425L1267.18 143.425L1267.18 131.402L1254.62 131.402L1254.62 143.425Z" fill="#8763A6"/>
		<path d="M1254.62 124.655L1267.18 124.655L1267.18 112.632L1254.62 112.632L1254.62 124.655Z" fill="#8763A6"/>
		<path d="M1254.62 105.885L1267.18 105.885L1267.18 93.8619L1254.62 93.8619L1254.62 105.885Z" fill="#8763A6"/>
		<path d="M1254.62 68.3335L1267.18 68.3335L1267.18 56.3108L1254.62 56.3108L1254.62 68.3335Z" fill="#8763A6"/>
		<path d="M1254.62 30.793L1267.18 30.793L1267.18 18.7704L1254.62 18.7704L1254.62 30.793Z" fill="#8763A6"/>
		<path d="M1254.62 12.0228L1267.18 12.0228L1267.18 0.00010836L1254.62 0.000107263L1254.62 12.0228Z" fill="#8763A6"/>
		<path d="M1235.02 368.689L1247.57 368.689L1247.57 356.667L1235.02 356.667L1235.02 368.689Z" fill="#8763A6"/>
		<path d="M1235.02 349.919L1247.57 349.919L1247.57 337.896L1235.02 337.896L1235.02 349.919Z" fill="#8763A6"/>
		<path d="M1235.02 331.138L1247.57 331.138L1247.57 319.115L1235.02 319.115L1235.02 331.138Z" fill="#8763A6"/>
		<path d="M1235.02 312.368L1247.57 312.368L1247.57 300.345L1235.02 300.345L1235.02 312.368Z" fill="#8763A6"/>
		<path d="M1235.02 293.598L1247.57 293.598L1247.57 281.575L1235.02 281.575L1235.02 293.598Z" fill="#8763A6"/>
		<path d="M1235.02 237.287L1247.57 237.287L1247.57 225.264L1235.02 225.264L1235.02 237.287Z" fill="#8763A6"/>
		<path d="M1235.02 199.736L1247.57 199.736L1247.57 187.713L1235.02 187.713L1235.02 199.736Z" fill="#8763A6"/>
		<path d="M1235.02 162.195L1247.57 162.195L1247.57 150.173L1235.02 150.173L1235.02 162.195Z" fill="#8763A6"/>
		<path d="M1235.02 143.425L1247.57 143.425L1247.57 131.402L1235.02 131.402L1235.02 143.425Z" fill="#8763A6"/>
		<path d="M1235.02 124.655L1247.57 124.655L1247.57 112.632L1235.02 112.632L1235.02 124.655Z" fill="#8763A6"/>
		<path d="M1235.02 87.1038L1247.57 87.1038L1247.57 75.0811L1235.02 75.0811L1235.02 87.1038Z" fill="#8763A6"/>
		<path d="M1235.02 68.3335L1247.57 68.3335L1247.57 56.3108L1235.02 56.3108L1235.02 68.3335Z" fill="#8763A6"/>
		<path d="M1235.02 49.5633L1247.57 49.5633L1247.57 37.5405L1235.02 37.5405L1235.02 49.5633Z" fill="#8763A6"/>
		<path d="M1235.02 30.793L1247.57 30.793L1247.57 18.7704L1235.02 18.7704L1235.02 30.793Z" fill="#8763A6"/>
		<path d="M1235.02 12.0228L1247.57 12.0228L1247.57 0.000106647L1235.02 0.000105549L1235.02 12.0228Z" fill="#8763A6"/>
		<path d="M1215.41 368.689L1227.96 368.689L1227.96 356.667L1215.41 356.667L1215.41 368.689Z" fill="#8763A6"/>
		<path d="M1215.41 274.827L1227.96 274.827L1227.96 262.805L1215.41 262.805L1215.41 274.827Z" fill="#8763A6"/>
		<path d="M1215.41 256.057L1227.96 256.057L1227.96 244.034L1215.41 244.034L1215.41 256.057Z" fill="#8763A6"/>
		<path d="M1215.41 237.287L1227.96 237.287L1227.96 225.264L1215.41 225.264L1215.41 237.287Z" fill="#8763A6"/>
		<path d="M1215.41 218.517L1227.96 218.517L1227.96 206.494L1215.41 206.494L1215.41 218.517Z" fill="#8763A6"/>
		<path d="M1215.41 180.966L1227.96 180.966L1227.96 168.943L1215.41 168.943L1215.41 180.966Z" fill="#8763A6"/>
		<path d="M1215.41 143.425L1227.96 143.425L1227.96 131.402L1215.41 131.402L1215.41 143.425Z" fill="#8763A6"/>
		<path d="M1215.41 87.1038L1227.96 87.1038L1227.96 75.0811L1215.41 75.0811L1215.41 87.1038Z" fill="#8763A6"/>
		<path d="M1215.41 68.3335L1227.96 68.3335L1227.96 56.3108L1215.41 56.3108L1215.41 68.3335Z" fill="#8763A6"/>
		<path d="M1215.41 49.5633L1227.96 49.5633L1227.96 37.5405L1215.41 37.5405L1215.41 49.5633Z" fill="#8763A6"/>
		<path d="M1215.41 12.0228L1227.96 12.0228L1227.96 0.000104932L1215.41 0.000103834L1215.41 12.0228Z" fill="#8763A6"/>
		<path d="M1195.8 349.919L1208.36 349.919L1208.36 337.896L1195.8 337.896L1195.8 349.919Z" fill="#8763A6"/>
		<path d="M1195.8 331.138L1208.36 331.138L1208.36 319.115L1195.8 319.115L1195.8 331.138Z" fill="#8763A6"/>
		<path d="M1195.8 274.827L1208.36 274.827L1208.36 262.805L1195.8 262.805L1195.8 274.827Z" fill="#8763A6"/>
		<path d="M1195.8 256.057L1208.36 256.057L1208.36 244.034L1195.8 244.034L1195.8 256.057Z" fill="#8763A6"/>
		<path d="M1195.8 218.517L1208.36 218.517L1208.36 206.494L1195.8 206.494L1195.8 218.517Z" fill="#8763A6"/>
		<path d="M1195.8 105.885L1208.36 105.885L1208.36 93.8619L1195.8 93.8619L1195.8 105.885Z" fill="#8763A6"/>
		<path d="M1195.8 49.5633L1208.36 49.5633L1208.36 37.5405L1195.8 37.5405L1195.8 49.5633Z" fill="#8763A6"/>
		<path d="M1195.8 30.793L1208.36 30.793L1208.36 18.7704L1195.8 18.7704L1195.8 30.793Z" fill="#8763A6"/>
		<path d="M1195.8 12.0228L1208.36 12.0228L1208.36 0.000103218L1195.8 0.000102121L1195.8 12.0228Z" fill="#8763A6"/>
		<path d="M1176.2 387.459L1188.76 387.459L1188.76 375.437L1176.2 375.437L1176.2 387.459Z" fill="#8763A6"/>
		<path d="M1176.2 368.689L1188.76 368.689L1188.76 356.667L1176.2 356.667L1176.2 368.689Z" fill="#8763A6"/>
		<path d="M1176.2 349.919L1188.76 349.919L1188.76 337.896L1176.2 337.896L1176.2 349.919Z" fill="#8763A6"/>
		<path d="M1176.2 331.138L1188.76 331.138L1188.76 319.115L1176.2 319.115L1176.2 331.138Z" fill="#8763A6"/>
		<path d="M1176.2 312.368L1188.76 312.368L1188.76 300.345L1176.2 300.345L1176.2 312.368Z" fill="#8763A6"/>
		<path d="M1176.2 293.598L1188.76 293.598L1188.76 281.575L1176.2 281.575L1176.2 293.598Z" fill="#8763A6"/>
		<path d="M1176.2 274.827L1188.76 274.827L1188.76 262.805L1176.2 262.805L1176.2 274.827Z" fill="#8763A6"/>
		<path d="M1176.2 256.057L1188.76 256.057L1188.76 244.034L1176.2 244.034L1176.2 256.057Z" fill="#8763A6"/>
		<path d="M1176.2 237.287L1188.76 237.287L1188.76 225.264L1176.2 225.264L1176.2 237.287Z" fill="#8763A6"/>
		<path d="M1176.2 218.517L1188.76 218.517L1188.76 206.494L1176.2 206.494L1176.2 218.517Z" fill="#8763A6"/>
		<path d="M1176.2 199.736L1188.76 199.736L1188.76 187.713L1176.2 187.713L1176.2 199.736Z" fill="#8763A6"/>
		<path d="M1176.2 162.195L1188.76 162.195L1188.76 150.173L1176.2 150.173L1176.2 162.195Z" fill="#8763A6"/>
		<path d="M1176.2 124.655L1188.76 124.655L1188.76 112.632L1176.2 112.632L1176.2 124.655Z" fill="#8763A6"/>
		<path d="M1176.2 105.885L1188.76 105.885L1188.76 93.8619L1176.2 93.8619L1176.2 105.885Z" fill="#8763A6"/>
		<path d="M1176.2 87.1038L1188.76 87.1038L1188.76 75.0811L1176.2 75.0811L1176.2 87.1038Z" fill="#8763A6"/>
		<path d="M1176.2 68.3335L1188.76 68.3335L1188.76 56.3108L1176.2 56.3108L1176.2 68.3335Z" fill="#8763A6"/>
		<path d="M1176.2 30.793L1188.76 30.793L1188.76 18.7704L1176.2 18.7704L1176.2 30.793Z" fill="#8763A6"/>
		<path d="M1176.2 12.0228L1188.76 12.0228L1188.76 0.000101505L1176.2 0.000100407L1176.2 12.0228Z" fill="#8763A6"/>
		<path d="M1156.6 331.138L1169.16 331.138L1169.16 319.115L1156.6 319.115L1156.6 331.138Z" fill="#8763A6"/>
		<path d="M1156.6 312.368L1169.16 312.368L1169.16 300.345L1156.6 300.345L1156.6 312.368Z" fill="#8763A6"/>
		<path d="M1156.6 293.598L1169.16 293.598L1169.16 281.575L1156.6 281.575L1156.6 293.598Z" fill="#8763A6"/>
		<path d="M1156.6 256.057L1169.16 256.057L1169.16 244.034L1156.6 244.034L1156.6 256.057Z" fill="#8763A6"/>
		<path d="M1156.6 218.517L1169.16 218.517L1169.16 206.494L1156.6 206.494L1156.6 218.517Z" fill="#8763A6"/>
		<path d="M1156.6 180.966L1169.16 180.966L1169.16 168.943L1156.6 168.943L1156.6 180.966Z" fill="#8763A6"/>
		<path d="M1156.6 162.195L1169.16 162.195L1169.16 150.173L1156.6 150.173L1156.6 162.195Z" fill="#8763A6"/>
		<path d="M1156.6 143.425L1169.16 143.425L1169.16 131.402L1156.6 131.402L1156.6 143.425Z" fill="#8763A6"/>
		<path d="M1156.6 124.655L1169.16 124.655L1169.16 112.632L1156.6 112.632L1156.6 124.655Z" fill="#8763A6"/>
		<path d="M1156.6 105.885L1169.16 105.885L1169.16 93.8619L1156.6 93.8619L1156.6 105.885Z" fill="#8763A6"/>
		<path d="M1156.6 68.3335L1169.16 68.3335L1169.16 56.3108L1156.6 56.3108L1156.6 68.3335Z" fill="#8763A6"/>
		<path d="M1156.6 49.5633L1169.16 49.5633L1169.16 37.5405L1156.6 37.5405L1156.6 49.5633Z" fill="#8763A6"/>
		<path d="M1156.6 30.793L1169.16 30.793L1169.16 18.7704L1156.6 18.7704L1156.6 30.793Z" fill="#8763A6"/>
		<path d="M1137 331.138L1149.55 331.138L1149.55 319.115L1137 319.115L1137 331.138Z" fill="#8763A6"/>
		<path d="M1137 293.598L1149.55 293.598L1149.55 281.575L1137 281.575L1137 293.598Z" fill="#8763A6"/>
		<path d="M1137 274.827L1149.55 274.827L1149.55 262.805L1137 262.805L1137 274.827Z" fill="#8763A6"/>
		<path d="M1137 256.057L1149.55 256.057L1149.55 244.034L1137 244.034L1137 256.057Z" fill="#8763A6"/>
		<path d="M1137 237.287L1149.55 237.287L1149.55 225.264L1137 225.264L1137 237.287Z" fill="#8763A6"/>
		<path d="M1137 218.517L1149.55 218.517L1149.55 206.494L1137 206.494L1137 218.517Z" fill="#8763A6"/>
		<path d="M1137 180.966L1149.55 180.966L1149.55 168.943L1137 168.943L1137 180.966Z" fill="#8763A6"/>
		<path d="M1137 162.195L1149.55 162.195L1149.55 150.173L1137 150.173L1137 162.195Z" fill="#8763A6"/>
		<path d="M1137 105.885L1149.55 105.885L1149.55 93.8619L1137 93.8619L1137 105.885Z" fill="#8763A6"/>
		<path d="M1137 87.1038L1149.55 87.1038L1149.55 75.0811L1137 75.0811L1137 87.1038Z" fill="#8763A6"/>
		<path d="M1137 68.3335L1149.55 68.3335L1149.55 56.3108L1137 56.3108L1137 68.3335Z" fill="#8763A6"/>
		<path d="M1137 49.5633L1149.55 49.5633L1149.55 37.5405L1137 37.5405L1137 49.5633Z" fill="#8763A6"/>
		<path d="M1137 30.793L1149.55 30.793L1149.55 18.7704L1137 18.7704L1137 30.793Z" fill="#8763A6"/>
		<path d="M1137 12.0228L1149.55 12.0228L1149.55 9.80775e-05L1137 9.69799e-05L1137 12.0228Z" fill="#8763A6"/>
		<path d="M1117.4 312.368L1129.95 312.368L1129.95 300.345L1117.4 300.345L1117.4 312.368Z" fill="#8763A6"/>
		<path d="M1117.4 293.598L1129.95 293.598L1129.95 281.575L1117.4 281.575L1117.4 293.598Z" fill="#8763A6"/>
		<path d="M1117.4 274.827L1129.95 274.827L1129.95 262.805L1117.4 262.805L1117.4 274.827Z" fill="#8763A6"/>
		<path d="M1117.4 256.057L1129.95 256.057L1129.95 244.034L1117.4 244.034L1117.4 256.057Z" fill="#8763A6"/>
		<path d="M1117.4 237.287L1129.95 237.287L1129.95 225.264L1117.4 225.264L1117.4 237.287Z" fill="#8763A6"/>
		<path d="M1117.4 218.517L1129.95 218.517L1129.95 206.494L1117.4 206.494L1117.4 218.517Z" fill="#8763A6"/>
		<path d="M1117.4 199.736L1129.95 199.736L1129.95 187.713L1117.4 187.713L1117.4 199.736Z" fill="#8763A6"/>
		<path d="M1117.4 180.966L1129.95 180.966L1129.95 168.943L1117.4 168.943L1117.4 180.966Z" fill="#8763A6"/>
		<path d="M1117.4 162.195L1129.95 162.195L1129.95 150.173L1117.4 150.173L1117.4 162.195Z" fill="#8763A6"/>
		<path d="M1117.4 143.425L1129.95 143.425L1129.95 131.402L1117.4 131.402L1117.4 143.425Z" fill="#8763A6"/>
		<path d="M1117.4 124.655L1129.95 124.655L1129.95 112.632L1117.4 112.632L1117.4 124.655Z" fill="#8763A6"/>
		<path d="M1117.4 105.885L1129.95 105.885L1129.95 93.8619L1117.4 93.8619L1117.4 105.885Z" fill="#8763A6"/>
		<path d="M1117.4 87.1038L1129.95 87.1038L1129.95 75.0811L1117.4 75.0811L1117.4 87.1038Z" fill="#8763A6"/>
		<path d="M1117.4 49.5633L1129.95 49.5633L1129.95 37.5405L1117.4 37.5405L1117.4 49.5633Z" fill="#8763A6"/>
		<path d="M1117.4 30.793L1129.95 30.793L1129.95 18.7704L1117.4 18.7704L1117.4 30.793Z" fill="#8763A6"/>
		<path d="M1117.4 12.0228L1129.95 12.0228L1129.95 9.63638e-05L1117.4 9.52662e-05L1117.4 12.0228Z" fill="#8763A6"/>
		<path d="M1097.78 425L1110.34 425L1110.34 412.977L1097.78 412.977L1097.78 425Z" fill="#8763A6"/>
		<path d="M1097.78 387.459L1110.34 387.459L1110.34 375.437L1097.78 375.437L1097.78 387.459Z" fill="#8763A6"/>
		<path d="M1097.78 349.919L1110.34 349.919L1110.34 337.896L1097.78 337.896L1097.78 349.919Z" fill="#8763A6"/>
		<path d="M1097.78 331.138L1110.34 331.138L1110.34 319.115L1097.78 319.115L1097.78 331.138Z" fill="#8763A6"/>
		<path d="M1097.78 274.827L1110.34 274.827L1110.34 262.805L1097.78 262.805L1097.78 274.827Z" fill="#8763A6"/>
		<path d="M1097.78 256.057L1110.34 256.057L1110.34 244.034L1097.78 244.034L1097.78 256.057Z" fill="#8763A6"/>
		<path d="M1097.78 237.287L1110.34 237.287L1110.34 225.264L1097.78 225.264L1097.78 237.287Z" fill="#8763A6"/>
		<path d="M1097.78 162.195L1110.34 162.195L1110.34 150.173L1097.78 150.173L1097.78 162.195Z" fill="#8763A6"/>
		<path d="M1097.78 124.655L1110.34 124.655L1110.34 112.632L1097.78 112.632L1097.78 124.655Z" fill="#8763A6"/>
		<path d="M1097.78 105.885L1110.34 105.885L1110.34 93.8619L1097.78 93.8619L1097.78 105.885Z" fill="#8763A6"/>
		<path d="M1097.78 87.1038L1110.34 87.1038L1110.34 75.0811L1097.78 75.0811L1097.78 87.1038Z" fill="#8763A6"/>
		<path d="M1097.78 68.3335L1110.34 68.3335L1110.34 56.3108L1097.78 56.3108L1097.78 68.3335Z" fill="#8763A6"/>
		<path d="M1097.78 49.5633L1110.34 49.5633L1110.34 37.5405L1097.78 37.5405L1097.78 49.5633Z" fill="#8763A6"/>
		<path d="M1097.78 30.793L1110.34 30.793L1110.34 18.7704L1097.78 18.7704L1097.78 30.793Z" fill="#8763A6"/>
		<path d="M1097.78 12.0228L1110.34 12.0228L1110.34 9.46492e-05L1097.78 9.35516e-05L1097.78 12.0228Z" fill="#8763A6"/>
		<path d="M1078.18 406.23L1090.74 406.23L1090.74 394.207L1078.18 394.207L1078.18 406.23Z" fill="#8763A6"/>
		<path d="M1078.18 368.689L1090.74 368.689L1090.74 356.667L1078.18 356.667L1078.18 368.689Z" fill="#8763A6"/>
		<path d="M1078.18 349.919L1090.74 349.919L1090.74 337.896L1078.18 337.896L1078.18 349.919Z" fill="#8763A6"/>
		<path d="M1078.18 312.368L1090.74 312.368L1090.74 300.345L1078.18 300.345L1078.18 312.368Z" fill="#8763A6"/>
		<path d="M1078.18 274.827L1090.74 274.827L1090.74 262.805L1078.18 262.805L1078.18 274.827Z" fill="#8763A6"/>
		<path d="M1078.18 237.287L1090.74 237.287L1090.74 225.264L1078.18 225.264L1078.18 237.287Z" fill="#8763A6"/>
		<path d="M1078.18 218.517L1090.74 218.517L1090.74 206.494L1078.18 206.494L1078.18 218.517Z" fill="#8763A6"/>
		<path d="M1078.18 199.736L1090.74 199.736L1090.74 187.713L1078.18 187.713L1078.18 199.736Z" fill="#8763A6"/>
		<path d="M1078.18 162.195L1090.74 162.195L1090.74 150.173L1078.18 150.173L1078.18 162.195Z" fill="#8763A6"/>
		<path d="M1078.18 143.425L1090.74 143.425L1090.74 131.402L1078.18 131.402L1078.18 143.425Z" fill="#8763A6"/>
		<path d="M1078.18 124.655L1090.74 124.655L1090.74 112.632L1078.18 112.632L1078.18 124.655Z" fill="#8763A6"/>
		<path d="M1078.18 105.885L1090.74 105.885L1090.74 93.8619L1078.18 93.8619L1078.18 105.885Z" fill="#8763A6"/>
		<path d="M1078.18 87.1038L1090.74 87.1038L1090.74 75.0811L1078.18 75.0811L1078.18 87.1038Z" fill="#8763A6"/>
		<path d="M1078.18 68.3335L1090.74 68.3335L1090.74 56.3108L1078.18 56.3108L1078.18 68.3335Z" fill="#8763A6"/>
		<path d="M1078.18 49.5633L1090.74 49.5633L1090.74 37.5405L1078.18 37.5405L1078.18 49.5633Z" fill="#8763A6"/>
		<path d="M1078.18 12.0228L1090.74 12.0228L1090.74 9.29356e-05L1078.18 9.1838e-05L1078.18 12.0228Z" fill="#8763A6"/>
		<path d="M1058.58 368.689L1071.14 368.689L1071.14 356.667L1058.58 356.667L1058.58 368.689Z" fill="#8763A6"/>
		<path d="M1058.58 349.919L1071.14 349.919L1071.14 337.896L1058.58 337.896L1058.58 349.919Z" fill="#8763A6"/>
		<path d="M1058.58 331.138L1071.14 331.138L1071.14 319.115L1058.58 319.115L1058.58 331.138Z" fill="#8763A6"/>
		<path d="M1058.58 312.368L1071.14 312.368L1071.14 300.345L1058.58 300.345L1058.58 312.368Z" fill="#8763A6"/>
		<path d="M1058.58 293.598L1071.14 293.598L1071.14 281.575L1058.58 281.575L1058.58 293.598Z" fill="#8763A6"/>
		<path d="M1058.58 256.057L1071.14 256.057L1071.14 244.034L1058.58 244.034L1058.58 256.057Z" fill="#8763A6"/>
		<path d="M1058.58 237.287L1071.14 237.287L1071.14 225.264L1058.58 225.264L1058.58 237.287Z" fill="#8763A6"/>
		<path d="M1058.58 199.736L1071.14 199.736L1071.14 187.713L1058.58 187.713L1058.58 199.736Z" fill="#8763A6"/>
		<path d="M1058.58 124.655L1071.14 124.655L1071.14 112.632L1058.58 112.632L1058.58 124.655Z" fill="#8763A6"/>
		<path d="M1058.58 87.1038L1071.14 87.1038L1071.14 75.0811L1058.58 75.0811L1058.58 87.1038Z" fill="#8763A6"/>
		<path d="M1058.58 68.3335L1071.14 68.3335L1071.14 56.3108L1058.58 56.3108L1058.58 68.3335Z" fill="#8763A6"/>
		<path d="M1058.58 49.5633L1071.14 49.5633L1071.14 37.5405L1058.58 37.5405L1058.58 49.5633Z" fill="#8763A6"/>
		<path d="M1058.58 30.793L1071.14 30.793L1071.14 18.7704L1058.58 18.7704L1058.58 30.793Z" fill="#8763A6"/>
		<path d="M1058.58 12.0228L1071.14 12.0228L1071.14 9.1222e-05L1058.58 9.01244e-05L1058.58 12.0228Z" fill="#8763A6"/>
		<path d="M1038.98 218.517L1051.53 218.517L1051.53 206.494L1038.98 206.494L1038.98 218.517Z" fill="#8763A6"/>
		<path d="M1038.98 199.736L1051.53 199.736L1051.53 187.713L1038.98 187.713L1038.98 199.736Z" fill="#8763A6"/>
		<path d="M1038.98 180.966L1051.53 180.966L1051.53 168.943L1038.98 168.943L1038.98 180.966Z" fill="#8763A6"/>
		<path d="M1038.98 162.195L1051.53 162.195L1051.53 150.173L1038.98 150.173L1038.98 162.195Z" fill="#8763A6"/>
		<path d="M1038.98 143.425L1051.53 143.425L1051.53 131.402L1038.98 131.402L1038.98 143.425Z" fill="#8763A6"/>
		<path d="M1038.98 124.655L1051.53 124.655L1051.53 112.632L1038.98 112.632L1038.98 124.655Z" fill="#8763A6"/>
		<path d="M1038.98 105.885L1051.53 105.885L1051.53 93.8619L1038.98 93.8619L1038.98 105.885Z" fill="#8763A6"/>
		<path d="M1038.98 87.1038L1051.53 87.1038L1051.53 75.0811L1038.98 75.0811L1038.98 87.1038Z" fill="#8763A6"/>
		<path d="M1038.98 49.5633L1051.53 49.5633L1051.53 37.5405L1038.98 37.5405L1038.98 49.5633Z" fill="#8763A6"/>
		<path d="M1038.98 30.793L1051.53 30.793L1051.53 18.7704L1038.98 18.7704L1038.98 30.793Z" fill="#8763A6"/>
		<path d="M1038.98 12.0228L1051.53 12.0228L1051.53 8.95083e-05L1038.98 8.84107e-05L1038.98 12.0228Z" fill="#8763A6"/>
		<path d="M1019.38 331.138L1031.93 331.138L1031.93 319.115L1019.38 319.115L1019.38 331.138Z" fill="#8763A6"/>
		<path d="M1019.38 293.598L1031.93 293.598L1031.93 281.575L1019.38 281.575L1019.38 293.598Z" fill="#8763A6"/>
		<path d="M1019.38 274.827L1031.93 274.827L1031.93 262.805L1019.38 262.805L1019.38 274.827Z" fill="#8763A6"/>
		<path d="M1019.38 256.057L1031.93 256.057L1031.93 244.034L1019.38 244.034L1019.38 256.057Z" fill="#8763A6"/>
		<path d="M1019.38 237.287L1031.93 237.287L1031.93 225.264L1019.38 225.264L1019.38 237.287Z" fill="#8763A6"/>
		<path d="M1019.38 218.517L1031.93 218.517L1031.93 206.494L1019.38 206.494L1019.38 218.517Z" fill="#8763A6"/>
		<path d="M1019.38 199.736L1031.93 199.736L1031.93 187.713L1019.38 187.713L1019.38 199.736Z" fill="#8763A6"/>
		<path d="M1019.38 162.195L1031.93 162.195L1031.93 150.173L1019.38 150.173L1019.38 162.195Z" fill="#8763A6"/>
		<path d="M1019.38 124.655L1031.93 124.655L1031.93 112.632L1019.38 112.632L1019.38 124.655Z" fill="#8763A6"/>
		<path d="M1019.38 105.885L1031.93 105.885L1031.93 93.8619L1019.38 93.8619L1019.38 105.885Z" fill="#8763A6"/>
		<path d="M1019.38 87.1038L1031.93 87.1038L1031.93 75.0811L1019.38 75.0811L1019.38 87.1038Z" fill="#8763A6"/>
		<path d="M1019.38 68.3335L1031.93 68.3335L1031.93 56.3108L1019.38 56.3108L1019.38 68.3335Z" fill="#8763A6"/>
		<path d="M1019.38 49.5633L1031.93 49.5633L1031.93 37.5405L1019.38 37.5405L1019.38 49.5633Z" fill="#8763A6"/>
		<path d="M1019.38 30.793L1031.93 30.793L1031.93 18.7704L1019.38 18.7704L1019.38 30.793Z" fill="#8763A6"/>
		<path d="M1019.38 12.0228L1031.93 12.0228L1031.93 8.77947e-05L1019.38 8.66971e-05L1019.38 12.0228Z" fill="#8763A6"/>
		<path d="M999.776 199.736L1012.33 199.736L1012.33 187.713L999.776 187.713L999.776 199.736Z" fill="#8763A6"/>
		<path d="M999.776 180.966L1012.33 180.966L1012.33 168.943L999.776 168.943L999.776 180.966Z" fill="#8763A6"/>
		<path d="M999.776 162.195L1012.33 162.195L1012.33 150.173L999.776 150.173L999.776 162.195Z" fill="#8763A6"/>
		<path d="M999.776 143.425L1012.33 143.425L1012.33 131.402L999.776 131.402L999.776 143.425Z" fill="#8763A6"/>
		<path d="M999.776 87.1038L1012.33 87.1038L1012.33 75.0811L999.776 75.0811L999.776 87.1038Z" fill="#8763A6"/>
		<path d="M999.776 68.3335L1012.33 68.3335L1012.33 56.3108L999.776 56.3108L999.776 68.3335Z" fill="#8763A6"/>
		<path d="M999.776 49.5633L1012.33 49.5633L1012.33 37.5405L999.776 37.5405L999.776 49.5633Z" fill="#8763A6"/>
		<path d="M999.776 12.0228L1012.33 12.0228L1012.33 8.60811e-05L999.776 8.49834e-05L999.776 12.0228Z" fill="#8763A6"/>
		<path d="M980.163 331.138L992.718 331.138L992.718 319.115L980.163 319.115L980.163 331.138Z" fill="#8763A6"/>
		<path d="M980.163 312.368L992.718 312.368L992.718 300.345L980.163 300.345L980.163 312.368Z" fill="#8763A6"/>
		<path d="M980.163 293.598L992.718 293.598L992.718 281.575L980.163 281.575L980.163 293.598Z" fill="#8763A6"/>
		<path d="M980.163 256.057L992.718 256.057L992.718 244.034L980.163 244.034L980.163 256.057Z" fill="#8763A6"/>
		<path d="M980.163 218.517L992.718 218.517L992.718 206.494L980.163 206.494L980.163 218.517Z" fill="#8763A6"/>
		<path d="M980.163 180.966L992.718 180.966L992.718 168.943L980.163 168.943L980.163 180.966Z" fill="#8763A6"/>
		<path d="M980.163 143.425L992.718 143.425L992.718 131.402L980.163 131.402L980.163 143.425Z" fill="#8763A6"/>
		<path d="M980.163 124.655L992.718 124.655L992.718 112.632L980.163 112.632L980.163 124.655Z" fill="#8763A6"/>
		<path d="M980.163 87.1038L992.718 87.1038L992.718 75.0811L980.163 75.0811L980.163 87.1038Z" fill="#8763A6"/>
		<path d="M980.163 49.5633L992.718 49.5633L992.718 37.5405L980.163 37.5405L980.163 49.5633Z" fill="#8763A6"/>
		<path d="M980.163 30.793L992.718 30.793L992.718 18.7704L980.163 18.7704L980.163 30.793Z" fill="#8763A6"/>
		<path d="M980.163 12.0228L992.718 12.0228L992.718 8.43665e-05L980.163 8.32688e-05L980.163 12.0228Z" fill="#8763A6"/>
		<path d="M960.561 218.517L973.117 218.517L973.117 206.494L960.561 206.494L960.561 218.517Z" fill="#8763A6"/>
		<path d="M960.561 199.736L973.117 199.736L973.117 187.713L960.561 187.713L960.561 199.736Z" fill="#8763A6"/>
		<path d="M960.561 180.966L973.117 180.966L973.117 168.943L960.561 168.943L960.561 180.966Z" fill="#8763A6"/>
		<path d="M960.561 162.195L973.117 162.195L973.117 150.173L960.561 150.173L960.561 162.195Z" fill="#8763A6"/>
		<path d="M960.561 143.425L973.117 143.425L973.117 131.402L960.561 131.402L960.561 143.425Z" fill="#8763A6"/>
		<path d="M960.561 124.655L973.117 124.655L973.117 112.632L960.561 112.632L960.561 124.655Z" fill="#8763A6"/>
		<path d="M960.561 105.885L973.117 105.885L973.117 93.8619L960.561 93.8619L960.561 105.885Z" fill="#8763A6"/>
		<path d="M960.561 87.1038L973.117 87.1038L973.117 75.0811L960.561 75.0811L960.561 87.1038Z" fill="#8763A6"/>
		<path d="M960.561 68.3335L973.117 68.3335L973.117 56.3108L960.561 56.3108L960.561 68.3335Z" fill="#8763A6"/>
		<path d="M960.561 30.793L973.117 30.793L973.117 18.7704L960.561 18.7704L960.561 30.793Z" fill="#8763A6"/>
		<path d="M960.561 12.0228L973.117 12.0228L973.117 8.26528e-05L960.561 8.15552e-05L960.561 12.0228Z" fill="#8763A6"/>
		<path d="M940.959 331.138L953.515 331.138L953.515 319.115L940.959 319.115L940.959 331.138Z" fill="#8763A6"/>
		<path d="M940.959 312.368L953.515 312.368L953.515 300.345L940.959 300.345L940.959 312.368Z" fill="#8763A6"/>
		<path d="M940.959 293.598L953.515 293.598L953.515 281.575L940.959 281.575L940.959 293.598Z" fill="#8763A6"/>
		<path d="M940.959 256.057L953.515 256.057L953.515 244.034L940.959 244.034L940.959 256.057Z" fill="#8763A6"/>
		<path d="M940.959 237.287L953.515 237.287L953.515 225.264L940.959 225.264L940.959 237.287Z" fill="#8763A6"/>
		<path d="M940.959 218.517L953.515 218.517L953.515 206.494L940.959 206.494L940.959 218.517Z" fill="#8763A6"/>
		<path d="M940.959 199.736L953.515 199.736L953.515 187.713L940.959 187.713L940.959 199.736Z" fill="#8763A6"/>
		<path d="M940.959 180.966L953.515 180.966L953.515 168.943L940.959 168.943L940.959 180.966Z" fill="#8763A6"/>
		<path d="M940.959 162.195L953.515 162.195L953.515 150.173L940.959 150.173L940.959 162.195Z" fill="#8763A6"/>
		<path d="M940.959 143.425L953.515 143.425L953.515 131.402L940.959 131.402L940.959 143.425Z" fill="#8763A6"/>
		<path d="M940.959 87.1038L953.515 87.1038L953.515 75.0811L940.959 75.0811L940.959 87.1038Z" fill="#8763A6"/>
		<path d="M940.959 49.5633L953.515 49.5633L953.515 37.5405L940.959 37.5405L940.959 49.5633Z" fill="#8763A6"/>
		<path d="M940.959 30.793L953.515 30.793L953.515 18.7704L940.959 18.7704L940.959 30.793Z" fill="#8763A6"/>
		<path d="M940.959 12.0228L953.515 12.0228L953.515 8.09392e-05L940.959 7.98416e-05L940.959 12.0228Z" fill="#8763A6"/>
		<path d="M921.358 312.368L933.913 312.368L933.913 300.345L921.358 300.345L921.358 312.368Z" fill="#8763A6"/>
		<path d="M921.358 293.598L933.913 293.598L933.913 281.575L921.358 281.575L921.358 293.598Z" fill="#8763A6"/>
		<path d="M921.358 274.827L933.913 274.827L933.913 262.805L921.358 262.805L921.358 274.827Z" fill="#8763A6"/>
		<path d="M921.358 256.057L933.913 256.057L933.913 244.034L921.358 244.034L921.358 256.057Z" fill="#8763A6"/>
		<path d="M921.358 237.287L933.913 237.287L933.913 225.264L921.358 225.264L921.358 237.287Z" fill="#8763A6"/>
		<path d="M921.358 218.517L933.913 218.517L933.913 206.494L921.358 206.494L921.358 218.517Z" fill="#8763A6"/>
		<path d="M921.358 162.195L933.913 162.195L933.913 150.173L921.358 150.173L921.358 162.195Z" fill="#8763A6"/>
		<path d="M921.358 105.885L933.913 105.885L933.913 93.8619L921.358 93.8619L921.358 105.885Z" fill="#8763A6"/>
		<path d="M921.358 87.1038L933.913 87.1038L933.913 75.0811L921.358 75.0811L921.358 87.1038Z" fill="#8763A6"/>
		<path d="M921.358 68.3335L933.913 68.3335L933.913 56.3108L921.358 56.3108L921.358 68.3335Z" fill="#8763A6"/>
		<path d="M921.358 49.5633L933.913 49.5633L933.913 37.5405L921.358 37.5405L921.358 49.5633Z" fill="#8763A6"/>
		<path d="M921.358 30.793L933.913 30.793L933.913 18.7704L921.358 18.7704L921.358 30.793Z" fill="#8763A6"/>
		<path d="M921.358 12.0228L933.913 12.0228L933.913 7.92256e-05L921.358 7.81279e-05L921.358 12.0228Z" fill="#8763A6"/>
		<path d="M901.756 312.368L914.311 312.368L914.311 300.345L901.756 300.345L901.756 312.368Z" fill="#8763A6"/>
		<path d="M901.756 293.598L914.311 293.598L914.311 281.575L901.756 281.575L901.756 293.598Z" fill="#8763A6"/>
		<path d="M901.756 256.057L914.311 256.057L914.311 244.034L901.756 244.034L901.756 256.057Z" fill="#8763A6"/>
		<path d="M901.756 237.287L914.311 237.287L914.311 225.264L901.756 225.264L901.756 237.287Z" fill="#8763A6"/>
		<path d="M901.756 199.736L914.311 199.736L914.311 187.713L901.756 187.713L901.756 199.736Z" fill="#8763A6"/>
		<path d="M901.756 162.195L914.311 162.195L914.311 150.173L901.756 150.173L901.756 162.195Z" fill="#8763A6"/>
		<path d="M901.756 143.425L914.311 143.425L914.311 131.402L901.756 131.402L901.756 143.425Z" fill="#8763A6"/>
		<path d="M901.756 124.655L914.311 124.655L914.311 112.632L901.756 112.632L901.756 124.655Z" fill="#8763A6"/>
		<path d="M901.756 105.885L914.311 105.885L914.311 93.8619L901.756 93.8619L901.756 105.885Z" fill="#8763A6"/>
		<path d="M901.756 49.5633L914.311 49.5633L914.311 37.5405L901.756 37.5405L901.756 49.5633Z" fill="#8763A6"/>
		<path d="M901.756 30.793L914.311 30.793L914.311 18.7704L901.756 18.7704L901.756 30.793Z" fill="#8763A6"/>
		<path d="M901.756 12.0228L914.311 12.0228L914.311 7.75119e-05L901.756 7.64143e-05L901.756 12.0228Z" fill="#8763A6"/>
		<path d="M882.154 293.598L894.71 293.598L894.71 281.575L882.154 281.575L882.154 293.598Z" fill="#8763A6"/>
		<path d="M882.154 274.827L894.71 274.827L894.71 262.805L882.154 262.805L882.154 274.827Z" fill="#8763A6"/>
		<path d="M882.154 256.057L894.71 256.057L894.71 244.034L882.154 244.034L882.154 256.057Z" fill="#8763A6"/>
		<path d="M882.154 237.287L894.71 237.287L894.71 225.264L882.154 225.264L882.154 237.287Z" fill="#8763A6"/>
		<path d="M882.154 124.655L894.71 124.655L894.71 112.632L882.154 112.632L882.154 124.655Z" fill="#8763A6"/>
		<path d="M882.154 87.1038L894.71 87.1038L894.71 75.0811L882.154 75.0811L882.154 87.1038Z" fill="#8763A6"/>
		<path d="M882.154 68.3335L894.71 68.3335L894.71 56.3108L882.154 56.3108L882.154 68.3335Z" fill="#8763A6"/>
		<path d="M882.154 49.5633L894.71 49.5633L894.71 37.5405L882.154 37.5405L882.154 49.5633Z" fill="#8763A6"/>
		<path d="M882.154 12.0228L894.71 12.0228L894.71 7.57983e-05L882.154 7.47007e-05L882.154 12.0228Z" fill="#8763A6"/>
		<path d="M862.553 274.827L875.108 274.827L875.108 262.805L862.553 262.805L862.553 274.827Z" fill="#8763A6"/>
		<path d="M862.553 256.057L875.108 256.057L875.108 244.034L862.553 244.034L862.553 256.057Z" fill="#8763A6"/>
		<path d="M862.553 218.517L875.108 218.517L875.108 206.494L862.553 206.494L862.553 218.517Z" fill="#8763A6"/>
		<path d="M862.553 199.736L875.108 199.736L875.108 187.713L862.553 187.713L862.553 199.736Z" fill="#8763A6"/>
		<path d="M862.553 180.966L875.108 180.966L875.108 168.943L862.553 168.943L862.553 180.966Z" fill="#8763A6"/>
		<path d="M862.553 162.195L875.108 162.195L875.108 150.173L862.553 150.173L862.553 162.195Z" fill="#8763A6"/>
		<path d="M862.553 143.425L875.108 143.425L875.108 131.402L862.553 131.402L862.553 143.425Z" fill="#8763A6"/>
		<path d="M862.553 124.655L875.108 124.655L875.108 112.632L862.553 112.632L862.553 124.655Z" fill="#8763A6"/>
		<path d="M862.553 105.885L875.108 105.885L875.108 93.8619L862.553 93.8619L862.553 105.885Z" fill="#8763A6"/>
		<path d="M862.553 68.3335L875.108 68.3335L875.108 56.3108L862.553 56.3108L862.553 68.3335Z" fill="#8763A6"/>
		<path d="M862.553 49.5633L875.108 49.5633L875.108 37.5405L862.553 37.5405L862.553 49.5633Z" fill="#8763A6"/>
		<path d="M862.553 30.793L875.108 30.793L875.108 18.7704L862.553 18.7704L862.553 30.793Z" fill="#8763A6"/>
		<path d="M862.553 12.0228L875.108 12.0228L875.108 7.40846e-05L862.553 7.2987e-05L862.553 12.0228Z" fill="#8763A6"/>
		<path d="M842.94 331.138L855.495 331.138L855.495 319.115L842.94 319.115L842.94 331.138Z" fill="#8763A6"/>
		<path d="M842.94 274.827L855.495 274.827L855.495 262.805L842.94 262.805L842.94 274.827Z" fill="#8763A6"/>
		<path d="M842.94 237.287L855.495 237.287L855.495 225.264L842.94 225.264L842.94 237.287Z" fill="#8763A6"/>
		<path d="M842.94 180.966L855.495 180.966L855.495 168.943L842.94 168.943L842.94 180.966Z" fill="#8763A6"/>
		<path d="M842.94 162.195L855.495 162.195L855.495 150.173L842.94 150.173L842.94 162.195Z" fill="#8763A6"/>
		<path d="M842.94 124.655L855.495 124.655L855.495 112.632L842.94 112.632L842.94 124.655Z" fill="#8763A6"/>
		<path d="M842.94 87.1038L855.495 87.1038L855.495 75.0811L842.94 75.0811L842.94 87.1038Z" fill="#8763A6"/>
		<path d="M842.94 68.3335L855.495 68.3335L855.495 56.3108L842.94 56.3108L842.94 68.3335Z" fill="#8763A6"/>
		<path d="M842.94 30.793L855.495 30.793L855.495 18.7704L842.94 18.7704L842.94 30.793Z" fill="#8763A6"/>
		<path d="M842.94 12.0228L855.495 12.0228L855.495 7.237e-05L842.94 7.12724e-05L842.94 12.0228Z" fill="#8763A6"/>
		<path d="M823.338 293.598L835.893 293.598L835.893 281.575L823.338 281.575L823.338 293.598Z" fill="#8763A6"/>
		<path d="M823.338 274.827L835.893 274.827L835.893 262.805L823.338 262.805L823.338 274.827Z" fill="#8763A6"/>
		<path d="M823.338 237.287L835.893 237.287L835.893 225.264L823.338 225.264L823.338 237.287Z" fill="#8763A6"/>
		<path d="M823.338 199.736L835.893 199.736L835.893 187.713L823.338 187.713L823.338 199.736Z" fill="#8763A6"/>
		<path d="M823.338 180.966L835.893 180.966L835.893 168.943L823.338 168.943L823.338 180.966Z" fill="#8763A6"/>
		<path d="M823.338 162.195L835.893 162.195L835.893 150.173L823.338 150.173L823.338 162.195Z" fill="#8763A6"/>
		<path d="M823.338 87.1038L835.893 87.1038L835.893 75.0811L823.338 75.0811L823.338 87.1038Z" fill="#8763A6"/>
		<path d="M823.338 49.5633L835.893 49.5633L835.893 37.5405L823.338 37.5405L823.338 49.5633Z" fill="#8763A6"/>
		<path d="M823.338 30.793L835.893 30.793L835.893 18.7704L823.338 18.7704L823.338 30.793Z" fill="#8763A6"/>
		<path d="M803.737 312.368L816.292 312.368L816.292 300.345L803.737 300.345L803.737 312.368Z" fill="#8763A6"/>
		<path d="M803.737 256.057L816.292 256.057L816.292 244.034L803.737 244.034L803.737 256.057Z" fill="#8763A6"/>
		<path d="M803.737 218.517L816.292 218.517L816.292 206.494L803.737 206.494L803.737 218.517Z" fill="#8763A6"/>
		<path d="M803.737 199.736L816.292 199.736L816.292 187.713L803.737 187.713L803.737 199.736Z" fill="#8763A6"/>
		<path d="M803.737 162.195L816.292 162.195L816.292 150.173L803.737 150.173L803.737 162.195Z" fill="#8763A6"/>
		<path d="M803.737 143.425L816.292 143.425L816.292 131.402L803.737 131.402L803.737 143.425Z" fill="#8763A6"/>
		<path d="M803.737 124.655L816.292 124.655L816.292 112.632L803.737 112.632L803.737 124.655Z" fill="#8763A6"/>
		<path d="M803.737 105.885L816.292 105.885L816.292 93.8619L803.737 93.8619L803.737 105.885Z" fill="#8763A6"/>
		<path d="M803.737 49.5633L816.292 49.5633L816.292 37.5405L803.737 37.5405L803.737 49.5633Z" fill="#8763A6"/>
		<path d="M803.737 30.793L816.292 30.793L816.292 18.7704L803.737 18.7704L803.737 30.793Z" fill="#8763A6"/>
		<path d="M803.737 12.0228L816.292 12.0228L816.292 6.89428e-05L803.737 6.78452e-05L803.737 12.0228Z" fill="#8763A6"/>
		<path d="M784.135 180.966L796.69 180.966L796.69 168.943L784.135 168.943L784.135 180.966Z" fill="#8763A6"/>
		<path d="M784.135 162.195L796.69 162.195L796.69 150.173L784.135 150.173L784.135 162.195Z" fill="#8763A6"/>
		<path d="M784.135 124.655L796.69 124.655L796.69 112.632L784.135 112.632L784.135 124.655Z" fill="#8763A6"/>
		<path d="M784.135 105.885L796.69 105.885L796.69 93.8619L784.135 93.8619L784.135 105.885Z" fill="#8763A6"/>
		<path d="M784.135 87.1038L796.69 87.1038L796.69 75.0811L784.135 75.0811L784.135 87.1038Z" fill="#8763A6"/>
		<path d="M784.135 68.3335L796.69 68.3335L796.69 56.3108L784.135 56.3108L784.135 68.3335Z" fill="#8763A6"/>
		<path d="M784.135 49.5633L796.69 49.5633L796.69 37.5405L784.135 37.5405L784.135 49.5633Z" fill="#8763A6"/>
		<path d="M784.135 30.793L796.69 30.793L796.69 18.7704L784.135 18.7704L784.135 30.793Z" fill="#8763A6"/>
		<path d="M784.135 12.0228L796.69 12.0228L796.69 6.72291e-05L784.135 6.61315e-05L784.135 12.0228Z" fill="#8763A6"/>
		<path d="M764.533 274.827L777.088 274.827L777.088 262.805L764.533 262.805L764.533 274.827Z" fill="#8763A6"/>
		<path d="M764.533 237.287L777.088 237.287L777.088 225.264L764.533 225.264L764.533 237.287Z" fill="#8763A6"/>
		<path d="M764.533 218.517L777.088 218.517L777.088 206.494L764.533 206.494L764.533 218.517Z" fill="#8763A6"/>
		<path d="M764.533 199.736L777.088 199.736L777.088 187.713L764.533 187.713L764.533 199.736Z" fill="#8763A6"/>
		<path d="M764.533 180.966L777.088 180.966L777.088 168.943L764.533 168.943L764.533 180.966Z" fill="#8763A6"/>
		<path d="M764.533 143.425L777.088 143.425L777.088 131.402L764.533 131.402L764.533 143.425Z" fill="#8763A6"/>
		<path d="M764.533 124.655L777.088 124.655L777.088 112.632L764.533 112.632L764.533 124.655Z" fill="#8763A6"/>
		<path d="M764.533 105.885L777.088 105.885L777.088 93.8619L764.533 93.8619L764.533 105.885Z" fill="#8763A6"/>
		<path d="M764.533 87.1038L777.088 87.1038L777.088 75.0811L764.533 75.0811L764.533 87.1038Z" fill="#8763A6"/>
		<path d="M764.533 68.3335L777.088 68.3335L777.088 56.3108L764.533 56.3108L764.533 68.3335Z" fill="#8763A6"/>
		<path d="M764.533 30.793L777.088 30.793L777.088 18.7704L764.533 18.7704L764.533 30.793Z" fill="#8763A6"/>
		<path d="M764.533 12.0228L777.088 12.0228L777.088 6.55155e-05L764.533 6.44179e-05L764.533 12.0228Z" fill="#8763A6"/>
		<path d="M744.931 199.736L757.487 199.736L757.487 187.713L744.931 187.713L744.931 199.736Z" fill="#8763A6"/>
		<path d="M744.931 180.966L757.487 180.966L757.487 168.943L744.931 168.943L744.931 180.966Z" fill="#8763A6"/>
		<path d="M744.931 162.195L757.487 162.195L757.487 150.173L744.931 150.173L744.931 162.195Z" fill="#8763A6"/>
		<path d="M744.931 124.655L757.487 124.655L757.487 112.632L744.931 112.632L744.931 124.655Z" fill="#8763A6"/>
		<path d="M744.931 68.3335L757.487 68.3335L757.487 56.3108L744.931 56.3108L744.931 68.3335Z" fill="#8763A6"/>
		<path d="M744.931 49.5633L757.487 49.5633L757.487 37.5405L744.931 37.5405L744.931 49.5633Z" fill="#8763A6"/>
		<path d="M744.931 30.793L757.487 30.793L757.487 18.7704L744.931 18.7704L744.931 30.793Z" fill="#8763A6"/>
		<path d="M725.319 256.057L737.874 256.057L737.874 244.034L725.319 244.034L725.319 256.057Z" fill="#8763A6"/>
		<path d="M725.319 218.517L737.874 218.517L737.874 206.494L725.319 206.494L725.319 218.517Z" fill="#8763A6"/>
		<path d="M725.319 199.736L737.874 199.736L737.874 187.713L725.319 187.713L725.319 199.736Z" fill="#8763A6"/>
		<path d="M725.319 180.966L737.874 180.966L737.874 168.943L725.319 168.943L725.319 180.966Z" fill="#8763A6"/>
		<path d="M725.319 162.195L737.874 162.195L737.874 150.173L725.319 150.173L725.319 162.195Z" fill="#8763A6"/>
		<path d="M725.319 143.425L737.874 143.425L737.874 131.402L725.319 131.402L725.319 143.425Z" fill="#8763A6"/>
		<path d="M725.319 124.655L737.874 124.655L737.874 112.632L725.319 112.632L725.319 124.655Z" fill="#8763A6"/>
		<path d="M725.319 105.885L737.874 105.885L737.874 93.8618L725.319 93.8618L725.319 105.885Z" fill="#8763A6"/>
		<path d="M725.319 68.3335L737.874 68.3335L737.874 56.3108L725.319 56.3108L725.319 68.3335Z" fill="#8763A6"/>
		<path d="M725.319 12.0228L737.874 12.0228L737.874 6.20873e-05L725.319 6.09896e-05L725.319 12.0228Z" fill="#8763A6"/>
		<path d="M705.717 162.195L718.272 162.195L718.272 150.173L705.717 150.173L705.717 162.195Z" fill="#8763A6"/>
		<path d="M705.717 143.425L718.272 143.425L718.272 131.402L705.717 131.402L705.717 143.425Z" fill="#8763A6"/>
		<path d="M705.717 124.655L718.272 124.655L718.272 112.632L705.717 112.632L705.717 124.655Z" fill="#8763A6"/>
		<path d="M705.717 105.885L718.272 105.885L718.272 93.8618L705.717 93.8618L705.717 105.885Z" fill="#8763A6"/>
		<path d="M705.717 68.3335L718.272 68.3335L718.272 56.3108L705.717 56.3108L705.717 68.3335Z" fill="#8763A6"/>
		<path d="M705.717 30.793L718.272 30.793L718.272 18.7704L705.717 18.7704L705.717 30.793Z" fill="#8763A6"/>
		<path d="M705.717 12.0228L718.272 12.0228L718.272 6.03736e-05L705.717 5.9276e-05L705.717 12.0228Z" fill="#8763A6"/>
		<path d="M686.115 256.057L698.67 256.057L698.67 244.034L686.115 244.034L686.115 256.057Z" fill="#8763A6"/>
		<path d="M686.115 199.736L698.67 199.736L698.67 187.713L686.115 187.713L686.115 199.736Z" fill="#8763A6"/>
		<path d="M686.115 180.966L698.67 180.966L698.67 168.943L686.115 168.943L686.115 180.966Z" fill="#8763A6"/>
		<path d="M686.115 162.195L698.67 162.195L698.67 150.173L686.115 150.173L686.115 162.195Z" fill="#8763A6"/>
		<path d="M686.115 105.885L698.67 105.885L698.67 93.8618L686.115 93.8618L686.115 105.885Z" fill="#8763A6"/>
		<path d="M686.115 68.3335L698.67 68.3335L698.67 56.3108L686.115 56.3108L686.115 68.3335Z" fill="#8763A6"/>
		<path d="M686.115 49.5633L698.67 49.5633L698.67 37.5405L686.115 37.5405L686.115 49.5633Z" fill="#8763A6"/>
		<path d="M686.115 30.793L698.67 30.793L698.67 18.7704L686.115 18.7704L686.115 30.793Z" fill="#8763A6"/>
		<path d="M686.115 12.0228L698.67 12.0228L698.67 5.866e-05L686.115 5.75624e-05L686.115 12.0228Z" fill="#8763A6"/>
		<path d="M666.513 256.057L679.069 256.057L679.069 244.034L666.513 244.034L666.513 256.057Z" fill="#8763A6"/>
		<path d="M666.513 237.287L679.069 237.287L679.069 225.264L666.513 225.264L666.513 237.287Z" fill="#8763A6"/>
		<path d="M666.513 218.517L679.069 218.517L679.069 206.494L666.513 206.494L666.513 218.517Z" fill="#8763A6"/>
		<path d="M666.513 199.736L679.069 199.736L679.069 187.713L666.513 187.713L666.513 199.736Z" fill="#8763A6"/>
		<path d="M666.513 143.425L679.069 143.425L679.069 131.402L666.513 131.402L666.513 143.425Z" fill="#8763A6"/>
		<path d="M666.513 87.1038L679.069 87.1038L679.069 75.0811L666.513 75.081L666.513 87.1038Z" fill="#8763A6"/>
		<path d="M666.513 68.3335L679.069 68.3335L679.069 56.3108L666.513 56.3108L666.513 68.3335Z" fill="#8763A6"/>
		<path d="M666.513 49.5633L679.069 49.5633L679.069 37.5405L666.513 37.5405L666.513 49.5633Z" fill="#8763A6"/>
		<path d="M666.513 30.793L679.069 30.793L679.069 18.7704L666.513 18.7704L666.513 30.793Z" fill="#8763A6"/>
		<path d="M666.513 12.0228L679.069 12.0228L679.069 5.69464e-05L666.513 5.58487e-05L666.513 12.0228Z" fill="#8763A6"/>
		<path d="M646.912 218.517L659.467 218.517L659.467 206.494L646.912 206.494L646.912 218.517Z" fill="#8763A6"/>
		<path d="M646.912 199.736L659.467 199.736L659.467 187.713L646.912 187.713L646.912 199.736Z" fill="#8763A6"/>
		<path d="M646.912 180.966L659.467 180.966L659.467 168.943L646.912 168.943L646.912 180.966Z" fill="#8763A6"/>
		<path d="M646.912 143.425L659.467 143.425L659.467 131.402L646.912 131.402L646.912 143.425Z" fill="#8763A6"/>
		<path d="M646.912 124.655L659.467 124.655L659.467 112.632L646.912 112.632L646.912 124.655Z" fill="#8763A6"/>
		<path d="M646.912 87.1038L659.467 87.1038L659.467 75.081L646.912 75.081L646.912 87.1038Z" fill="#8763A6"/>
		<path d="M646.912 68.3335L659.467 68.3335L659.467 56.3108L646.912 56.3108L646.912 68.3335Z" fill="#8763A6"/>
		<path d="M646.912 30.793L659.467 30.793L659.467 18.7703L646.912 18.7703L646.912 30.793Z" fill="#8763A6"/>
		<path d="M646.912 12.0228L659.467 12.0228L659.467 5.52327e-05L646.912 5.41351e-05L646.912 12.0228Z" fill="#8763A6"/>
		<path d="M627.31 237.287L639.865 237.287L639.865 225.264L627.31 225.264L627.31 237.287Z" fill="#8763A6"/>
		<path d="M627.31 199.736L639.865 199.736L639.865 187.713L627.31 187.713L627.31 199.736Z" fill="#8763A6"/>
		<path d="M627.31 162.195L639.865 162.195L639.865 150.173L627.31 150.173L627.31 162.195Z" fill="#8763A6"/>
		<path d="M627.31 124.655L639.865 124.655L639.865 112.632L627.31 112.632L627.31 124.655Z" fill="#8763A6"/>
		<path d="M627.31 105.885L639.865 105.885L639.865 93.8618L627.31 93.8618L627.31 105.885Z" fill="#8763A6"/>
		<path d="M627.31 87.1038L639.865 87.1038L639.865 75.081L627.31 75.081L627.31 87.1038Z" fill="#8763A6"/>
		<path d="M627.31 49.5633L639.865 49.5633L639.865 37.5405L627.31 37.5405L627.31 49.5633Z" fill="#8763A6"/>
		<path d="M627.31 30.793L639.865 30.793L639.865 18.7703L627.31 18.7703L627.31 30.793Z" fill="#8763A6"/>
		<path d="M627.31 12.0228L639.865 12.0228L639.865 5.35191e-05L627.31 5.24215e-05L627.31 12.0228Z" fill="#8763A6"/>
		<path d="M607.697 256.057L620.253 256.057L620.253 244.034L607.697 244.034L607.697 256.057Z" fill="#8763A6"/>
		<path d="M607.697 218.517L620.253 218.517L620.253 206.494L607.697 206.494L607.697 218.517Z" fill="#8763A6"/>
		<path d="M607.697 180.966L620.253 180.966L620.253 168.943L607.697 168.943L607.697 180.966Z" fill="#8763A6"/>
		<path d="M607.697 105.885L620.253 105.885L620.253 93.8618L607.697 93.8618L607.697 105.885Z" fill="#8763A6"/>
		<path d="M607.697 87.1037L620.253 87.1038L620.253 75.081L607.697 75.081L607.697 87.1037Z" fill="#8763A6"/>
		<path d="M607.697 49.5633L620.253 49.5633L620.253 37.5405L607.697 37.5405L607.697 49.5633Z" fill="#8763A6"/>
		<path d="M607.697 30.793L620.253 30.793L620.253 18.7703L607.697 18.7703L607.697 30.793Z" fill="#8763A6"/>
		<path d="M588.096 199.736L600.651 199.736L600.651 187.713L588.096 187.713L588.096 199.736Z" fill="#8763A6"/>
		<path d="M588.096 180.966L600.651 180.966L600.651 168.943L588.096 168.943L588.096 180.966Z" fill="#8763A6"/>
		<path d="M588.096 162.195L600.651 162.195L600.651 150.173L588.096 150.173L588.096 162.195Z" fill="#8763A6"/>
		<path d="M588.096 143.425L600.651 143.425L600.651 131.402L588.096 131.402L588.096 143.425Z" fill="#8763A6"/>
		<path d="M588.096 124.655L600.651 124.655L600.651 112.632L588.096 112.632L588.096 124.655Z" fill="#8763A6"/>
		<path d="M588.096 87.1037L600.651 87.1037L600.651 75.081L588.096 75.081L588.096 87.1037Z" fill="#8763A6"/>
		<path d="M588.096 68.3335L600.651 68.3335L600.651 56.3108L588.096 56.3108L588.096 68.3335Z" fill="#8763A6"/>
		<path d="M588.096 49.5633L600.651 49.5633L600.651 37.5405L588.096 37.5405L588.096 49.5633Z" fill="#8763A6"/>
		<path d="M588.096 30.793L600.651 30.793L600.651 18.7703L588.096 18.7703L588.096 30.793Z" fill="#8763A6"/>
		<path d="M588.096 12.0228L600.651 12.0228L600.651 5.00908e-05L588.096 4.89932e-05L588.096 12.0228Z" fill="#8763A6"/>
		<path d="M568.494 293.598L581.049 293.598L581.049 281.575L568.494 281.575L568.494 293.598Z" fill="#8763A6"/>
		<path d="M568.494 256.057L581.049 256.057L581.049 244.034L568.494 244.034L568.494 256.057Z" fill="#8763A6"/>
		<path d="M568.494 237.287L581.049 237.287L581.049 225.264L568.494 225.264L568.494 237.287Z" fill="#8763A6"/>
		<path d="M568.494 218.517L581.049 218.517L581.049 206.494L568.494 206.494L568.494 218.517Z" fill="#8763A6"/>
		<path d="M568.494 180.966L581.049 180.966L581.049 168.943L568.494 168.943L568.494 180.966Z" fill="#8763A6"/>
		<path d="M568.494 124.655L581.049 124.655L581.049 112.632L568.494 112.632L568.494 124.655Z" fill="#8763A6"/>
		<path d="M568.494 87.1037L581.049 87.1037L581.049 75.081L568.494 75.081L568.494 87.1037Z" fill="#8763A6"/>
		<path d="M568.494 68.3335L581.049 68.3335L581.049 56.3108L568.494 56.3108L568.494 68.3335Z" fill="#8763A6"/>
		<path d="M568.494 30.793L581.049 30.793L581.049 18.7703L568.494 18.7703L568.494 30.793Z" fill="#8763A6"/>
		<path d="M568.494 12.0228L581.049 12.0228L581.049 4.83772e-05L568.494 4.72796e-05L568.494 12.0228Z" fill="#8763A6"/>
		<path d="M548.892 180.966L561.447 180.966L561.447 168.943L548.892 168.943L548.892 180.966Z" fill="#8763A6"/>
		<path d="M548.892 162.195L561.447 162.195L561.447 150.173L548.892 150.173L548.892 162.195Z" fill="#8763A6"/>
		<path d="M548.892 143.425L561.447 143.425L561.447 131.402L548.892 131.402L548.892 143.425Z" fill="#8763A6"/>
		<path d="M548.892 124.655L561.447 124.655L561.447 112.632L548.892 112.632L548.892 124.655Z" fill="#8763A6"/>
		<path d="M548.892 105.885L561.447 105.885L561.447 93.8618L548.892 93.8618L548.892 105.885Z" fill="#8763A6"/>
		<path d="M548.892 87.1037L561.447 87.1037L561.447 75.081L548.892 75.081L548.892 87.1037Z" fill="#8763A6"/>
		<path d="M548.892 68.3335L561.447 68.3335L561.447 56.3108L548.892 56.3108L548.892 68.3335Z" fill="#8763A6"/>
		<path d="M548.892 49.5632L561.447 49.5632L561.447 37.5405L548.892 37.5405L548.892 49.5632Z" fill="#8763A6"/>
		<path d="M548.892 30.793L561.447 30.793L561.447 18.7703L548.892 18.7703L548.892 30.793Z" fill="#8763A6"/>
		<path d="M548.892 12.0228L561.447 12.0228L561.447 4.66636e-05L548.892 4.5566e-05L548.892 12.0228Z" fill="#8763A6"/>
		<path d="M529.29 293.598L541.846 293.598L541.846 281.575L529.29 281.575L529.29 293.598Z" fill="#8763A6"/>
		<path d="M529.29 256.057L541.846 256.057L541.846 244.034L529.29 244.034L529.29 256.057Z" fill="#8763A6"/>
		<path d="M529.29 237.287L541.846 237.287L541.846 225.264L529.29 225.264L529.29 237.287Z" fill="#8763A6"/>
		<path d="M529.29 218.517L541.846 218.517L541.846 206.494L529.29 206.494L529.29 218.517Z" fill="#8763A6"/>
		<path d="M529.29 162.195L541.846 162.195L541.846 150.173L529.29 150.173L529.29 162.195Z" fill="#8763A6"/>
		<path d="M529.29 143.425L541.846 143.425L541.846 131.402L529.29 131.402L529.29 143.425Z" fill="#8763A6"/>
		<path d="M529.29 105.885L541.846 105.885L541.846 93.8618L529.29 93.8618L529.29 105.885Z" fill="#8763A6"/>
		<path d="M529.29 87.1037L541.846 87.1037L541.846 75.081L529.29 75.081L529.29 87.1037Z" fill="#8763A6"/>
		<path d="M529.29 49.5632L541.846 49.5632L541.846 37.5405L529.29 37.5405L529.29 49.5632Z" fill="#8763A6"/>
		<path d="M529.29 30.793L541.846 30.793L541.846 18.7703L529.29 18.7703L529.29 30.793Z" fill="#8763A6"/>
		<path d="M529.29 12.0227L541.846 12.0228L541.846 4.49499e-05L529.29 4.38523e-05L529.29 12.0227Z" fill="#8763A6"/>
		<path d="M509.689 274.827L522.244 274.827L522.244 262.805L509.689 262.805L509.689 274.827Z" fill="#8763A6"/>
		<path d="M509.689 218.517L522.244 218.517L522.244 206.494L509.689 206.494L509.689 218.517Z" fill="#8763A6"/>
		<path d="M509.689 199.736L522.244 199.736L522.244 187.713L509.689 187.713L509.689 199.736Z" fill="#8763A6"/>
		<path d="M509.689 180.966L522.244 180.966L522.244 168.943L509.689 168.943L509.689 180.966Z" fill="#8763A6"/>
		<path d="M509.689 162.195L522.244 162.195L522.244 150.173L509.689 150.173L509.689 162.195Z" fill="#8763A6"/>
		<path d="M509.689 124.655L522.244 124.655L522.244 112.632L509.689 112.632L509.689 124.655Z" fill="#8763A6"/>
		<path d="M509.689 105.885L522.244 105.885L522.244 93.8618L509.689 93.8618L509.689 105.885Z" fill="#8763A6"/>
		<path d="M509.689 87.1037L522.244 87.1037L522.244 75.081L509.689 75.081L509.689 87.1037Z" fill="#8763A6"/>
		<path d="M509.689 68.3334L522.244 68.3334L522.244 56.3108L509.689 56.3108L509.689 68.3334Z" fill="#8763A6"/>
		<path d="M509.689 49.5632L522.244 49.5632L522.244 37.5405L509.689 37.5405L509.689 49.5632Z" fill="#8763A6"/>
		<path d="M509.689 30.793L522.244 30.793L522.244 18.7703L509.689 18.7703L509.689 30.793Z" fill="#8763A6"/>
		<path d="M509.689 12.0227L522.244 12.0227L522.244 4.32363e-05L509.689 4.21387e-05L509.689 12.0227Z" fill="#8763A6"/>
		<path d="M490.087 312.368L502.642 312.368L502.642 300.345L490.087 300.345L490.087 312.368Z" fill="#8763A6"/>
		<path d="M490.087 256.057L502.642 256.057L502.642 244.034L490.087 244.034L490.087 256.057Z" fill="#8763A6"/>
		<path d="M490.087 237.287L502.642 237.287L502.642 225.264L490.087 225.264L490.087 237.287Z" fill="#8763A6"/>
		<path d="M490.087 180.966L502.642 180.966L502.642 168.943L490.087 168.943L490.087 180.966Z" fill="#8763A6"/>
		<path d="M490.087 143.425L502.642 143.425L502.642 131.402L490.087 131.402L490.087 143.425Z" fill="#8763A6"/>
		<path d="M490.087 105.885L502.642 105.885L502.642 93.8618L490.087 93.8618L490.087 105.885Z" fill="#8763A6"/>
		<path d="M490.087 87.1037L502.642 87.1037L502.642 75.081L490.087 75.081L490.087 87.1037Z" fill="#8763A6"/>
		<path d="M490.087 68.3334L502.642 68.3334L502.642 56.3108L490.087 56.3108L490.087 68.3334Z" fill="#8763A6"/>
		<path d="M490.087 49.5632L502.642 49.5632L502.642 37.5405L490.087 37.5405L490.087 49.5632Z" fill="#8763A6"/>
		<path d="M490.087 30.793L502.642 30.793L502.642 18.7703L490.087 18.7703L490.087 30.793Z" fill="#8763A6"/>
		<path d="M490.087 12.0227L502.642 12.0227L502.642 4.15227e-05L490.087 4.0425e-05L490.087 12.0227Z" fill="#8763A6"/>
		<path d="M470.474 293.598L483.029 293.598L483.029 281.575L470.474 281.575L470.474 293.598Z" fill="#8763A6"/>
		<path d="M470.474 274.827L483.029 274.827L483.029 262.805L470.474 262.805L470.474 274.827Z" fill="#8763A6"/>
		<path d="M470.474 199.736L483.029 199.736L483.03 187.713L470.474 187.713L470.474 199.736Z" fill="#8763A6"/>
		<path d="M470.474 180.966L483.03 180.966L483.03 168.943L470.474 168.943L470.474 180.966Z" fill="#8763A6"/>
		<path d="M470.474 143.425L483.03 143.425L483.03 131.402L470.474 131.402L470.474 143.425Z" fill="#8763A6"/>
		<path d="M470.474 124.655L483.03 124.655L483.03 112.632L470.474 112.632L470.474 124.655Z" fill="#8763A6"/>
		<path d="M470.474 87.1037L483.03 87.1037L483.03 75.081L470.474 75.081L470.474 87.1037Z" fill="#8763A6"/>
		<path d="M470.474 68.3334L483.03 68.3334L483.03 56.3108L470.474 56.3108L470.474 68.3334Z" fill="#8763A6"/>
		<path d="M470.474 49.5632L483.03 49.5632L483.03 37.5405L470.474 37.5405L470.474 49.5632Z" fill="#8763A6"/>
		<path d="M470.474 30.793L483.03 30.793L483.03 18.7703L470.474 18.7703L470.474 30.793Z" fill="#8763A6"/>
		<path d="M470.474 12.0227L483.03 12.0227L483.03 3.98081e-05L470.474 3.87104e-05L470.474 12.0227Z" fill="#8763A6"/>
		<path d="M450.873 368.689L463.428 368.689L463.428 356.666L450.873 356.666L450.873 368.689Z" fill="#8763A6"/>
		<path d="M450.873 312.368L463.428 312.368L463.428 300.345L450.873 300.345L450.873 312.368Z" fill="#8763A6"/>
		<path d="M450.873 274.827L463.428 274.827L463.428 262.805L450.873 262.805L450.873 274.827Z" fill="#8763A6"/>
		<path d="M450.873 256.057L463.428 256.057L463.428 244.034L450.873 244.034L450.873 256.057Z" fill="#8763A6"/>
		<path d="M450.873 218.517L463.428 218.517L463.428 206.494L450.873 206.494L450.873 218.517Z" fill="#8763A6"/>
		<path d="M450.873 162.195L463.428 162.195L463.428 150.173L450.873 150.173L450.873 162.195Z" fill="#8763A6"/>
		<path d="M450.873 124.655L463.428 124.655L463.428 112.632L450.873 112.632L450.873 124.655Z" fill="#8763A6"/>
		<path d="M450.873 105.885L463.428 105.885L463.428 93.8618L450.873 93.8618L450.873 105.885Z" fill="#8763A6"/>
		<path d="M450.873 87.1037L463.428 87.1037L463.428 75.081L450.873 75.081L450.873 87.1037Z" fill="#8763A6"/>
		<path d="M450.873 49.5632L463.428 49.5632L463.428 37.5405L450.873 37.5405L450.873 49.5632Z" fill="#8763A6"/>
		<path d="M450.873 12.0227L463.428 12.0227L463.428 3.80944e-05L450.873 3.69968e-05L450.873 12.0227Z" fill="#8763A6"/>
		<path d="M431.271 331.138L443.826 331.138L443.826 319.115L431.271 319.115L431.271 331.138Z" fill="#8763A6"/>
		<path d="M431.271 293.598L443.826 293.598L443.826 281.575L431.271 281.575L431.271 293.598Z" fill="#8763A6"/>
		<path d="M431.271 256.057L443.826 256.057L443.826 244.034L431.271 244.034L431.271 256.057Z" fill="#8763A6"/>
		<path d="M431.271 237.287L443.826 237.287L443.826 225.264L431.271 225.264L431.271 237.287Z" fill="#8763A6"/>
		<path d="M431.271 218.517L443.826 218.517L443.826 206.494L431.271 206.494L431.271 218.517Z" fill="#8763A6"/>
		<path d="M431.271 199.736L443.826 199.736L443.826 187.713L431.271 187.713L431.271 199.736Z" fill="#8763A6"/>
		<path d="M431.271 162.195L443.826 162.195L443.826 150.173L431.271 150.173L431.271 162.195Z" fill="#8763A6"/>
		<path d="M431.271 124.655L443.826 124.655L443.826 112.632L431.271 112.632L431.271 124.655Z" fill="#8763A6"/>
		<path d="M431.271 105.885L443.826 105.885L443.826 93.8618L431.271 93.8618L431.271 105.885Z" fill="#8763A6"/>
		<path d="M431.271 87.1037L443.826 87.1037L443.826 75.081L431.271 75.081L431.271 87.1037Z" fill="#8763A6"/>
		<path d="M431.271 68.3334L443.826 68.3334L443.826 56.3108L431.271 56.3108L431.271 68.3334Z" fill="#8763A6"/>
		<path d="M431.271 49.5632L443.826 49.5632L443.826 37.5405L431.271 37.5405L431.271 49.5632Z" fill="#8763A6"/>
		<path d="M431.271 30.793L443.826 30.793L443.826 18.7703L431.271 18.7703L431.271 30.793Z" fill="#8763A6"/>
		<path d="M431.271 12.0227L443.826 12.0227L443.826 3.63808e-05L431.271 3.52832e-05L431.271 12.0227Z" fill="#8763A6"/>
		<path d="M411.669 349.919L424.224 349.919L424.224 337.896L411.669 337.896L411.669 349.919Z" fill="#8763A6"/>
		<path d="M411.669 293.598L424.224 293.598L424.224 281.575L411.669 281.575L411.669 293.598Z" fill="#8763A6"/>
		<path d="M411.669 218.517L424.224 218.517L424.224 206.494L411.669 206.494L411.669 218.517Z" fill="#8763A6"/>
		<path d="M411.669 180.966L424.224 180.966L424.224 168.943L411.669 168.943L411.669 180.966Z" fill="#8763A6"/>
		<path d="M411.669 162.195L424.224 162.195L424.224 150.173L411.669 150.173L411.669 162.195Z" fill="#8763A6"/>
		<path d="M411.669 143.425L424.224 143.425L424.224 131.402L411.669 131.402L411.669 143.425Z" fill="#8763A6"/>
		<path d="M411.669 124.655L424.224 124.655L424.224 112.632L411.669 112.632L411.669 124.655Z" fill="#8763A6"/>
		<path d="M411.669 68.3334L424.224 68.3334L424.224 56.3108L411.669 56.3108L411.669 68.3334Z" fill="#8763A6"/>
		<path d="M411.669 49.5632L424.224 49.5632L424.224 37.5405L411.669 37.5405L411.669 49.5632Z" fill="#8763A6"/>
		<path d="M411.669 30.793L424.224 30.793L424.224 18.7703L411.669 18.7703L411.669 30.793Z" fill="#8763A6"/>
		<path d="M411.669 12.0227L424.224 12.0227L424.224 3.46672e-05L411.669 3.35695e-05L411.669 12.0227Z" fill="#8763A6"/>
		<path d="M392.067 406.23L404.623 406.23L404.623 394.207L392.067 394.207L392.067 406.23Z" fill="#8763A6"/>
		<path d="M392.067 387.459L404.623 387.459L404.623 375.437L392.067 375.437L392.067 387.459Z" fill="#8763A6"/>
		<path d="M392.067 368.689L404.623 368.689L404.623 356.666L392.067 356.666L392.067 368.689Z" fill="#8763A6"/>
		<path d="M392.067 349.919L404.623 349.919L404.623 337.896L392.067 337.896L392.067 349.919Z" fill="#8763A6"/>
		<path d="M392.067 331.138L404.623 331.138L404.623 319.115L392.067 319.115L392.067 331.138Z" fill="#8763A6"/>
		<path d="M392.067 312.368L404.623 312.368L404.623 300.345L392.067 300.345L392.067 312.368Z" fill="#8763A6"/>
		<path d="M392.067 293.598L404.623 293.598L404.623 281.575L392.067 281.575L392.067 293.598Z" fill="#8763A6"/>
		<path d="M392.067 274.827L404.623 274.827L404.623 262.805L392.067 262.805L392.067 274.827Z" fill="#8763A6"/>
		<path d="M392.067 256.057L404.623 256.057L404.623 244.034L392.067 244.034L392.067 256.057Z" fill="#8763A6"/>
		<path d="M392.067 218.517L404.623 218.517L404.623 206.494L392.067 206.494L392.067 218.517Z" fill="#8763A6"/>
		<path d="M392.067 199.736L404.623 199.736L404.623 187.713L392.067 187.713L392.067 199.736Z" fill="#8763A6"/>
		<path d="M392.067 180.966L404.623 180.966L404.623 168.943L392.067 168.943L392.067 180.966Z" fill="#8763A6"/>
		<path d="M392.067 162.195L404.623 162.195L404.623 150.173L392.067 150.173L392.067 162.195Z" fill="#8763A6"/>
		<path d="M392.067 105.885L404.623 105.885L404.623 93.8618L392.067 93.8618L392.067 105.885Z" fill="#8763A6"/>
		<path d="M392.067 87.1037L404.623 87.1037L404.623 75.081L392.067 75.081L392.067 87.1037Z" fill="#8763A6"/>
		<path d="M392.067 68.3334L404.623 68.3334L404.623 56.3108L392.067 56.3108L392.067 68.3334Z" fill="#8763A6"/>
		<path d="M392.067 49.5632L404.623 49.5632L404.623 37.5405L392.067 37.5405L392.067 49.5632Z" fill="#8763A6"/>
		<path d="M392.067 30.793L404.623 30.793L404.623 18.7703L392.067 18.7703L392.067 30.793Z" fill="#8763A6"/>
		<path d="M392.067 12.0227L404.623 12.0227L404.623 3.29535e-05L392.067 3.18559e-05L392.067 12.0227Z" fill="#8763A6"/>
		<path d="M372.466 368.689L385.021 368.689L385.021 356.666L372.466 356.666L372.466 368.689Z" fill="#8763A6"/>
		<path d="M372.466 349.919L385.021 349.919L385.021 337.896L372.466 337.896L372.466 349.919Z" fill="#8763A6"/>
		<path d="M372.466 312.368L385.021 312.368L385.021 300.345L372.466 300.345L372.466 312.368Z" fill="#8763A6"/>
		<path d="M372.466 274.827L385.021 274.827L385.021 262.805L372.466 262.805L372.466 274.827Z" fill="#8763A6"/>
		<path d="M372.466 256.057L385.021 256.057L385.021 244.034L372.466 244.034L372.466 256.057Z" fill="#8763A6"/>
		<path d="M372.466 218.517L385.021 218.517L385.021 206.494L372.466 206.494L372.466 218.517Z" fill="#8763A6"/>
		<path d="M372.466 180.966L385.021 180.966L385.021 168.943L372.466 168.943L372.466 180.966Z" fill="#8763A6"/>
		<path d="M372.466 162.195L385.021 162.195L385.021 150.173L372.466 150.173L372.466 162.195Z" fill="#8763A6"/>
		<path d="M372.466 143.425L385.021 143.425L385.021 131.402L372.466 131.402L372.466 143.425Z" fill="#8763A6"/>
		<path d="M372.466 124.655L385.021 124.655L385.021 112.632L372.466 112.632L372.466 124.655Z" fill="#8763A6"/>
		<path d="M372.466 105.885L385.021 105.885L385.021 93.8618L372.466 93.8618L372.466 105.885Z" fill="#8763A6"/>
		<path d="M372.466 49.5632L385.021 49.5632L385.021 37.5405L372.466 37.5405L372.466 49.5632Z" fill="#8763A6"/>
		<path d="M372.466 30.793L385.021 30.793L385.021 18.7703L372.466 18.7703L372.466 30.793Z" fill="#8763A6"/>
		<path d="M352.853 331.138L365.408 331.138L365.408 319.115L352.853 319.115L352.853 331.138Z" fill="#8763A6"/>
		<path d="M352.853 312.368L365.408 312.368L365.408 300.345L352.853 300.345L352.853 312.368Z" fill="#8763A6"/>
		<path d="M352.853 256.057L365.408 256.057L365.408 244.034L352.853 244.034L352.853 256.057Z" fill="#8763A6"/>
		<path d="M352.853 237.287L365.408 237.287L365.408 225.264L352.853 225.264L352.853 237.287Z" fill="#8763A6"/>
		<path d="M352.853 218.517L365.408 218.517L365.408 206.494L352.853 206.494L352.853 218.517Z" fill="#8763A6"/>
		<path d="M352.853 199.736L365.408 199.736L365.408 187.713L352.853 187.713L352.853 199.736Z" fill="#8763A6"/>
		<path d="M352.853 162.195L365.408 162.195L365.408 150.173L352.853 150.173L352.853 162.195Z" fill="#8763A6"/>
		<path d="M352.853 124.655L365.408 124.655L365.408 112.632L352.853 112.632L352.853 124.655Z" fill="#8763A6"/>
		<path d="M352.853 105.885L365.408 105.885L365.408 93.8618L352.853 93.8618L352.853 105.885Z" fill="#8763A6"/>
		<path d="M352.853 87.1037L365.408 87.1037L365.408 75.081L352.853 75.081L352.853 87.1037Z" fill="#8763A6"/>
		<path d="M352.853 68.3334L365.408 68.3334L365.408 56.3108L352.853 56.3108L352.853 68.3334Z" fill="#8763A6"/>
		<path d="M352.853 49.5632L365.408 49.5632L365.408 37.5405L352.853 37.5405L352.853 49.5632Z" fill="#8763A6"/>
		<path d="M352.853 30.793L365.408 30.793L365.408 18.7703L352.853 18.7703L352.853 30.793Z" fill="#8763A6"/>
		<path d="M352.853 12.0227L365.408 12.0227L365.408 2.95253e-05L352.853 2.84277e-05L352.853 12.0227Z" fill="#8763A6"/>
		<path d="M333.251 349.919L345.807 349.919L345.807 337.896L333.251 337.896L333.251 349.919Z" fill="#8763A6"/>
		<path d="M333.251 274.827L345.807 274.827L345.807 262.805L333.251 262.805L333.251 274.827Z" fill="#8763A6"/>
		<path d="M333.251 237.287L345.807 237.287L345.807 225.264L333.251 225.264L333.251 237.287Z" fill="#8763A6"/>
		<path d="M333.251 199.736L345.807 199.736L345.807 187.713L333.251 187.713L333.251 199.736Z" fill="#8763A6"/>
		<path d="M333.251 180.966L345.807 180.966L345.807 168.943L333.251 168.943L333.251 180.966Z" fill="#8763A6"/>
		<path d="M333.251 162.195L345.807 162.195L345.807 150.173L333.251 150.173L333.251 162.195Z" fill="#8763A6"/>
		<path d="M333.251 143.425L345.807 143.425L345.807 131.402L333.251 131.402L333.251 143.425Z" fill="#8763A6"/>
		<path d="M333.251 105.885L345.807 105.885L345.807 93.8618L333.251 93.8618L333.251 105.885Z" fill="#8763A6"/>
		<path d="M333.251 68.3334L345.807 68.3334L345.807 56.3108L333.251 56.3108L333.251 68.3334Z" fill="#8763A6"/>
		<path d="M333.251 30.793L345.807 30.793L345.807 18.7703L333.251 18.7703L333.251 30.793Z" fill="#8763A6"/>
		<path d="M333.251 12.0227L345.807 12.0227L345.807 2.78116e-05L333.251 2.6714e-05L333.251 12.0227Z" fill="#8763A6"/>
		<path d="M313.65 162.195L326.205 162.195L326.205 150.173L313.65 150.173L313.65 162.195Z" fill="#8763A6"/>
		<path d="M313.65 143.425L326.205 143.425L326.205 131.402L313.65 131.402L313.65 143.425Z" fill="#8763A6"/>
		<path d="M313.65 124.655L326.205 124.655L326.205 112.632L313.65 112.632L313.65 124.655Z" fill="#8763A6"/>
		<path d="M313.65 87.1037L326.205 87.1037L326.205 75.081L313.65 75.081L313.65 87.1037Z" fill="#8763A6"/>
		<path d="M313.65 68.3334L326.205 68.3334L326.205 56.3108L313.65 56.3108L313.65 68.3334Z" fill="#8763A6"/>
		<path d="M313.65 49.5632L326.205 49.5632L326.205 37.5405L313.65 37.5405L313.65 49.5632Z" fill="#8763A6"/>
		<path d="M313.65 30.793L326.205 30.793L326.205 18.7703L313.65 18.7703L313.65 30.793Z" fill="#8763A6"/>
		<path d="M294.048 387.459L306.603 387.459L306.603 375.437L294.048 375.437L294.048 387.459Z" fill="#8763A6"/>
		<path d="M294.048 368.689L306.603 368.689L306.603 356.666L294.048 356.666L294.048 368.689Z" fill="#8763A6"/>
		<path d="M294.048 349.919L306.603 349.919L306.603 337.896L294.048 337.896L294.048 349.919Z" fill="#8763A6"/>
		<path d="M294.048 331.138L306.603 331.138L306.603 319.115L294.048 319.115L294.048 331.138Z" fill="#8763A6"/>
		<path d="M294.048 312.368L306.603 312.368L306.603 300.345L294.048 300.345L294.048 312.368Z" fill="#8763A6"/>
		<path d="M294.048 274.827L306.603 274.827L306.603 262.805L294.048 262.805L294.048 274.827Z" fill="#8763A6"/>
		<path d="M294.048 256.057L306.603 256.057L306.603 244.034L294.048 244.034L294.048 256.057Z" fill="#8763A6"/>
		<path d="M294.048 180.966L306.603 180.966L306.603 168.943L294.048 168.943L294.048 180.966Z" fill="#8763A6"/>
		<path d="M294.048 162.195L306.603 162.195L306.603 150.173L294.048 150.173L294.048 162.195Z" fill="#8763A6"/>
		<path d="M294.048 143.425L306.603 143.425L306.603 131.402L294.048 131.402L294.048 143.425Z" fill="#8763A6"/>
		<path d="M294.048 124.655L306.603 124.655L306.603 112.632L294.048 112.632L294.048 124.655Z" fill="#8763A6"/>
		<path d="M294.048 105.885L306.603 105.885L306.603 93.8618L294.048 93.8618L294.048 105.885Z" fill="#8763A6"/>
		<path d="M294.048 87.1037L306.603 87.1037L306.603 75.081L294.048 75.081L294.048 87.1037Z" fill="#8763A6"/>
		<path d="M294.048 68.3334L306.603 68.3334L306.603 56.3108L294.048 56.3108L294.048 68.3334Z" fill="#8763A6"/>
		<path d="M294.048 49.5632L306.603 49.5632L306.603 37.5405L294.048 37.5405L294.048 49.5632Z" fill="#8763A6"/>
		<path d="M294.048 30.793L306.603 30.793L306.603 18.7703L294.048 18.7703L294.048 30.793Z" fill="#8763A6"/>
		<path d="M294.048 12.0227L306.603 12.0227L306.603 2.43844e-05L294.048 2.32868e-05L294.048 12.0227Z" fill="#8763A6"/>
		<path d="M274.446 368.689L287.001 368.689L287.001 356.666L274.446 356.666L274.446 368.689Z" fill="#8763A6"/>
		<path d="M274.446 312.368L287.001 312.368L287.001 300.345L274.446 300.345L274.446 312.368Z" fill="#8763A6"/>
		<path d="M274.446 256.057L287.001 256.057L287.001 244.034L274.446 244.034L274.446 256.057Z" fill="#8763A6"/>
		<path d="M274.446 237.287L287.001 237.287L287.001 225.264L274.446 225.264L274.446 237.287Z" fill="#8763A6"/>
		<path d="M274.446 218.517L287.001 218.517L287.001 206.494L274.446 206.494L274.446 218.517Z" fill="#8763A6"/>
		<path d="M274.446 180.966L287.001 180.966L287.001 168.943L274.446 168.943L274.446 180.966Z" fill="#8763A6"/>
		<path d="M274.446 143.425L287.001 143.425L287.001 131.402L274.446 131.402L274.446 143.425Z" fill="#8763A6"/>
		<path d="M274.446 124.655L287.001 124.655L287.001 112.632L274.446 112.632L274.446 124.655Z" fill="#8763A6"/>
		<path d="M274.446 105.885L287.001 105.885L287.001 93.8618L274.446 93.8618L274.446 105.885Z" fill="#8763A6"/>
		<path d="M274.446 87.1037L287.001 87.1037L287.001 75.081L274.446 75.081L274.446 87.1037Z" fill="#8763A6"/>
		<path d="M274.446 49.5632L287.001 49.5632L287.001 37.5405L274.446 37.5405L274.446 49.5632Z" fill="#8763A6"/>
		<path d="M274.446 12.0227L287.001 12.0227L287.001 2.26707e-05L274.446 2.15731e-05L274.446 12.0227Z" fill="#8763A6"/>
		<path d="M254.844 349.919L267.4 349.919L267.4 337.896L254.844 337.896L254.844 349.919Z" fill="#8763A6"/>
		<path d="M254.844 331.138L267.4 331.138L267.4 319.115L254.844 319.115L254.844 331.138Z" fill="#8763A6"/>
		<path d="M254.844 293.598L267.4 293.598L267.4 281.575L254.844 281.575L254.844 293.598Z" fill="#8763A6"/>
		<path d="M254.844 218.517L267.4 218.517L267.4 206.494L254.844 206.494L254.844 218.517Z" fill="#8763A6"/>
		<path d="M254.844 199.736L267.4 199.736L267.4 187.713L254.844 187.713L254.844 199.736Z" fill="#8763A6"/>
		<path d="M254.844 180.966L267.4 180.966L267.4 168.943L254.844 168.943L254.844 180.966Z" fill="#8763A6"/>
		<path d="M254.844 143.425L267.4 143.425L267.4 131.402L254.844 131.402L254.844 143.425Z" fill="#8763A6"/>
		<path d="M254.844 124.655L267.4 124.655L267.4 112.632L254.844 112.632L254.844 124.655Z" fill="#8763A6"/>
		<path d="M254.844 87.1037L267.4 87.1037L267.4 75.081L254.844 75.081L254.844 87.1037Z" fill="#8763A6"/>
		<path d="M254.844 68.3334L267.4 68.3334L267.4 56.3108L254.844 56.3107L254.844 68.3334Z" fill="#8763A6"/>
		<path d="M254.844 49.5632L267.4 49.5632L267.4 37.5405L254.844 37.5405L254.844 49.5632Z" fill="#8763A6"/>
		<path d="M254.844 30.793L267.4 30.793L267.4 18.7703L254.844 18.7703L254.844 30.793Z" fill="#8763A6"/>
		<path d="M254.844 12.0227L267.4 12.0227L267.4 2.09571e-05L254.844 1.98595e-05L254.844 12.0227Z" fill="#8763A6"/>
		<path d="M235.232 387.459L247.787 387.459L247.787 375.437L235.232 375.437L235.232 387.459Z" fill="#8763A6"/>
		<path d="M235.232 368.689L247.787 368.689L247.787 356.666L235.232 356.666L235.232 368.689Z" fill="#8763A6"/>
		<path d="M235.232 349.919L247.787 349.919L247.787 337.896L235.232 337.896L235.232 349.919Z" fill="#8763A6"/>
		<path d="M235.232 312.368L247.787 312.368L247.787 300.345L235.232 300.345L235.232 312.368Z" fill="#8763A6"/>
		<path d="M235.232 274.827L247.787 274.827L247.787 262.805L235.232 262.805L235.232 274.827Z" fill="#8763A6"/>
		<path d="M235.232 256.057L247.787 256.057L247.787 244.034L235.232 244.034L235.232 256.057Z" fill="#8763A6"/>
		<path d="M235.232 218.517L247.787 218.517L247.787 206.494L235.232 206.494L235.232 218.517Z" fill="#8763A6"/>
		<path d="M235.232 180.966L247.787 180.966L247.787 168.943L235.232 168.943L235.232 180.966Z" fill="#8763A6"/>
		<path d="M235.232 162.195L247.787 162.195L247.787 150.173L235.232 150.173L235.232 162.195Z" fill="#8763A6"/>
		<path d="M235.232 143.425L247.787 143.425L247.787 131.402L235.232 131.402L235.232 143.425Z" fill="#8763A6"/>
		<path d="M235.232 124.655L247.787 124.655L247.787 112.632L235.232 112.632L235.232 124.655Z" fill="#8763A6"/>
		<path d="M235.232 105.885L247.787 105.885L247.787 93.8618L235.232 93.8618L235.232 105.885Z" fill="#8763A6"/>
		<path d="M235.232 49.5632L247.787 49.5632L247.787 37.5405L235.232 37.5405L235.232 49.5632Z" fill="#8763A6"/>
		<path d="M235.232 12.0227L247.787 12.0227L247.787 1.92425e-05L235.232 1.81449e-05L235.232 12.0227Z" fill="#8763A6"/>
		<path d="M215.63 387.459L228.185 387.459L228.185 375.437L215.63 375.437L215.63 387.459Z" fill="#8763A6"/>
		<path d="M215.63 349.919L228.185 349.919L228.185 337.896L215.63 337.896L215.63 349.919Z" fill="#8763A6"/>
		<path d="M215.63 293.598L228.185 293.598L228.185 281.575L215.63 281.575L215.63 293.598Z" fill="#8763A6"/>
		<path d="M215.63 256.057L228.185 256.057L228.185 244.034L215.63 244.034L215.63 256.057Z" fill="#8763A6"/>
		<path d="M215.63 237.287L228.185 237.287L228.185 225.264L215.63 225.264L215.63 237.287Z" fill="#8763A6"/>
		<path d="M215.63 218.517L228.185 218.517L228.185 206.494L215.63 206.494L215.63 218.517Z" fill="#8763A6"/>
		<path d="M215.63 199.736L228.185 199.736L228.185 187.713L215.63 187.713L215.63 199.736Z" fill="#8763A6"/>
		<path d="M215.63 180.966L228.185 180.966L228.185 168.943L215.63 168.943L215.63 180.966Z" fill="#8763A6"/>
		<path d="M215.63 162.195L228.185 162.195L228.185 150.173L215.63 150.173L215.63 162.195Z" fill="#8763A6"/>
		<path d="M215.63 124.655L228.185 124.655L228.185 112.632L215.63 112.632L215.63 124.655Z" fill="#8763A6"/>
		<path d="M215.63 105.885L228.185 105.885L228.185 93.8618L215.63 93.8618L215.63 105.885Z" fill="#8763A6"/>
		<path d="M215.63 87.1037L228.185 87.1037L228.185 75.081L215.63 75.081L215.63 87.1037Z" fill="#8763A6"/>
		<path d="M215.63 49.5632L228.185 49.5632L228.185 37.5405L215.63 37.5405L215.63 49.5632Z" fill="#8763A6"/>
		<path d="M215.63 30.793L228.185 30.793L228.185 18.7703L215.63 18.7703L215.63 30.793Z" fill="#8763A6"/>
		<path d="M215.63 12.0227L228.185 12.0227L228.185 1.75289e-05L215.63 1.64313e-05L215.63 12.0227Z" fill="#8763A6"/>
		<path d="M196.028 274.827L208.584 274.827L208.584 262.805L196.028 262.805L196.028 274.827Z" fill="#8763A6"/>
		<path d="M196.028 237.287L208.584 237.287L208.584 225.264L196.028 225.264L196.028 237.287Z" fill="#8763A6"/>
		<path d="M196.028 180.965L208.584 180.966L208.584 168.943L196.028 168.943L196.028 180.965Z" fill="#8763A6"/>
		<path d="M196.028 162.195L208.584 162.195L208.584 150.173L196.028 150.173L196.028 162.195Z" fill="#8763A6"/>
		<path d="M196.028 143.425L208.584 143.425L208.584 131.402L196.028 131.402L196.028 143.425Z" fill="#8763A6"/>
		<path d="M196.028 124.655L208.584 124.655L208.584 112.632L196.028 112.632L196.028 124.655Z" fill="#8763A6"/>
		<path d="M196.028 105.885L208.584 105.885L208.584 93.8618L196.028 93.8618L196.028 105.885Z" fill="#8763A6"/>
		<path d="M196.028 87.1037L208.584 87.1037L208.584 75.081L196.028 75.081L196.028 87.1037Z" fill="#8763A6"/>
		<path d="M196.028 49.5632L208.584 49.5632L208.584 37.5405L196.028 37.5405L196.028 49.5632Z" fill="#8763A6"/>
		<path d="M196.028 12.0227L208.584 12.0227L208.584 1.58152e-05L196.028 1.47176e-05L196.028 12.0227Z" fill="#8763A6"/>
		<path d="M176.426 387.459L188.982 387.459L188.982 375.437L176.426 375.437L176.426 387.459Z" fill="#8763A6"/>
		<path d="M176.426 368.689L188.982 368.689L188.982 356.666L176.426 356.666L176.426 368.689Z" fill="#8763A6"/>
		<path d="M176.426 349.919L188.982 349.919L188.982 337.896L176.426 337.896L176.426 349.919Z" fill="#8763A6"/>
		<path d="M176.426 293.598L188.982 293.598L188.982 281.575L176.426 281.575L176.426 293.598Z" fill="#8763A6"/>
		<path d="M176.426 256.057L188.982 256.057L188.982 244.034L176.426 244.034L176.426 256.057Z" fill="#8763A6"/>
		<path d="M176.426 218.517L188.982 218.517L188.982 206.494L176.426 206.494L176.426 218.517Z" fill="#8763A6"/>
		<path d="M176.426 199.736L188.982 199.736L188.982 187.713L176.426 187.713L176.426 199.736Z" fill="#8763A6"/>
		<path d="M176.426 162.195L188.982 162.195L188.982 150.173L176.426 150.173L176.426 162.195Z" fill="#8763A6"/>
		<path d="M176.426 143.425L188.982 143.425L188.982 131.402L176.426 131.402L176.426 143.425Z" fill="#8763A6"/>
		<path d="M176.426 124.655L188.982 124.655L188.982 112.632L176.426 112.632L176.426 124.655Z" fill="#8763A6"/>
		<path d="M176.426 105.885L188.982 105.885L188.982 93.8618L176.426 93.8618L176.426 105.885Z" fill="#8763A6"/>
		<path d="M176.426 68.3334L188.982 68.3334L188.982 56.3107L176.426 56.3107L176.426 68.3334Z" fill="#8763A6"/>
		<path d="M176.426 49.5632L188.982 49.5632L188.982 37.5404L176.426 37.5404L176.426 49.5632Z" fill="#8763A6"/>
		<path d="M176.426 12.0227L188.982 12.0227L188.982 1.41016e-05L176.426 1.3004e-05L176.426 12.0227Z" fill="#8763A6"/>
		<path d="M156.825 349.919L169.38 349.919L169.38 337.896L156.825 337.896L156.825 349.919Z" fill="#8763A6"/>
		<path d="M156.825 331.138L169.38 331.138L169.38 319.115L156.825 319.115L156.825 331.138Z" fill="#8763A6"/>
		<path d="M156.825 293.598L169.38 293.598L169.38 281.575L156.825 281.575L156.825 293.598Z" fill="#8763A6"/>
		<path d="M156.825 274.827L169.38 274.827L169.38 262.805L156.825 262.805L156.825 274.827Z" fill="#8763A6"/>
		<path d="M156.825 199.736L169.38 199.736L169.38 187.713L156.825 187.713L156.825 199.736Z" fill="#8763A6"/>
		<path d="M156.825 180.965L169.38 180.965L169.38 168.943L156.825 168.943L156.825 180.965Z" fill="#8763A6"/>
		<path d="M156.825 143.425L169.38 143.425L169.38 131.402L156.825 131.402L156.825 143.425Z" fill="#8763A6"/>
		<path d="M156.825 87.1037L169.38 87.1037L169.38 75.081L156.825 75.081L156.825 87.1037Z" fill="#8763A6"/>
		<path d="M156.825 68.3334L169.38 68.3334L169.38 56.3107L156.825 56.3107L156.825 68.3334Z" fill="#8763A6"/>
		<path d="M156.825 49.5632L169.38 49.5632L169.38 37.5404L156.825 37.5404L156.825 49.5632Z" fill="#8763A6"/>
		<path d="M156.825 30.7929L169.38 30.793L169.38 18.7703L156.825 18.7703L156.825 30.7929Z" fill="#8763A6"/>
		<path d="M156.825 12.0227L169.38 12.0227L169.38 1.23879e-05L156.825 1.12903e-05L156.825 12.0227Z" fill="#8763A6"/>
		<path d="M137.223 180.965L149.778 180.965L149.778 168.943L137.223 168.943L137.223 180.965Z" fill="#8763A6"/>
		<path d="M137.223 237.287L149.778 237.287L149.778 225.264L137.223 225.264L137.223 237.287Z" fill="#8763A6"/>
		<path d="M137.223 162.195L149.778 162.195L149.778 150.173L137.223 150.173L137.223 162.195Z" fill="#8763A6"/>
		<path d="M137.223 87.1037L149.778 87.1037L149.778 75.081L137.223 75.081L137.223 87.1037Z" fill="#8763A6"/>
		<path d="M137.223 49.5632L149.778 49.5632L149.778 37.5404L137.223 37.5404L137.223 49.5632Z" fill="#8763A6"/>
		<path d="M137.223 12.0227L149.778 12.0227L149.778 1.06743e-05L137.223 9.5767e-06L137.223 12.0227Z" fill="#8763A6"/>
		<path d="M117.621 406.23L130.177 406.23L130.177 394.207L117.621 394.207L117.621 406.23Z" fill="#8763A6"/>
		<path d="M117.621 387.459L130.177 387.459L130.177 375.437L117.621 375.437L117.621 387.459Z" fill="#8763A6"/>
		<path d="M117.621 331.138L130.177 331.138L130.177 319.115L117.621 319.115L117.621 331.138Z" fill="#8763A6"/>
		<path d="M117.621 312.368L130.177 312.368L130.177 300.345L117.621 300.345L117.621 312.368Z" fill="#8763A6"/>
		<path d="M117.621 293.598L130.177 293.598L130.177 281.575L117.621 281.575L117.621 293.598Z" fill="#8763A6"/>
		<path d="M117.621 274.827L130.177 274.827L130.177 262.805L117.621 262.805L117.621 274.827Z" fill="#8763A6"/>
		<path d="M117.621 256.057L130.177 256.057L130.177 244.034L117.621 244.034L117.621 256.057Z" fill="#8763A6"/>
		<path d="M117.621 199.736L130.177 199.736L130.177 187.713L117.621 187.713L117.621 199.736Z" fill="#8763A6"/>
		<path d="M117.621 180.965L130.177 180.965L130.177 168.943L117.621 168.943L117.621 180.965Z" fill="#8763A6"/>
		<path d="M117.621 162.195L130.177 162.195L130.177 150.173L117.621 150.173L117.621 162.195Z" fill="#8763A6"/>
		<path d="M117.621 124.655L130.177 124.655L130.177 112.632L117.621 112.632L117.621 124.655Z" fill="#8763A6"/>
		<path d="M117.621 105.884L130.177 105.884L130.177 93.8618L117.621 93.8618L117.621 105.884Z" fill="#8763A6"/>
		<path d="M117.621 87.1037L130.177 87.1037L130.177 75.081L117.621 75.081L117.621 87.1037Z" fill="#8763A6"/>
		<path d="M117.621 49.5632L130.177 49.5632L130.177 37.5404L117.621 37.5404L117.621 49.5632Z" fill="#8763A6"/>
		<path d="M117.621 30.7929L130.177 30.7929L130.177 18.7703L117.621 18.7703L117.621 30.7929Z" fill="#8763A6"/>
		<path d="M98.0087 256.057L110.564 256.057L110.564 244.034L98.0087 244.034L98.0087 256.057Z" fill="#8763A6"/>
		<path d="M98.0087 237.287L110.564 237.287L110.564 225.264L98.0087 225.264L98.0087 237.287Z" fill="#8763A6"/>
		<path d="M98.0087 218.517L110.564 218.517L110.564 206.494L98.0087 206.494L98.0087 218.517Z" fill="#8763A6"/>
		<path d="M98.0087 199.736L110.564 199.736L110.564 187.713L98.0087 187.713L98.0087 199.736Z" fill="#8763A6"/>
		<path d="M98.0087 162.195L110.564 162.195L110.564 150.173L98.0087 150.173L98.0087 162.195Z" fill="#8763A6"/>
		<path d="M98.0087 143.425L110.564 143.425L110.564 131.402L98.0087 131.402L98.0087 143.425Z" fill="#8763A6"/>
		<path d="M98.0087 124.655L110.564 124.655L110.564 112.632L98.0087 112.632L98.0087 124.655Z" fill="#8763A6"/>
		<path d="M98.0087 105.884L110.564 105.884L110.564 93.8618L98.0087 93.8618L98.0087 105.884Z" fill="#8763A6"/>
		<path d="M98.0087 87.1037L110.564 87.1037L110.564 75.081L98.0087 75.081L98.0087 87.1037Z" fill="#8763A6"/>
		<path d="M98.0087 68.3334L110.564 68.3334L110.564 56.3107L98.0087 56.3107L98.0087 68.3334Z" fill="#8763A6"/>
		<path d="M98.0087 30.7929L110.564 30.7929L110.564 18.7703L98.0087 18.7703L98.0087 30.7929Z" fill="#8763A6"/>
		<path d="M98.0087 12.0227L110.564 12.0227L110.564 7.24608e-06L98.0087 6.14847e-06L98.0087 12.0227Z" fill="#8763A6"/>
		<path d="M78.4069 387.459L90.9622 387.459L90.9622 375.437L78.4069 375.437L78.4069 387.459Z" fill="#8763A6"/>
		<path d="M78.4069 349.919L90.9622 349.919L90.9622 337.896L78.4069 337.896L78.4069 349.919Z" fill="#8763A6"/>
		<path d="M78.4069 312.368L90.9622 312.368L90.9622 300.345L78.4069 300.345L78.4069 312.368Z" fill="#8763A6"/>
		<path d="M78.4069 293.598L90.9622 293.598L90.9622 281.575L78.4069 281.575L78.4069 293.598Z" fill="#8763A6"/>
		<path d="M78.4069 218.517L90.9622 218.517L90.9622 206.494L78.4069 206.494L78.4069 218.517Z" fill="#8763A6"/>
		<path d="M78.4069 199.736L90.9622 199.736L90.9622 187.713L78.4069 187.713L78.4069 199.736Z" fill="#8763A6"/>
		<path d="M78.4069 162.195L90.9622 162.195L90.9622 150.173L78.4069 150.173L78.4069 162.195Z" fill="#8763A6"/>
		<path d="M78.4069 143.425L90.9622 143.425L90.9622 131.402L78.4069 131.402L78.4069 143.425Z" fill="#8763A6"/>
		<path d="M78.4069 105.884L90.9622 105.884L90.9622 93.8618L78.4069 93.8618L78.4069 105.884Z" fill="#8763A6"/>
		<path d="M78.4069 87.1037L90.9622 87.1037L90.9622 75.081L78.4069 75.081L78.4069 87.1037Z" fill="#8763A6"/>
		<path d="M78.4069 68.3334L90.9622 68.3334L90.9622 56.3107L78.4069 56.3107L78.4069 68.3334Z" fill="#8763A6"/>
		<path d="M78.4069 49.5632L90.9622 49.5632L90.9622 37.5404L78.4069 37.5404L78.4069 49.5632Z" fill="#8763A6"/>
		<path d="M78.4069 30.7929L90.9622 30.7929L90.9622 18.7703L78.4069 18.7703L78.4069 30.7929Z" fill="#8763A6"/>
		<path d="M78.4069 12.0227L90.9622 12.0227L90.9622 5.53244e-06L78.4069 4.43482e-06L78.4069 12.0227Z" fill="#8763A6"/>
		<path d="M58.8052 331.138L71.3605 331.138L71.3605 319.115L58.8052 319.115L58.8052 331.138Z" fill="#8763A6"/>
		<path d="M58.8052 293.598L71.3605 293.598L71.3605 281.575L58.8052 281.575L58.8052 293.598Z" fill="#8763A6"/>
		<path d="M58.8052 256.057L71.3605 256.057L71.3605 244.034L58.8052 244.034L58.8052 256.057Z" fill="#8763A6"/>
		<path d="M58.8052 237.287L71.3605 237.287L71.3605 225.264L58.8052 225.264L58.8052 237.287Z" fill="#8763A6"/>
		<path d="M58.8052 180.965L71.3605 180.965L71.3605 168.943L58.8052 168.943L58.8052 180.965Z" fill="#8763A6"/>
		<path d="M58.8052 124.655L71.3605 124.655L71.3605 112.632L58.8052 112.632L58.8052 124.655Z" fill="#8763A6"/>
		<path d="M58.8052 105.884L71.3605 105.884L71.3605 93.8618L58.8052 93.8618L58.8052 105.884Z" fill="#8763A6"/>
		<path d="M58.8052 68.3334L71.3605 68.3334L71.3605 56.3107L58.8052 56.3107L58.8052 68.3334Z" fill="#8763A6"/>
		<path d="M58.8052 30.7929L71.3605 30.7929L71.3605 18.7703L58.8052 18.7703L58.8052 30.7929Z" fill="#8763A6"/>
		<path d="M58.8052 12.0227L71.3605 12.0227L71.3605 3.81881e-06L58.8052 2.72119e-06L58.8052 12.0227Z" fill="#8763A6"/>
		<path d="M39.2034 368.689L51.7588 368.689L51.7588 356.666L39.2034 356.666L39.2034 368.689Z" fill="#8763A6"/>
		<path d="M39.2034 293.598L51.7588 293.598L51.7588 281.575L39.2034 281.575L39.2034 293.598Z" fill="#8763A6"/>
		<path d="M39.2034 274.827L51.7588 274.827L51.7588 262.805L39.2034 262.805L39.2034 274.827Z" fill="#8763A6"/>
		<path d="M39.2034 237.287L51.7588 237.287L51.7588 225.264L39.2034 225.264L39.2034 237.287Z" fill="#8763A6"/>
		<path d="M39.2034 218.517L51.7588 218.517L51.7588 206.494L39.2034 206.494L39.2034 218.517Z" fill="#8763A6"/>
		<path d="M39.2034 180.965L51.7588 180.965L51.7588 168.943L39.2034 168.943L39.2034 180.965Z" fill="#8763A6"/>
		<path d="M39.2034 162.195L51.7588 162.195L51.7588 150.173L39.2034 150.173L39.2034 162.195Z" fill="#8763A6"/>
		<path d="M39.2034 143.425L51.7588 143.425L51.7588 131.402L39.2034 131.402L39.2034 143.425Z" fill="#8763A6"/>
		<path d="M39.2034 124.655L51.7588 124.655L51.7588 112.632L39.2034 112.632L39.2034 124.655Z" fill="#8763A6"/>
		<path d="M39.2034 87.1037L51.7588 87.1037L51.7588 75.081L39.2034 75.081L39.2034 87.1037Z" fill="#8763A6"/>
		<path d="M39.2034 68.3334L51.7588 68.3334L51.7588 56.3107L39.2034 56.3107L39.2034 68.3334Z" fill="#8763A6"/>
		<path d="M39.2034 49.5632L51.7588 49.5632L51.7588 37.5404L39.2034 37.5404L39.2034 49.5632Z" fill="#8763A6"/>
		<path d="M39.2034 30.7929L51.7588 30.7929L51.7588 18.7703L39.2034 18.7703L39.2034 30.7929Z" fill="#8763A6"/>
		<path d="M19.6018 368.689L32.1571 368.689L32.1571 356.666L19.6018 356.666L19.6018 368.689Z" fill="#8763A6"/>
		<path d="M19.6018 312.368L32.1571 312.368L32.1571 300.345L19.6018 300.345L19.6018 312.368Z" fill="#8763A6"/>
		<path d="M19.6018 293.598L32.1571 293.598L32.1571 281.575L19.6018 281.575L19.6018 293.598Z" fill="#8763A6"/>
		<path d="M19.6018 237.287L32.1571 237.287L32.1571 225.264L19.6018 225.264L19.6018 237.287Z" fill="#8763A6"/>
		<path d="M19.6018 199.736L32.1571 199.736L32.1571 187.713L19.6018 187.713L19.6018 199.736Z" fill="#8763A6"/>
		<path d="M19.6018 180.965L32.1571 180.965L32.1571 168.943L19.6018 168.943L19.6018 180.965Z" fill="#8763A6"/>
		<path d="M19.6018 143.425L32.1571 143.425L32.1571 131.402L19.6018 131.402L19.6018 143.425Z" fill="#8763A6"/>
		<path d="M19.6018 124.655L32.1571 124.655L32.1571 112.632L19.6018 112.632L19.6018 124.655Z" fill="#8763A6"/>
		<path d="M19.6018 105.884L32.1571 105.884L32.1571 93.8618L19.6018 93.8618L19.6018 105.884Z" fill="#8763A6"/>
		<path d="M19.6018 68.3334L32.1571 68.3334L32.1571 56.3107L19.6018 56.3107L19.6018 68.3334Z" fill="#8763A6"/>
		<path d="M19.6018 49.5632L32.1571 49.5632L32.1571 37.5404L19.6018 37.5404L19.6018 49.5632Z" fill="#8763A6"/>
		<path d="M19.6018 30.7929L32.1571 30.7929L32.1571 18.7703L19.6018 18.7703L19.6018 30.7929Z" fill="#8763A6"/>
		<path d="M19.6018 12.0227L32.1571 12.0227L32.1571 3.91542e-07L19.6018 -7.06077e-07L19.6018 12.0227Z" fill="#8763A6"/>
		<path d="M1.47695e-05 256.057L12.5554 256.057L12.5554 244.034L1.58205e-05 244.034L1.47695e-05 256.057Z" fill="#8763A6"/>
		<path d="M2.13342e-05 180.965L12.5554 180.965L12.5554 168.943L2.23852e-05 168.943L2.13342e-05 180.965Z" fill="#8763A6"/>
		<path d="M2.29751e-05 162.195L12.5554 162.195L12.5554 150.173L2.40262e-05 150.173L2.29751e-05 162.195Z" fill="#8763A6"/>
		<path d="M2.46161e-05 143.425L12.5554 143.425L12.5554 131.402L2.56671e-05 131.402L2.46161e-05 143.425Z" fill="#8763A6"/>
		<path d="M2.7898e-05 105.884L12.5554 105.884L12.5554 93.8618L2.8949e-05 93.8618L2.7898e-05 105.884Z" fill="#8763A6"/>
		<path d="M2.95398e-05 87.1037L12.5554 87.1037L12.5555 75.081L3.05909e-05 75.081L2.95398e-05 87.1037Z" fill="#8763A6"/>
		<path d="M3.11808e-05 68.3334L12.5555 68.3334L12.5555 56.3107L3.22318e-05 56.3107L3.11808e-05 68.3334Z" fill="#8763A6"/>
		<path d="M3.44627e-05 30.7929L12.5555 30.7929L12.5555 18.7703L3.55137e-05 18.7703L3.44627e-05 30.7929Z" fill="#8763A6"/>
		<path d="M3.61036e-05 12.0227L12.5555 12.0227L12.5555 -1.32209e-06L3.71547e-05 -2.41972e-06L3.61036e-05 12.0227Z" fill="#8763A6"/>
		</g>
	</svg>
