<svg style="display:none">
	<symbol id="Logo" viewBox="0 0 126 16" fill="none" xmlns="http://www.w3.org/2000/svg"><path d="M0.459999 0.999999H10.02V2.98H2.84V6.92H8.22V8.9H2.84V15H0.459999V0.999999Z" fill="#161616"/><path d="M23.6177 2.98H22.8977L18.6977 15H16.2577L21.2177 0.999999H25.2577L30.2377 15H27.7977L23.6177 2.98ZM18.9777 9.62H27.1377V11.58H18.9777V9.62Z" fill="#161616"/><path d="M40.435 11.16C40.515 11.5333 40.6683 11.8733 40.895 12.18C41.135 12.4733 41.4483 12.7067 41.835 12.88C42.235 13.0533 42.7083 13.14 43.255 13.14C44.095 13.14 44.7217 12.9467 45.135 12.56C45.5483 12.16 45.755 11.6933 45.755 11.16C45.755 10.72 45.6217 10.3533 45.355 10.06C45.1017 9.76667 44.7417 9.52 44.275 9.32C43.8083 9.10667 43.275 8.90667 42.675 8.72C42.1283 8.56 41.6017 8.39333 41.095 8.22C40.5883 8.03333 40.1283 7.80667 39.715 7.54C39.315 7.26 38.995 6.90667 38.755 6.48C38.515 6.04 38.4017 5.49333 38.415 4.84C38.415 3.98667 38.615 3.26667 39.015 2.68C39.415 2.08 39.975 1.62667 40.695 1.32C41.415 1.01333 42.2417 0.86 43.175 0.86C43.9617 0.86 44.6683 0.973333 45.295 1.2C45.935 1.41333 46.475 1.73333 46.915 2.16C47.355 2.57333 47.6817 3.08667 47.895 3.7L45.715 4.42C45.635 4.12667 45.475 3.86667 45.235 3.64C44.995 3.4 44.695 3.21333 44.335 3.08C43.9883 2.94667 43.6083 2.87333 43.195 2.86C42.7417 2.84667 42.335 2.91333 41.975 3.06C41.6283 3.20667 41.3483 3.42 41.135 3.7C40.9217 3.96667 40.815 4.28 40.815 4.64C40.815 5.05333 40.935 5.38 41.175 5.62C41.415 5.84667 41.7283 6.04 42.115 6.2C42.515 6.34667 42.955 6.5 43.435 6.66C43.995 6.82 44.5483 7.00667 45.095 7.22C45.655 7.42 46.1617 7.68 46.615 8C47.0817 8.30667 47.455 8.7 47.735 9.18C48.015 9.66 48.155 10.26 48.155 10.98C48.155 11.7533 47.975 12.4533 47.615 13.08C47.2683 13.7067 46.735 14.2067 46.015 14.58C45.295 14.9533 44.4017 15.14 43.335 15.14C42.4683 15.14 41.675 15.0133 40.955 14.76C40.2483 14.4933 39.655 14.12 39.175 13.64C38.7083 13.1467 38.4017 12.5667 38.255 11.9L40.435 11.16Z" fill="#161616"/><path d="M57.4952 0.999999H59.8752V6.92H66.4752V0.999999H68.8352V15H66.4752V8.9H59.8752V15H57.4952V0.999999Z" fill="#161616"/><path d="M78.7725 0.999999H81.1525V15H78.7725V0.999999Z" fill="#161616"/><path d="M97.485 15.14C96.4983 15.14 95.5717 14.9667 94.705 14.62C93.8383 14.2733 93.0783 13.7867 92.425 13.16C91.785 12.52 91.2783 11.7667 90.905 10.9C90.545 10.02 90.365 9.05333 90.365 8C90.365 6.96 90.545 6.00667 90.905 5.14C91.2783 4.26 91.785 3.5 92.425 2.86C93.0783 2.22 93.8383 1.72667 94.705 1.38C95.5717 1.03333 96.4983 0.86 97.485 0.86C98.4717 0.86 99.3917 1.03333 100.245 1.38C101.112 1.72667 101.865 2.22 102.505 2.86C103.158 3.5 103.665 4.26 104.025 5.14C104.398 6.00667 104.585 6.96 104.585 8C104.585 9.05333 104.398 10.02 104.025 10.9C103.665 11.7667 103.158 12.52 102.505 13.16C101.865 13.7867 101.112 14.2733 100.245 14.62C99.3917 14.9667 98.4717 15.14 97.485 15.14ZM97.485 13.12C98.3917 13.12 99.1983 12.9133 99.905 12.5C100.612 12.0733 101.165 11.48 101.565 10.72C101.965 9.94667 102.165 9.04 102.165 8C102.165 6.94667 101.965 6.04 101.565 5.28C101.165 4.52 100.612 3.93333 99.905 3.52C99.1983 3.09333 98.3917 2.88 97.485 2.88C96.5783 2.88 95.7717 3.09333 95.065 3.52C94.3583 3.93333 93.7983 4.52 93.385 5.28C92.985 6.04 92.785 6.94667 92.785 8C92.785 9.04 92.985 9.94667 93.385 10.72C93.7983 11.48 94.3583 12.0733 95.065 12.5C95.7717 12.9133 96.5783 13.12 97.485 13.12Z" fill="#161616"/><path d="M125.089 0.999999V15H122.669L116.149 4.74V15H113.769V0.999999H116.209L122.729 11.22V0.999999H125.089Z" fill="#161616"/></symbol>
	<symbol id="ChevronLeft" xmlns="http://www.w3.org/2000/svg" fill="none" viewBox="0 0 24 24" stroke="currentColor"><path stroke-linecap="round" stroke-linejoin="round" d="M15.75 19.5L8.25 12l7.5-7.5" /></symbol>
	<symbol id="ChevronRight" xmlns="http://www.w3.org/2000/svg" fill="none" viewBox="0 0 24 24" stroke="currentColor"><path stroke-linecap="round" stroke-linejoin="round" d="M8.25 4.5l7.5 7.5-7.5 7.5" /></symbol>
	<symbol id="ChevronUp" xmlns="http://www.w3.org/2000/svg" fill="none" viewBox="0 0 24 24" stroke="currentColor"><path stroke-linecap="round" stroke-linejoin="round" d="M4.5 15.75l7.5-7.5 7.5 7.5" /></symbol>	
	<symbol id="ChevronDown" xmlns="http://www.w3.org/2000/svg" fill="none" viewBox="0 0 24 24" stroke="currentColor"><path stroke-linecap="round" stroke-linejoin="round" d="M19.5 8.25l-7.5 7.5-7.5-7.5" /></symbol>
	<symbol id="QuestionMarkCircle" xmlns="http://www.w3.org/2000/svg" fill="none" viewBox="0 0 24 24" stroke="currentColor"><path stroke-linecap="round" stroke-linejoin="round" d="M9.879 7.519c1.171-1.025 3.071-1.025 4.242 0 1.172 1.025 1.172 2.687 0 3.712-.203.179-.43.326-.67.442-.745.361-1.45.999-1.45 1.827v.75M21 12a9 9 0 11-18 0 9 9 0 0118 0zm-9 5.25h.008v.008H12v-.008z" /></symbol>
	<symbol id="User" width="20" height="20" viewBox="0 0 20 20" fill="none" xmlns="http://www.w3.org/2000/svg"><path fill-rule="evenodd" clip-rule="evenodd" d="M10.0003 3.33366C8.61961 3.33366 7.50033 4.45295 7.50033 5.83366C7.50033 7.21437 8.61961 8.33366 10.0003 8.33366C11.381 8.33366 12.5003 7.21437 12.5003 5.83366C12.5003 4.45295 11.381 3.33366 10.0003 3.33366ZM5.83366 5.83366C5.83366 3.53247 7.69914 1.66699 10.0003 1.66699C12.3015 1.66699 14.167 3.53247 14.167 5.83366C14.167 8.13484 12.3015 10.0003 10.0003 10.0003C7.69914 10.0003 5.83366 8.13484 5.83366 5.83366ZM8.33366 13.3337C7.67062 13.3337 7.03473 13.597 6.56589 14.0659C6.09705 14.5347 5.83366 15.1706 5.83366 15.8337V17.5003C5.83366 17.9606 5.46056 18.3337 5.00033 18.3337C4.54009 18.3337 4.16699 17.9606 4.16699 17.5003V15.8337C4.16699 14.7286 4.60598 13.6688 5.38738 12.8874C6.16878 12.106 7.22859 11.667 8.33366 11.667H11.667C12.7721 11.667 13.8319 12.106 14.6133 12.8874C15.3947 13.6688 15.8337 14.7286 15.8337 15.8337V17.5003C15.8337 17.9606 15.4606 18.3337 15.0003 18.3337C14.5401 18.3337 14.167 17.9606 14.167 17.5003V15.8337C14.167 15.1706 13.9036 14.5347 13.4348 14.0659C12.9659 13.597 12.33 13.3337 11.667 13.3337H8.33366Z" fill="currentColor"/></symbol>
	<symbol id="ShoppingCart" width="20" height="20" viewBox="0 0 20 20" fill="none" xmlns="http://www.w3.org/2000/svg"><path d="M14.9997 5.00033H13.333C13.333 3.15866 11.8413 1.66699 9.99968 1.66699C8.15801 1.66699 6.66634 3.15866 6.66634 5.00033H4.99967C4.08301 5.00033 3.33301 5.75033 3.33301 6.66699V16.667C3.33301 17.5837 4.08301 18.3337 4.99967 18.3337H14.9997C15.9163 18.3337 16.6663 17.5837 16.6663 16.667V6.66699C16.6663 5.75033 15.9163 5.00033 14.9997 5.00033ZM9.99968 3.33366C10.9163 3.33366 11.6663 4.08366 11.6663 5.00033H8.33301C8.33301 4.08366 9.08301 3.33366 9.99968 3.33366ZM14.9997 16.667H4.99967V6.66699H6.66634V8.33366C6.66634 8.79199 7.04134 9.16699 7.49967 9.16699C7.95801 9.16699 8.33301 8.79199 8.33301 8.33366V6.66699H11.6663V8.33366C11.6663 8.79199 12.0413 9.16699 12.4997 9.16699C12.958 9.16699 13.333 8.79199 13.333 8.33366V6.66699H14.9997V16.667Z" fill="currentColor"/></symbol>
	<symbol id="Bars3" xmlns="http://www.w3.org/2000/svg" viewBox="0 0 20 20" stroke="currentColor" fill="none"><path fill-rule="evenodd" clip-rule="evenodd" d="M2.5 5.00033C2.5 4.54009 2.8731 4.16699 3.33333 4.16699H16.6667C17.1269 4.16699 17.5 4.54009 17.5 5.00033C17.5 5.46056 17.1269 5.83366 16.6667 5.83366H3.33333C2.8731 5.83366 2.5 5.46056 2.5 5.00033ZM2.5 10.0003C2.5 9.54009 2.8731 9.16699 3.33333 9.16699H16.6667C17.1269 9.16699 17.5 9.54009 17.5 10.0003C17.5 10.4606 17.1269 10.8337 16.6667 10.8337H3.33333C2.8731 10.8337 2.5 10.4606 2.5 10.0003ZM2.5 15.0003C2.5 14.5401 2.8731 14.167 3.33333 14.167H16.6667C17.1269 14.167 17.5 14.5401 17.5 15.0003C17.5 15.4606 17.1269 15.8337 16.6667 15.8337H3.33333C2.8731 15.8337 2.5 15.4606 2.5 15.0003Z" fill="currentColor"/></symbol>
	<symbol id="Heart" xmlns="http://www.w3.org/2000/svg" viewBox="0 0 24 24" stroke="currentColor"><path stroke-linecap="round" stroke-linejoin="round" d="M21 8.25c0-2.485-2.099-4.5-4.688-4.5-1.935 0-3.597 1.126-4.312 2.733-.715-1.607-2.377-2.733-4.313-2.733C5.1 3.75 3 5.765 3 8.25c0 7.22 9 12 9 12s9-4.78 9-12z" /></symbol>
	<symbol id="MagnifyingGlass" width="20" height="20" viewBox="0 0 20 20" fill="none" xmlns="http://www.w3.org/2000/svg"><path fill-rule="evenodd" clip-rule="evenodd" d="M8.33366 3.33366C5.57223 3.33366 3.33366 5.57223 3.33366 8.33366C3.33366 11.0951 5.57223 13.3337 8.33366 13.3337C11.0951 13.3337 13.3337 11.0951 13.3337 8.33366C13.3337 5.57223 11.0951 3.33366 8.33366 3.33366ZM1.66699 8.33366C1.66699 4.65176 4.65176 1.66699 8.33366 1.66699C12.0156 1.66699 15.0003 4.65176 15.0003 8.33366C15.0003 9.87425 14.4778 11.2928 13.6002 12.4217L18.0896 16.9111C18.415 17.2365 18.415 17.7641 18.0896 18.0896C17.7641 18.415 17.2365 18.415 16.9111 18.0896L12.4217 13.6002C11.2928 14.4778 9.87425 15.0003 8.33366 15.0003C4.65176 15.0003 1.66699 12.0156 1.66699 8.33366Z" fill="currentColor"/></symbol>
	<symbol id="XMark" xmlns="http://www.w3.org/2000/svg" fill="none" viewBox="0 0 24 24" stroke="currentColor"><path stroke-linecap="round" stroke-linejoin="round" d="M6 18L18 6M6 6l12 12" /></symbol>
	<symbol id="Plus" xmlns="http://www.w3.org/2000/svg" fill="none" viewBox="0 0 24 24" stroke="currentColor"><path stroke-linecap="round" stroke-linejoin="round" d="M12 4.5v15m7.5-7.5h-15" /></symbol>
	<symbol id="Minus" xmlns="http://www.w3.org/2000/svg" fill="none" viewBox="0 0 24 24" stroke="currentColor"><path stroke-linecap="round" stroke-linejoin="round" d="M19.5 12h-15" /></symbol>
	<symbol id="MapPin" xmlns="http://www.w3.org/2000/svg" fill="none" viewBox="0 0 24 24" stroke="currentColor"><path stroke-linecap="round" stroke-linejoin="round" d="M15 10.5a3 3 0 11-6 0 3 3 0 016 0z" /><path stroke-linecap="round" stroke-linejoin="round" d="M19.5 10.5c0 7.142-7.5 11.25-7.5 11.25S4.5 17.642 4.5 10.5a7.5 7.5 0 1115 0z" /></symbol>	
	<symbol id="Phone" xmlns="http://www.w3.org/2000/svg" fill="none" viewBox="0 0 24 24" stroke="currentColor"><path stroke-linecap="round" stroke-linejoin="round" d="M2.25 6.75c0 8.284 6.716 15 15 15h2.25a2.25 2.25 0 002.25-2.25v-1.372c0-.516-.351-.966-.852-1.091l-4.423-1.106c-.44-.11-.902.055-1.173.417l-.97 1.293c-.282.376-.769.542-1.21.38a12.035 12.035 0 01-7.143-7.143c-.162-.441.004-.928.38-1.21l1.293-.97c.363-.271.527-.734.417-1.173L6.963 3.102a1.125 1.125 0 00-1.091-.852H4.5A2.25 2.25 0 002.25 4.5v2.25z" /></symbol>
	<symbol id="Elo" xmlns="http://www.w3.org/2000/svg" viewBox="0 0 40 14" stroke="currentColor" fill="none"><path d="M6.57655 3.09309C6.98496 2.95495 7.4234 2.88288 7.87985 2.88288C9.87385 2.88288 11.5375 4.3003 11.9159 6.18018L14.7387 5.6036C14.0901 2.40841 11.2672 0 7.87985 0C7.10508 0 6.36033 0.126126 5.66364 0.36036L6.57655 3.09309Z" fill="currentColor"/><path d="M3.24323 12.2463L5.15314 10.0841C4.30029 9.32733 3.76576 8.22823 3.76576 6.997C3.76576 5.77178 4.30029 4.66667 5.15314 3.91592L3.24323 1.75977C1.79579 3.04505 0.882874 4.91292 0.882874 7.00301C0.882874 9.08709 1.79579 10.961 3.24323 12.2463Z" fill="currentColor"/><path d="M11.9159 7.82617C11.5315 9.70605 9.87387 11.1175 7.87988 11.1175C7.42342 11.1175 6.98498 11.0454 6.57057 10.9073L5.65765 13.64C6.35435 13.8742 7.1051 14.0003 7.87988 14.0003C11.2673 14.0003 14.0901 11.5979 14.7387 8.40275L11.9159 7.82617Z" fill="currentColor"/><path d="M24.1441 9.75962C23.6757 10.2161 23.045 10.4924 22.3484 10.4803C21.8679 10.4743 21.4234 10.3302 21.0511 10.0899L20.1141 11.5794C20.7568 11.9818 21.5075 12.2221 22.3243 12.2341C23.5075 12.2521 24.5886 11.7836 25.3754 11.0209L24.1441 9.75962ZM22.4505 3.68755C20.0961 3.65151 18.1502 5.5374 18.1141 7.89175C18.1021 8.77463 18.3544 9.60346 18.8048 10.2881L26.5405 6.97884C26.1081 5.12298 24.4505 3.72358 22.4505 3.68755ZM19.8859 8.22809C19.8739 8.13199 19.8679 8.02989 19.8679 7.92779C19.8919 6.5404 21.033 5.42929 22.4204 5.45331C23.1772 5.46532 23.8499 5.80767 24.3003 6.34821L19.8859 8.22809ZM28.973 1.76562V10.0119L30.4024 10.6065L29.7237 12.2341L28.3063 11.6455C27.988 11.5074 27.7718 11.2972 27.6096 11.0569C27.4535 10.8167 27.3333 10.4803 27.3333 10.0359V1.76562H28.973Z" fill="currentColor"/><path d="M34.1321 5.57925C34.3844 5.49516 34.6487 5.45312 34.9309 5.45312C36.1502 5.45312 37.1592 6.31798 37.3934 7.46513L39.1171 7.11078C38.7207 5.15882 36.997 3.69336 34.9309 3.69336C34.4565 3.69336 34 3.77144 33.5796 3.90958L34.1321 5.57925ZM32.0961 11.1588L33.2613 9.84351C32.7387 9.38105 32.4144 8.70837 32.4144 7.95762C32.4144 7.20687 32.7448 6.5342 33.2613 6.07774L32.0961 4.76243C31.2132 5.54321 30.6547 6.69036 30.6547 7.96363C30.6547 9.2369 31.2132 10.378 32.0961 11.1588ZM37.3934 8.46813C37.1592 9.61528 36.1442 10.4801 34.9309 10.4801C34.6547 10.4801 34.3844 10.4321 34.1321 10.348L33.5736 12.0177C34 12.1618 34.4565 12.2399 34.9309 12.2399C36.997 12.2399 38.7207 10.7744 39.1171 8.82249L37.3934 8.46813Z" fill="currentColor"/></symbol>
	<symbol id="Mastercard" xmlns="http://www.w3.org/2000/svg" viewBox="0 0 26 20" fill="none" stroke="currentColor"><g clip-path="url(#clip0_81_156)"><path d="M4.77191 19.9552V18.6263C4.77191 18.1167 4.46174 17.7846 3.95265 17.7846C3.68527 17.7846 3.39918 17.8734 3.19971 18.159C3.04463 17.9151 2.82538 17.7846 2.49116 17.7846C2.36689 17.7793 2.24323 17.8048 2.13124 17.8589C2.01926 17.913 1.92244 17.9941 1.84944 18.0948V17.8274H1.42859V19.9536H1.84944V18.737C1.84944 18.3627 2.07083 18.1836 2.381 18.1836C2.69116 18.1836 2.86816 18.383 2.86816 18.737V19.9552H3.28902V18.737C3.28902 18.3627 3.51041 18.1836 3.82057 18.1836C4.13073 18.1836 4.30773 18.383 4.30773 18.737V19.9552H4.77191ZM11.6821 17.8509H10.9067V17.2092H10.4869V17.8509H10.0441V18.2253H10.4869V19.2242C10.4869 19.7114 10.6639 19.9996 11.1954 19.9996C11.3968 19.9954 11.5941 19.9422 11.7703 19.8445L11.6371 19.4702C11.5177 19.5449 11.3791 19.5833 11.2382 19.5809C11.0168 19.5809 10.9061 19.4477 10.9061 19.2263V18.2082H11.6815V17.8536L11.6821 17.8509ZM15.6243 17.7846C15.5097 17.7821 15.3964 17.8093 15.2954 17.8637C15.1945 17.918 15.1093 17.9977 15.0484 18.0948V17.8274H14.6275V19.9536H15.0484V18.7595C15.0484 18.405 15.2254 18.1836 15.5136 18.1836C15.6109 18.1875 15.7074 18.2024 15.8013 18.2279L15.9345 17.829C15.8329 17.8034 15.729 17.7885 15.6243 17.7846ZM9.66656 18.006C9.44517 17.8509 9.13501 17.7846 8.80292 17.7846C8.27137 17.7846 7.93928 18.0285 7.93928 18.4493C7.93928 18.8039 8.18314 19.0028 8.64784 19.0697L8.86923 19.0916C9.11308 19.136 9.26816 19.2247 9.26816 19.3354C9.26816 19.4905 9.09116 19.6028 8.75854 19.6028C8.50456 19.608 8.2558 19.5303 8.04998 19.3814L7.82859 19.7135C8.13875 19.9349 8.51522 19.9809 8.73768 19.9809C9.358 19.9809 9.69009 19.6932 9.69009 19.2943C9.69009 18.9199 9.42271 18.7408 8.95907 18.6739L8.73768 18.652C8.53822 18.6301 8.36335 18.5632 8.36335 18.4306C8.36335 18.2755 8.54036 18.1632 8.78421 18.1632C9.05159 18.1632 9.31576 18.2739 9.44891 18.3402L9.66656 18.006ZM16.0896 18.8921C16.0896 19.5338 16.5104 19.9996 17.197 19.9996C17.5072 19.9996 17.7286 19.9333 17.95 19.7558L17.7286 19.4237C17.5718 19.5506 17.3768 19.6209 17.1751 19.6231C16.8008 19.6231 16.5104 19.3354 16.5104 18.9146C16.5104 18.4937 16.797 18.2082 17.1751 18.2082C17.3768 18.2104 17.5718 18.2807 17.7286 18.4076L17.95 18.0755C17.7286 17.8985 17.5072 17.8317 17.197 17.8317C16.5323 17.7873 16.0896 18.2525 16.0896 18.8948V18.8921ZM13.1216 17.7846C12.5013 17.7846 12.0805 18.2274 12.0805 18.8921C12.0805 19.5568 12.5232 19.9996 13.1655 19.9996C13.4779 20.0062 13.7831 19.9046 14.0291 19.7119L13.8077 19.4017C13.6298 19.5396 13.4125 19.6172 13.1874 19.6231C12.8997 19.6231 12.5896 19.4461 12.5457 19.0697H14.1184V18.8927C14.1184 18.2279 13.7195 17.7852 13.1216 17.7852V17.7846ZM13.0997 18.1836C13.4099 18.1836 13.6313 18.383 13.6532 18.7151H12.5019C12.5682 18.405 12.7692 18.1836 13.0997 18.1836ZM7.36335 18.8921V17.829H6.94249V18.0964C6.78741 17.8969 6.56816 17.7862 6.25586 17.7862C5.658 17.7862 5.21469 18.2515 5.21469 18.8937C5.21469 19.536 5.65747 20.0012 6.25586 20.0012C6.56602 20.0012 6.78741 19.8905 6.94249 19.691V19.9584H7.36335V18.8921ZM5.658 18.8921C5.658 18.4932 5.90185 18.1836 6.32271 18.1836C6.72164 18.1836 6.96442 18.4937 6.96442 18.8921C6.96442 19.313 6.69704 19.6007 6.32271 19.6007C5.90185 19.6226 5.658 19.2905 5.658 18.8921ZM22.0259 17.7846C21.9113 17.7821 21.798 17.8093 21.697 17.8637C21.5961 17.918 21.5109 17.9977 21.45 18.0948V17.8274H21.0291V19.9536H21.4495V18.7595C21.4495 18.405 21.6265 18.1836 21.9147 18.1836C22.012 18.1875 22.1085 18.2024 22.2024 18.2279L22.3355 17.829C22.234 17.8034 22.13 17.7885 22.0254 17.7846H22.0259ZM20.3869 18.8921V17.829H19.966V18.0964C19.8109 17.8969 19.5917 17.7862 19.2794 17.7862C18.6815 17.7862 18.2382 18.2515 18.2382 18.8937C18.2382 19.536 18.681 20.0012 19.2794 20.0012C19.5896 20.0012 19.8109 19.8905 19.966 19.691V19.9584H20.3869V18.8921ZM18.6815 18.8921C18.6815 18.4932 18.9254 18.1836 19.3462 18.1836C19.7452 18.1836 19.988 18.4937 19.988 18.8921C19.988 19.313 19.7206 19.6007 19.3462 19.6007C18.9254 19.6226 18.6815 19.2905 18.6815 18.8921ZM24.6618 18.8921V16.9873H24.2409V18.0948C24.0858 17.8953 23.8666 17.7846 23.5543 17.7846C22.9564 17.7846 22.5131 18.2499 22.5131 18.8921C22.5131 19.5344 22.9559 19.9996 23.5543 19.9996C23.8644 19.9996 24.0858 19.8889 24.2409 19.6894V19.9568H24.6618V18.8921ZM22.9564 18.8921C22.9564 18.4932 23.2003 18.1836 23.6211 18.1836C24.02 18.1836 24.2628 18.4937 24.2628 18.8921C24.2628 19.313 23.9954 19.6007 23.6211 19.6007C23.1997 19.6231 22.9559 19.291 22.9559 18.8921H22.9564Z" fill="currentColor"/><path d="M9.95478 7.97327C9.95505 6.76731 10.2281 5.57704 10.7536 4.49159C11.279 3.40613 12.0433 2.45361 12.989 1.70535C11.8128 0.780601 10.4002 0.205442 8.9126 0.045623C7.42499 -0.114196 5.92242 0.147775 4.57667 0.801588C3.23091 1.4554 2.09627 2.47468 1.30244 3.74289C0.508619 5.01111 0.0876465 6.47709 0.0876465 7.97327C0.0876465 9.46944 0.508619 10.9354 1.30244 12.2036C2.09627 13.4719 3.23091 14.4911 4.57667 15.1449C5.92242 15.7988 7.42499 16.0607 8.9126 15.9009C10.4002 15.7411 11.8128 15.1659 12.989 14.2412C12.0433 13.4929 11.279 12.5404 10.7536 11.4549C10.2281 10.3695 9.95505 9.17922 9.95478 7.97327Z" fill="currentColor"/><path d="M25.9019 7.97297C25.9029 9.46805 25.4832 10.9333 24.6907 12.201C23.8982 13.4688 22.7648 14.4879 21.4203 15.1418C20.0758 15.7957 18.5744 16.0579 17.0879 15.8986C15.6013 15.7393 14.1896 15.1648 13.0142 14.2409C13.9601 13.4928 14.7245 12.5403 15.25 11.4548C15.7755 10.3693 16.0485 9.17898 16.0485 7.97297C16.0485 6.76696 15.7755 5.5766 15.25 4.4911C14.7245 3.4056 13.9601 2.45312 13.0142 1.70506C14.1896 0.781104 15.6013 0.20662 17.0879 0.0473072C18.5744 -0.112005 20.0758 0.150287 21.4203 0.804186C22.7648 1.45808 23.8982 2.47719 24.6907 3.74493C25.4832 5.01268 25.9029 6.47789 25.9019 7.97297Z" fill="currentColor" fill-opacity="0.4"/><path fill-rule="evenodd" clip-rule="evenodd" d="M13.0141 1.70508H12.989C12.0432 2.45333 11.279 3.40585 10.7536 4.49131C10.2281 5.57677 9.95504 6.76704 9.95477 7.97299C9.95504 9.17894 10.2281 10.3692 10.7536 11.4547C11.279 12.5401 12.0433 13.4926 12.989 14.2409H13.0141C13.0141 14.2409 13.0141 14.2409 13.0141 14.2409C13.9601 13.4928 14.7245 12.5404 15.25 11.4549C15.7755 10.3694 16.0484 9.17899 16.0484 7.97299C16.0484 6.76698 15.7755 5.57661 15.25 4.49111C14.7245 3.40561 13.9601 2.45314 13.0141 1.70508Z" fill="currentColor" fill-opacity="0.6"/></g><defs><clipPath id="clip0_81_156"><rect width="25.8027" height="20" fill="white" transform="translate(0.0986328)"/></clipPath></defs></symbol>
	<symbol id="Visa" xmlns="http://www.w3.org/2000/svg" viewBox="0 0 40 12" fill="none" stroke="currentColor"><path d="M14.2514 11.8628L16.2325 0.237305H19.4012L17.4187 11.8628H14.2514Z" fill="currentColor"/><path d="M28.8667 0.488266C28.2389 0.252744 27.2552 0 26.0267 0C22.8956 0 20.6902 1.57674 20.6714 3.83653C20.6537 5.50698 22.2459 6.43886 23.4479 6.99494C24.6813 7.56486 25.0959 7.92824 25.09 8.437C25.0821 9.21631 24.105 9.57221 23.1942 9.57221C21.926 9.57221 21.2522 9.39601 20.2115 8.96208L19.8031 8.77728L19.3585 11.3797C20.0986 11.7043 21.4671 11.9854 22.8882 12C26.2191 12 28.3815 10.4413 28.4061 8.02807C28.4179 6.70556 27.5737 5.69921 25.7455 4.86948C24.638 4.33169 23.9597 3.97282 23.9669 3.42826C23.9669 2.94504 24.541 2.42833 25.7816 2.42833C26.8177 2.41223 27.5684 2.6382 28.1533 2.87372L28.4372 3.00787L28.8667 0.488266Z" fill="currentColor"/><path d="M37.0208 0.237305H34.5723C33.8138 0.237305 33.2461 0.444322 32.913 1.20137L28.2071 11.8552H31.5345C31.5345 11.8552 32.0785 10.4228 32.2015 10.1082C32.5651 10.1082 35.7976 10.1132 36.2597 10.1132C36.3545 10.5202 36.6452 11.8552 36.6452 11.8552H39.5855L37.0208 0.237305ZM33.136 7.74409C33.3981 7.07428 34.3985 4.49428 34.3985 4.49428C34.3798 4.52522 34.6587 3.82121 34.8186 3.38473L35.0328 4.38703C35.0328 4.38703 35.6395 7.16205 35.7663 7.74391H33.136V7.74409Z" fill="currentColor"/><path d="M0.45503 0.237305L0.414551 0.479138C1.66716 0.782359 2.78593 1.22123 3.76542 1.76717L6.57706 11.8441L9.92966 11.8404L14.9183 0.237305H11.5615L8.45929 8.16502L8.12885 6.55384C8.11337 6.50406 8.09654 6.4542 8.07932 6.40422L7.00087 1.21879C6.80912 0.482646 6.25282 0.262959 5.56461 0.237305H0.45503Z" fill="currentColor"/></symbol>		
	<symbol id="Pix" viewBox="0 0 512 512" xmlns="http://www.w3.org/2000/svg" fill="none" stroke="currentColor"> <defs/> <g fill="currentColor" fill-rule="evenodd"> <path d="M393.072 391.897c-20.082 0-38.969-7.81-53.176-22.02l-77.069-77.067c-5.375-5.375-14.773-5.395-20.17 0l-76.784 76.786c-14.209 14.207-33.095 22.019-53.179 22.019h-9.247l97.521 97.52c30.375 30.375 79.614 30.375 109.988 0l97.239-97.238h-15.123zm-105.049 74.327c-8.55 8.53-19.93 13.25-32.05 13.25h-.02c-12.12 0-23.522-4.721-32.05-13.25l-56.855-56.855c7.875-4.613 15.165-10.248 21.758-16.84l63.948-63.948 64.23 64.23c7.637 7.66 16.188 14.013 25.478 18.952l-54.439 54.46zM310.958 22.78c-30.374-30.374-79.613-30.374-109.988 0l-97.52 97.52h9.247c20.082 0 38.97 7.834 53.178 22.02l76.784 76.785c5.57 5.592 14.622 5.57 20.17 0l77.069-77.068c14.207-14.187 33.094-22.02 53.176-22.02h15.123l-97.239-97.237zm6.028 96.346l-64.23 64.23-63.97-63.97c-6.593-6.592-13.86-12.206-21.736-16.818l56.853-56.877c17.69-17.645 46.476-17.668 64.121 0l54.44 54.461c-9.292 4.961-17.842 11.315-25.479 18.974h.001z"/> <path d="M489.149 200.97l-58.379-58.377h-37.706c-13.838 0-27.394 5.635-37.185 15.426l-77.068 77.069c-7.202 7.18-16.623 10.77-26.067 10.77-9.443 0-18.885-3.59-26.066-10.77l-76.785-76.785c-9.792-9.814-23.346-15.427-37.207-15.427h-31.81L22.78 200.97c-30.374 30.375-30.374 79.614 0 109.988l58.095 58.074 31.81.021c13.86 0 27.416-5.635 37.208-15.426l76.784-76.764c13.925-13.947 38.208-13.924 52.133-.02l77.068 77.066c9.791 9.792 23.346 15.405 37.185 15.405h37.706l58.379-58.356c30.374-30.374 30.374-79.613 0-109.988zm-362.19 129.724c-3.763 3.786-8.942 5.917-14.273 5.917H94.302l-48.59-48.564c-17.689-17.69-17.689-46.476 0-64.143L94.3 175.296h18.385c5.331 0 10.51 2.154 14.295 5.918l74.74 74.74-74.761 74.74zm339.257-42.647l-48.848 48.87h-24.305c-5.309 0-10.508-2.155-14.251-5.92l-75.023-75.043 75.023-75.023c3.743-3.764 8.942-5.918 14.252-5.918h24.304l48.847 48.891c8.573 8.551 13.273 19.93 13.273 32.05 0 12.141-4.7 23.52-13.273 32.093z"/> </g> </symbol>
	<symbol id="Facebook" xmlns="http://www.w3.org/2000/svg" viewBox="0 0 24 24" stroke="currentColor" fill="none" stroke-linecap="round" stroke-linejoin="round"><path stroke="none" d="M0 0h24v24H0z" fill="none" /><path d="M7 10v4h3v7h4v-7h3l1 -4h-4v-2a1 1 0 0 1 1 -1h3v-4h-3a5 5 0 0 0 -5 5v2h-3" /></symbol>
	<symbol id="Instagram" xmlns="http://www.w3.org/2000/svg" viewBox="0 0 24 24" stroke="currentColor" fill="none" stroke-linecap="round" stroke-linejoin="round"><path stroke="none" d="M0 0h24v24H0z" fill="none" /><rect x="4" y="4" width="16" height="16" rx="4" /><circle cx="12" cy="12" r="3" /><line x1="16.5" y1="7.5" x2="16.5" y2="7.501" /></symbol>
	<symbol id="Tiktok" xmlns="http://www.w3.org/2000/svg" viewBox="0 0 24 24" stroke="currentColor" fill="none" stroke-linecap="round" stroke-linejoin="round"><path stroke="none" d="M0 0h24v24H0z" fill="none" /><path d="M9 12a4 4 0 1 0 4 4v-12a5 5 0 0 0 5 5" /></symbol>
	<symbol id="Truck" xmlns="http://www.w3.org/2000/svg"  viewBox="0 0 36 28" stroke="currentColor" fill="none"><path d="M14 22.333C14 24.174 12.5077 25.6663 10.6667 25.6663C8.82576 25.6663 7.33337 24.174 7.33337 22.333M14 22.333C14 20.4921 12.5077 18.9997 10.6667 18.9997C8.82576 18.9997 7.33337 20.4921 7.33337 22.333M14 22.333H24M7.33337 22.333H4.00004V15.6663M30.6667 22.333C30.6667 24.174 29.1743 25.6663 27.3334 25.6663C25.4924 25.6663 24 24.174 24 22.333M30.6667 22.333C30.6667 20.4921 29.1743 18.9997 27.3334 18.9997C25.4924 18.9997 24 20.4921 24 22.333M30.6667 22.333H34V12.333M2.33337 2.33301H20.6667V22.333M34 12.333H20.6667M34 12.333L29 3.99967H20.6667M4.00004 8.99967H10.6667" stroke-linecap="round" stroke-linejoin="round"/></symbol>
	<symbol id="Discount" xmlns="http://www.w3.org/2000/svg" viewBox="0 0 34 34" stroke="currentColor" fill="none"><path d="M12 21.9998L22 11.9998M13.6667 12.8332C13.6667 13.2934 13.2936 13.6665 12.8333 13.6665C12.3731 13.6665 12 13.2934 12 12.8332C12 12.3729 12.3731 11.9998 12.8333 11.9998C13.2936 11.9998 13.6667 12.3729 13.6667 12.8332ZM22 21.1665C22 21.6267 21.6269 21.9998 21.1667 21.9998C20.7064 21.9998 20.3333 21.6267 20.3333 21.1665C20.3333 20.7063 20.7064 20.3332 21.1667 20.3332C21.6269 20.3332 22 20.7063 22 21.1665ZM5.33334 8.99979C5.33334 8.02733 5.71965 7.0947 6.40728 6.40707C7.09491 5.71943 8.02755 5.33313 9.00001 5.33313H10.6667C11.6348 5.33257 12.5635 4.94913 13.25 4.26646L14.4167 3.09979C14.7574 2.75713 15.1625 2.4852 15.6087 2.29964C16.0549 2.11408 16.5334 2.01855 17.0167 2.01855C17.4999 2.01855 17.9784 2.11408 18.4246 2.29964C18.8708 2.4852 19.2759 2.75713 19.6167 3.09979L20.7833 4.26646C21.4699 4.94913 22.3985 5.33257 23.3667 5.33313H25.0333C26.0058 5.33313 26.9384 5.71943 27.6261 6.40707C28.3137 7.0947 28.7 8.02733 28.7 8.99979V10.6665C28.7006 11.6346 29.084 12.5633 29.7667 13.2498L30.9333 14.4165C31.276 14.7572 31.5479 15.1623 31.7335 15.6085C31.9191 16.0547 32.0146 16.5332 32.0146 17.0165C32.0146 17.4997 31.9191 17.9782 31.7335 18.4244C31.5479 18.8706 31.276 19.2757 30.9333 19.6165L29.7667 20.7831C29.084 21.4696 28.7006 22.3983 28.7 23.3665V25.0331C28.7 26.0056 28.3137 26.9382 27.6261 27.6259C26.9384 28.3135 26.0058 28.6998 25.0333 28.6998H23.3667C22.3985 28.7003 21.4699 29.0838 20.7833 29.7665L19.6167 30.9331C19.2759 31.2758 18.8708 31.5477 18.4246 31.7333C17.9784 31.9188 17.4999 32.0144 17.0167 32.0144C16.5334 32.0144 16.0549 31.9188 15.6087 31.7333C15.1625 31.5477 14.7574 31.2758 14.4167 30.9331L13.25 29.7665C12.5635 29.0838 11.6348 28.7003 10.6667 28.6998H9.00001C8.02755 28.6998 7.09491 28.3135 6.40728 27.6259C5.71965 26.9382 5.33334 26.0056 5.33334 25.0331V23.3665C5.33279 22.3983 4.94934 21.4696 4.26667 20.7831L3.10001 19.6165C2.75734 19.2757 2.48541 18.8706 2.29985 18.4244C2.11429 17.9782 2.01877 17.4997 2.01877 17.0165C2.01877 16.5332 2.11429 16.0547 2.29985 15.6085C2.48541 15.1623 2.75734 14.7572 3.10001 14.4165L4.26667 13.2498C4.94934 12.5633 5.33279 11.6346 5.33334 10.6665V8.99979Z" stroke-linecap="round" stroke-linejoin="round"/></symbol>
	<symbol id="Return" xmlns="http://www.w3.org/2000/svg" viewBox="0 0 34 30" stroke="currentColor" fill="none"><path d="M32 6.66699H2M32 6.66699L27 11.667M32 6.66699L27 1.66699M7 28.3337L2 23.3337M2 23.3337L7 18.3337M2 23.3337H32" stroke-linecap="round" stroke-linejoin="round"/></symbol>			
	<symbol id="CreditCard" xmlns="http://www.w3.org/2000/svg" viewBox="0 0 34 28" stroke="currentColor" fill="none"><path d="M2 10.6663H32M8.66667 18.9997H8.68333M15.3333 18.9997H18.6667M7 2.33301H27C29.7614 2.33301 32 4.57158 32 7.33301V20.6663C32 23.4278 29.7614 25.6663 27 25.6663H7C4.23858 25.6663 2 23.4278 2 20.6663V7.33301C2 4.57158 4.23858 2.33301 7 2.33301Z" stroke-linecap="round" stroke-linejoin="round"/></symbol>		
	<symbol id="Deco" xmlns="http://www.w3.org/2000/svg" viewBox="0 0 58 20" stroke="currentColor" fill="none"><path d="M49.5359 16.9432C47.3666 16.9432 46.9948 14.8019 47.6797 12.7178C48.2221 11.0615 49.5066 9.31991 51.4201 9.31991C53.676 9.31991 53.9039 11.6038 53.247 13.6026C52.6753 15.3162 51.3908 16.9432 49.5359 16.9432ZM48.879 19.9973C52.6473 19.9973 56.0159 17.9133 57.3578 14.1449C58.7569 10.1767 57.1859 6.2085 52.0477 6.2085C47.9369 6.2085 44.7962 8.77758 43.5969 12.1755C42.2551 16.0011 43.7115 19.9973 48.879 19.9973ZM36.3747 19.9973C37.8591 19.9973 39.3729 19.6829 40.4282 19.2271C40.8 18.1998 40.828 17.2004 40.5428 16.201C39.8006 16.4862 38.7732 16.7727 37.7165 16.7727C34.861 16.7727 34.6051 14.6606 35.2048 12.8617C35.8617 10.9496 37.574 9.40786 40.287 9.40786C41.0012 9.40786 41.6861 9.52246 42.1138 9.77963C42.856 8.78025 43.2838 7.78086 43.3704 6.7535C42.7428 6.46834 41.6861 6.21117 40.3163 6.21117C35.863 6.21117 32.3505 8.80956 31.0953 12.406C29.896 15.8039 30.8101 20 36.3774 20L36.3747 19.9973ZM21.0442 11.8037C21.8143 10.0901 23.0136 9.09206 24.5846 9.09206C25.9838 9.09206 26.2116 9.86225 25.9838 10.4619C25.6413 11.2894 24.47 11.8037 21.0442 11.8037ZM22.2714 19.9973C23.7278 19.9973 25.7826 19.7122 27.4962 18.8554C27.7813 17.9133 27.7534 16.9712 27.4389 15.9998C26.3542 16.5421 24.8405 16.8566 23.4707 16.8566C21.4439 16.8566 20.3299 16.1997 20.3592 14.5447C25.8972 14.6873 28.7807 13.6879 29.7228 11.2334C30.6649 8.7496 29.0379 6.2085 25.1829 6.2085C21.0721 6.2085 18.046 9.14935 16.932 12.3181C15.7621 15.6867 16.5043 19.9973 22.2701 19.9973H22.2714ZM5.72293 19.9973C9.52059 19.9973 11.6806 18.2557 14.1924 12.9177C15.5622 9.97684 16.7335 7.09329 18.0753 4.23905L19.6743 4.7534C20.1021 4.89598 20.3313 4.6388 20.1314 4.23905L18.1899 0.270827C18.0473 -0.0143302 17.7329 -0.0436454 17.533 0.0429678L12.708 1.86984C12.3082 2.01242 12.3362 2.38419 12.7359 2.49745L14.1631 2.95451C12.9931 5.6102 11.5367 9.60641 10.3654 12.1182C9.05155 14.9165 8.39595 16.8859 6.16933 16.8859C3.9427 16.8859 3.57093 15.1443 4.51301 12.6605C5.59768 9.77697 7.42455 8.92016 9.5086 9.51979C10.0802 8.72028 10.508 7.52103 10.6785 6.43636C10.0789 6.26447 9.36469 6.2085 8.76639 6.2085C5.3978 6.2085 2.05719 7.95009 0.687373 11.6038C-1.0822 16.3143 0.554122 19.9973 5.7216 19.9973H5.72293Z" fill="currentColor"/></symbol>
	<symbol id="Discord" xmlns="http://www.w3.org/2000/svg" viewBox="0 0 127.14 96.36" stroke="currentColor" fill="none"><g id="图层_2" data-name="图层 2"><g id="Discord_Logos" data-name="Discord Logos"><g id="Discord_Logo_-_Large_-_White" data-name="Discord Logo - Large - White"><path class="cls-1" d="M107.7,8.07A105.15,105.15,0,0,0,81.47,0a72.06,72.06,0,0,0-3.36,6.83A97.68,97.68,0,0,0,49,6.83,72.37,72.37,0,0,0,45.64,0,105.89,105.89,0,0,0,19.39,8.09C2.79,32.65-1.71,56.6.54,80.21h0A105.73,105.73,0,0,0,32.71,96.36,77.7,77.7,0,0,0,39.6,85.25a68.42,68.42,0,0,1-10.85-5.18c.91-.66,1.8-1.34,2.66-2a75.57,75.57,0,0,0,64.32,0c.87.71,1.76,1.39,2.66,2a68.68,68.68,0,0,1-10.87,5.19,77,77,0,0,0,6.89,11.1A105.25,105.25,0,0,0,126.6,80.22h0C129.24,52.84,122.09,29.11,107.7,8.07ZM42.45,65.69C36.18,65.69,31,60,31,53s5-12.74,11.43-12.74S54,46,53.89,53,48.84,65.69,42.45,65.69Zm42.24,0C78.41,65.69,73.25,60,73.25,53s5-12.74,11.44-12.74S96.23,46,96.12,53,91.08,65.69,84.69,65.69Z"/></g></g></g></symbol>
	<symbol id="FilterList" xmlns="http://www.w3.org/2000/svg" viewBox="0 0 16 16" fill="none"><path d="M6.66667 12H9.33333V10.6667H6.66667V12ZM2 4V5.33333H14V4H2ZM4 8.66667H12V7.33333H4V8.66667Z" fill="currentColor"/></symbol>
	<symbol id="ChevronUp" xmlns="http://www.w3.org/2000/svg" viewBox="0 0 16 16" stroke="currentColor" fill="none"><path fill-rule="evenodd" clip-rule="evenodd" d="M7.52851 5.52827C7.78886 5.26792 8.21097 5.26792 8.47132 5.52827L12.4713 9.52827C12.7317 9.78862 12.7317 10.2107 12.4713 10.4711C12.211 10.7314 11.7889 10.7314 11.5285 10.4711L7.99992 6.94248L4.47132 10.4711C4.21097 10.7314 3.78886 10.7314 3.52851 10.4711C3.26816 10.2107 3.26816 9.78862 3.52851 9.52827L7.52851 5.52827Z" fill="black"/></symbol>
	<symbol id="Trash" width="20" height="20" viewBox="0 0 20 20" fill="none" xmlns="http://www.w3.org/2000/svg"><path fill-rule="evenodd" clip-rule="evenodd" d="M7.15482 2.15483C7.46738 1.84227 7.89131 1.66667 8.33333 1.66667H11.6667C12.1087 1.66667 12.5326 1.84227 12.8452 2.15483C13.1577 2.46739 13.3333 2.89131 13.3333 3.33334V5H15.8236C15.8295 4.99994 15.8353 4.99994 15.8412 5H16.6667C17.1269 5 17.5 5.3731 17.5 5.83334C17.5 6.29357 17.1269 6.66667 16.6667 6.66667H16.6001L15.833 15.8715C15.8231 16.5207 15.5609 17.1413 15.1011 17.6011C14.6323 18.0699 13.9964 18.3333 13.3333 18.3333H6.66667C6.00362 18.3333 5.36774 18.0699 4.8989 17.6011C4.43906 17.1413 4.17685 16.5207 4.16696 15.8715L3.39989 6.66667H3.33333C2.8731 6.66667 2.5 6.29357 2.5 5.83334C2.5 5.3731 2.8731 5 3.33333 5H4.15878C4.16467 4.99994 4.17055 4.99994 4.17641 5H6.66667V3.33334C6.66667 2.89131 6.84226 2.46739 7.15482 2.15483ZM5.07233 6.66667L5.83045 15.7641C5.83237 15.7871 5.83333 15.8102 5.83333 15.8333C5.83333 16.0543 5.92113 16.2663 6.07741 16.4226C6.23369 16.5789 6.44565 16.6667 6.66667 16.6667H13.3333C13.5543 16.6667 13.7663 16.5789 13.9226 16.4226C14.0789 16.2663 14.1667 16.0543 14.1667 15.8333C14.1667 15.8102 14.1676 15.7871 14.1695 15.7641L14.9277 6.66667H5.07233ZM11.6667 5H8.33333V3.33334H11.6667V5ZM8.33333 8.33334C8.79357 8.33334 9.16667 8.70643 9.16667 9.16667V14.1667C9.16667 14.6269 8.79357 15 8.33333 15C7.8731 15 7.5 14.6269 7.5 14.1667V9.16667C7.5 8.70643 7.8731 8.33334 8.33333 8.33334ZM11.6667 8.33334C12.1269 8.33334 12.5 8.70643 12.5 9.16667V14.1667C12.5 14.6269 12.1269 15 11.6667 15C11.2064 15 10.8333 14.6269 10.8333 14.1667V9.16667C10.8333 8.70643 11.2064 8.33334 11.6667 8.33334Z" fill="currentColor"/></symbol>
	<symbol id="WhatsApp"  xmlns="http://www.w3.org/2000/svg" viewBox="0 0 18 18" fill="none" ><path fill-rule="evenodd" clip-rule="evenodd" d="M13.333 3.94275C12.0977 2.88909 10.5203 2.32246 8.89688 2.34921C7.27345 2.37596 5.71558 2.99425 4.51564 4.08804C3.3157 5.18184 2.55617 6.67594 2.3796 8.28996C2.20302 9.90398 2.62153 11.527 3.5566 12.8543C3.72398 13.0919 3.75547 13.3996 3.63972 13.6661L2.88341 15.408L5.56246 14.9305C5.73665 14.8995 5.9162 14.9247 6.07512 15.0025C7.53336 15.7165 9.20204 15.8737 10.768 15.4448C12.334 15.0158 13.6896 14.0301 14.5804 12.6727C15.4712 11.3152 15.836 9.67933 15.6064 8.07201C15.3767 6.46468 14.5684 4.99641 13.333 3.94275ZM8.86942 0.682773C10.8987 0.649334 12.8704 1.35761 14.4146 2.67469C15.9588 3.99177 16.9692 5.8271 17.2563 7.83626C17.5433 9.84542 17.0873 11.8903 15.9738 13.5871C14.8603 15.2839 13.1658 16.516 11.2083 17.0522C9.34061 17.5638 7.35601 17.4083 5.59455 16.6177L1.64654 17.3213C1.34428 17.3752 1.03687 17.2585 0.846507 17.0176C0.656144 16.7767 0.613663 16.4506 0.735949 16.169L1.93091 13.417C0.947723 11.8367 0.519412 9.96793 0.722814 8.1087C0.943534 6.09118 1.89294 4.22355 3.39287 2.85631C4.8928 1.48907 6.84013 0.716212 8.86942 0.682773ZM6.03312 5.61685C6.26754 5.38243 6.58548 5.25073 6.917 5.25073C7.24852 5.25073 7.56646 5.38243 7.80088 5.61685C8.03531 5.85127 8.167 6.16921 8.167 6.50073V7.33407C8.167 7.66558 8.03531 7.98353 7.80088 8.21795C7.71659 8.30224 7.62149 8.37326 7.51885 8.42964C7.68255 8.89999 7.95113 9.33224 8.30998 9.69109C8.66883 10.0499 9.10107 10.3185 9.57143 10.4822C9.62781 10.3796 9.69882 10.2845 9.78312 10.2002C10.0175 9.96576 10.3355 9.83407 10.667 9.83407H11.5003C11.8319 9.83407 12.1498 9.96576 12.3842 10.2002C12.6186 10.4346 12.7503 10.7525 12.7503 11.0841C12.7503 11.4156 12.6186 11.7335 12.3842 11.9679C12.1498 12.2024 11.8319 12.3341 11.5003 12.3341H10.667C9.34092 12.3341 8.06915 11.8073 7.13147 10.8696C6.19378 9.93192 5.667 8.66015 5.667 7.33407V6.50073C5.667 6.16921 5.79869 5.85127 6.03312 5.61685Z" fill="currentColor"/></symbol>
	<symbol id="ArrowsPointingOut" xmlns="http://www.w3.org/2000/svg" fill="none" viewBox="0 0 24 24"><path stroke-linecap="round" stroke-linejoin="round" d="M3.75 3.75v4.5m0-4.5h4.5m-4.5 0L9 9M3.75 20.25v-4.5m0 4.5h4.5m-4.5 0L9 15M20.25 3.75h-4.5m4.5 0v4.5m0-4.5L15 9m5.25 11.25h-4.5m4.5 0v-4.5m0 4.5L15 15" /></symbol>
	<symbol id="TicketBF" xmlns="http://www.w3.org/2000/svg" width="currentWidth" height="currentHeight" viewBox="0 0 139 139" fill="none">
		<path fill-rule="evenodd" clip-rule="evenodd" d="M0 25.375V58.0157L5.01579 70.1281L73.6636 138.776H97.8883L138.776 97.8883V73.6636L70.1196 5.01579L58.0157 0H25.375L0 25.375ZM34.9167 26.4583C34.9167 31.1297 31.1297 34.9167 26.4583 34.9167C21.7869 34.9167 18 31.1297 18 26.4583C18 21.7869 21.7869 18 26.4583 18C31.1297 18 34.9167 21.7869 34.9167 26.4583Z" fill="#DA8FFF"/>
		<path d="M59.0605 25.8472L67.4418 34.2286L67.4418 38.0469L63.6998 41.7889L62.1534 41.808L62.1343 44.5382L58.6405 48.032L54.5166 48.032L45.6962 39.2115L59.0605 25.8472ZM60.5115 38.486L61.8861 38.486L63.948 36.4241L63.948 35.0877L59.4233 30.5629L56.0058 33.9804L60.5115 38.486ZM55.3758 44.5382L57.0177 44.5382L58.8887 42.6672L58.8887 41.0253L53.9248 36.0614L50.4119 39.5743L55.3758 44.5382ZM71.8506 38.6373L74.4471 41.2338L63.2783 52.4025L69.9605 59.0847L67.7649 61.2803L58.4863 52.0016L71.8506 38.6373ZM86.2945 53.0812L88.6619 55.4486L80.1851 73.7004L77.5504 71.0657L79.4214 67.0183L74.7248 62.3217L70.6773 64.1927L68.0426 61.558L86.2945 53.0812ZM80.9869 64.3072L84.2898 57.4532L84.2517 57.4151L77.4549 60.7752L80.9869 64.3072ZM83.2557 72.38L92.2289 63.4068L96.6201 63.4068L103.149 69.9362L103.149 74.251L101.107 76.2938L98.5102 73.6973L99.5984 72.6091L99.5984 70.8144L95.78 66.996L93.8326 66.996L86.845 73.9837L86.845 75.931L90.6634 79.7494L92.458 79.7494L93.5463 78.6612L96.1428 81.2577L94.0999 83.3005L89.7852 83.3005L83.2557 76.7711L83.2557 72.38ZM107.126 73.9125L109.722 76.509L104.128 82.1029L106.152 84.1267L114.973 81.7593L117.894 84.6803L107.317 87.4296L104.854 98.3692L101.876 95.3909L103.918 86.3223L101.914 84.3176L96.358 89.8733L93.7615 87.2768L107.126 73.9125ZM37.8473 47.0604L47.3169 56.53L45.1213 58.7256L38.2482 51.8525L34.5444 55.5563L40.5011 61.513L38.3055 63.7085L32.3488 57.7519L27.0795 63.0212L24.483 60.4247L37.8473 47.0604ZM50.413 77.4962L45.9837 81.9255L43.3872 79.329L47.2247 75.4915L47.3583 73.0668L43.1963 68.9048L38.0797 74.0214L35.4832 71.4249L48.8475 58.0606L57.2288 66.442L57.2098 70.5467L53.1623 74.5942L50.5467 74.6133L50.413 77.4962ZM45.3346 66.7665L49.9357 71.3677L51.2722 71.3677L53.8687 68.7712L53.8687 67.4347L49.2675 62.8336L45.3346 66.7665ZM61.8263 71.0394L64.4228 73.6359L51.0584 87.0002L48.4619 84.4037L61.8263 71.0394ZM67.0072 76.2203L75.5603 84.7735L75.5603 89.3555L66.7781 98.1378L62.196 98.1378L53.6429 89.5846L67.0072 76.2203ZM63.1315 94.644L65.0789 94.644L72.0665 87.6563L72.0665 85.709L67.389 81.0314L58.454 89.9664L63.1315 94.644ZM83.6138 92.8269L85.9812 95.1943L77.5044 113.446L74.8697 110.812L76.7407 106.764L72.0441 102.067L67.9967 103.938L65.362 101.304L83.6138 92.8269ZM78.3063 104.053L81.6092 97.199L81.571 97.1608L74.7743 100.521L78.3063 104.053ZM86.108 111.129L89.2582 98.4713L92.1029 101.316L89.8118 109.984L89.85 110.022L98.5177 107.731L101.362 110.576L88.7045 113.726L83.2442 119.186L80.6477 116.589L86.108 111.129Z" fill="#0A2121"/>
	</symbol>
	<symbol id="ButtonTicket" xmlns="http://www.w3.org/2000/svg" width="currentWidth" height="currentHeight" viewBox="0 0 274 88" fill="currentColor">
		<path d="M16 0H258L274 16V72L258 88H16L0 72V16L16 0Z"/>
	</symbol>
	<symbol id="GoldAward" xmlns="http://www.w3.org/2000/svg" width="currentWidth" height="currentHeight" viewBox="0 0 89 88" fill="none">
		<rect x="0.666687" width="currentWidth" height="currentHeight" rx="44" fill="#FFE817" fill-opacity="0.3"/>
		<path fill-rule="evenodd" clip-rule="evenodd" d="M30.6667 25.3333C30.6667 24.0447 31.7113 23 33 23H56.3333C57.622 23 58.6667 24.0447 58.6667 25.3333V30.3983C59.3965 30.1404 60.1819 30 61 30C64.866 30 68 33.134 68 37C68 40.866 64.866 44 61 44C60.1819 44 59.3965 43.8596 58.6667 43.6017V44C58.6667 47.713 57.1917 51.274 54.5662 53.8995C52.4972 55.9684 49.8474 57.3229 47 57.8042V62.6667H54C55.2887 62.6667 56.3333 63.7113 56.3333 65C56.3333 66.2887 55.2887 67.3333 54 67.3333H35.3333C34.0447 67.3333 33 66.2887 33 65C33 63.7113 34.0447 62.6667 35.3333 62.6667H42.3333V57.8042C39.486 57.3229 36.8361 55.9684 34.7672 53.8995C32.1417 51.274 30.6667 47.713 30.6667 44V43.6017C29.9369 43.8596 29.1515 44 28.3333 44C24.4674 44 21.3333 40.866 21.3333 37C21.3333 33.134 24.4674 30 28.3333 30C29.1515 30 29.9369 30.1404 30.6667 30.3983V25.3333ZM35.3333 44C35.3333 46.4754 36.3167 48.8493 38.067 50.5997C39.8174 52.35 42.1913 53.3333 44.6667 53.3333C47.142 53.3333 49.516 52.35 51.2663 50.5997C53.0167 48.8493 54 46.4754 54 44V27.6667H35.3333V44ZM30.6667 37C30.6667 35.7113 29.622 34.6667 28.3333 34.6667C27.0447 34.6667 26 35.7113 26 37C26 38.2887 27.0447 39.3333 28.3333 39.3333C29.622 39.3333 30.6667 38.2887 30.6667 37ZM58.6667 37C58.6667 38.2887 59.7113 39.3333 61 39.3333C62.2887 39.3333 63.3333 38.2887 63.3333 37C63.3333 35.7113 62.2887 34.6667 61 34.6667C59.7113 34.6667 58.6667 35.7113 58.6667 37Z" fill="#FFE817"/>
	</symbol>
	<symbol id="SilverAward" xmlns="http://www.w3.org/2000/svg" width="currentWidth" height="currentHeight" viewBox="0 0 88 88" fill="none">
		<rect width="currentWidth" height="currentHeight" rx="44" fill="white" fill-opacity="0.3"/>
		<path fill-rule="evenodd" clip-rule="evenodd" d="M30 25.3333C30 24.0447 31.0447 23 32.3333 23H55.6667C56.9553 23 58 24.0447 58 25.3333V30.3983C58.7298 30.1404 59.5152 30 60.3333 30C64.1993 30 67.3333 33.134 67.3333 37C67.3333 40.866 64.1993 44 60.3333 44C59.5152 44 58.7298 43.8596 58 43.6017V44C58 47.713 56.525 51.274 53.8995 53.8995C51.8305 55.9684 49.1807 57.3229 46.3333 57.8042V62.6667H53.3333C54.622 62.6667 55.6667 63.7113 55.6667 65C55.6667 66.2887 54.622 67.3333 53.3333 67.3333H34.6667C33.378 67.3333 32.3333 66.2887 32.3333 65C32.3333 63.7113 33.378 62.6667 34.6667 62.6667H41.6667V57.8042C38.8193 57.3229 36.1695 55.9684 34.1005 53.8995C31.475 51.274 30 47.713 30 44V43.6017C29.2702 43.8596 28.4848 44 27.6667 44C23.8007 44 20.6667 40.866 20.6667 37C20.6667 33.134 23.8007 30 27.6667 30C28.4848 30 29.2702 30.1404 30 30.3983V25.3333ZM34.6667 44C34.6667 46.4754 35.65 48.8493 37.4003 50.5997C39.1507 52.35 41.5246 53.3333 44 53.3333C46.4754 53.3333 48.8493 52.35 50.5997 50.5997C52.35 48.8493 53.3333 46.4754 53.3333 44V27.6667H34.6667V44ZM30 37C30 35.7113 28.9553 34.6667 27.6667 34.6667C26.378 34.6667 25.3333 35.7113 25.3333 37C25.3333 38.2887 26.378 39.3333 27.6667 39.3333C28.9553 39.3333 30 38.2887 30 37ZM58 37C58 38.2887 59.0447 39.3333 60.3333 39.3333C61.622 39.3333 62.6667 38.2887 62.6667 37C62.6667 35.7113 61.622 34.6667 60.3333 34.6667C59.0447 34.6667 58 35.7113 58 37Z" fill="white"/>
	</symbol>
	<symbol id="BronzeAward" xmlns="http://www.w3.org/2000/svg" width="currentWidth" height="currentHeight" viewBox="0 0 89 88" fill="none">
		<rect x="0.333282" width="currentWidth" height="currentHeight" rx="44" fill="#FFA903" fill-opacity="0.3"/>
		<path fill-rule="evenodd" clip-rule="evenodd" d="M30.3333 25.3333C30.3333 24.0447 31.3779 23 32.6666 23H55.9999C57.2886 23 58.3333 24.0447 58.3333 25.3333V30.3983C59.0631 30.1404 59.8485 30 60.6666 30C64.5326 30 67.6666 33.134 67.6666 37C67.6666 40.866 64.5326 44 60.6666 44C59.8485 44 59.0631 43.8596 58.3333 43.6017V44C58.3333 47.713 56.8583 51.274 54.2328 53.8995C52.1638 55.9684 49.514 57.3229 46.6666 57.8042V62.6667H53.6666C54.9553 62.6667 55.9999 63.7113 55.9999 65C55.9999 66.2887 54.9553 67.3333 53.6666 67.3333H34.9999C33.7113 67.3333 32.6666 66.2887 32.6666 65C32.6666 63.7113 33.7113 62.6667 34.9999 62.6667H41.9999V57.8042C39.1526 57.3229 36.5027 55.9684 34.4338 53.8995C31.8083 51.274 30.3333 47.713 30.3333 44V43.6017C29.6035 43.8596 28.8181 44 27.9999 44C24.1339 44 20.9999 40.866 20.9999 37C20.9999 33.134 24.1339 30 27.9999 30C28.8181 30 29.6035 30.1404 30.3333 30.3983V25.3333ZM34.9999 44C34.9999 46.4754 35.9833 48.8493 37.7336 50.5997C39.4839 52.35 41.8579 53.3333 44.3333 53.3333C46.8086 53.3333 49.1826 52.35 50.9329 50.5997C52.6833 48.8493 53.6666 46.4754 53.6666 44V27.6667H34.9999V44ZM30.3333 37C30.3333 35.7113 29.2886 34.6667 27.9999 34.6667C26.7113 34.6667 25.6666 35.7113 25.6666 37C25.6666 38.2887 26.7113 39.3333 27.9999 39.3333C29.2886 39.3333 30.3333 38.2887 30.3333 37ZM58.3333 37C58.3333 38.2887 59.3779 39.3333 60.6666 39.3333C61.9553 39.3333 62.9999 38.2887 62.9999 37C62.9999 35.7113 61.9553 34.6667 60.6666 34.6667C59.3779 34.6667 58.3333 35.7113 58.3333 37Z" fill="#FFA903"/>
	</symbol>
	<symbol id="FinalistAward" xmlns="http://www.w3.org/2000/svg" width="currentWidth" height="currentHeight" viewBox="0 0 88 88" fill="none">
		<rect width="currentWidth" height="currentHeight" rx="44" fill="#DA8FFF" fill-opacity="0.3"/>
		<path fill-rule="evenodd" clip-rule="evenodd" d="M30 25.3333C30 24.0447 31.0447 23 32.3333 23H55.6667C56.9553 23 58 24.0447 58 25.3333V30.3983C58.7298 30.1404 59.5152 30 60.3333 30C64.1993 30 67.3333 33.134 67.3333 37C67.3333 40.866 64.1993 44 60.3333 44C59.5152 44 58.7298 43.8596 58 43.6017V44C58 47.713 56.525 51.274 53.8995 53.8995C51.8305 55.9684 49.1807 57.3229 46.3333 57.8042V62.6667H53.3333C54.622 62.6667 55.6667 63.7113 55.6667 65C55.6667 66.2887 54.622 67.3333 53.3333 67.3333H34.6667C33.378 67.3333 32.3333 66.2887 32.3333 65C32.3333 63.7113 33.378 62.6667 34.6667 62.6667H41.6667V57.8042C38.8193 57.3229 36.1694 55.9684 34.1005 53.8995C31.475 51.274 30 47.713 30 44V43.6017C29.2702 43.8596 28.4848 44 27.6667 44C23.8007 44 20.6667 40.866 20.6667 37C20.6667 33.134 23.8007 30 27.6667 30C28.4848 30 29.2702 30.1404 30 30.3983V25.3333ZM34.6667 44C34.6667 46.4754 35.65 48.8493 37.4003 50.5997C39.1507 52.35 41.5246 53.3333 44 53.3333C46.4754 53.3333 48.8493 52.35 50.5997 50.5997C52.35 48.8493 53.3333 46.4754 53.3333 44V27.6667H34.6667V44ZM30 37C30 35.7113 28.9553 34.6667 27.6667 34.6667C26.378 34.6667 25.3333 35.7113 25.3333 37C25.3333 38.2887 26.378 39.3333 27.6667 39.3333C28.9553 39.3333 30 38.2887 30 37ZM58 37C58 38.2887 59.0447 39.3333 60.3333 39.3333C61.622 39.3333 62.6667 38.2887 62.6667 37C62.6667 35.7113 61.622 34.6667 60.3333 34.6667C59.0447 34.6667 58 35.7113 58 37Z" fill="#DA8FFF"/>
	</symbol>
	<symbol id="ParticipationAward" xmlns="http://www.w3.org/2000/svg" width="currentWidth" height="currentHeight" viewBox="0 0 88 88" fill="none">
		<rect width="currentWidth" height="currentHeight" rx="44" fill="#DA8FFF" fill-opacity="0.3"/>
		<path fill-rule="evenodd" clip-rule="evenodd" d="M44 25.3333C37.5567 25.3333 32.3333 30.5567 32.3333 37C32.3333 43.4433 37.5567 48.6667 44 48.6667C50.4433 48.6667 55.6666 43.4433 55.6666 37C55.6666 30.5567 50.4433 25.3333 44 25.3333ZM27.6666 37C27.6666 27.9794 34.9793 20.6667 44 20.6667C53.0206 20.6667 60.3333 27.9794 60.3333 37C60.3333 39.4837 59.7789 41.8379 58.7872 43.9456L66.0829 56.5821C66.5131 57.3273 66.4983 58.2489 66.0443 58.9799C65.5902 59.7109 64.7707 60.1326 63.912 60.0773L57.0688 59.6359L54.0294 65.783C53.648 66.5543 52.873 67.0532 52.0129 67.0809C51.1528 67.1086 50.3473 66.6607 49.9171 65.9154L44 55.6667L38.0828 65.9154C37.6526 66.6607 36.8471 67.1086 35.987 67.0809C35.1269 67.0532 34.3519 66.5543 33.9705 65.783L30.9311 59.6359L24.0879 60.0773C23.2292 60.1326 22.4097 59.7109 21.9556 58.9799C21.5016 58.2489 21.4868 57.3273 21.917 56.5821L29.2127 43.9456C28.221 41.8379 27.6666 39.4837 27.6666 37ZM32.1323 48.2221L28.1384 55.1397L32.1831 54.8788C33.1231 54.8182 34.0074 55.3287 34.4249 56.1731L36.2213 59.8063L40.2133 52.8921C37.0705 52.1461 34.2793 50.4919 32.1323 48.2221ZM47.7867 52.8921C50.9294 52.1461 53.7206 50.4919 55.8677 48.2222L59.8615 55.1397L55.8168 54.8788C54.8768 54.8182 53.9925 55.3287 53.575 56.1731L51.7786 59.8063L47.7867 52.8921Z" fill="#DA8FFF"/>
	</symbol>
	<symbol id="PageSpeed" xmlns="http://www.w3.org/2000/svg" width="currentWidth" height="currentHeight" viewBox="0 0 40 40" fill="none">
		<path d="M14.955 14.288C15.755 14.288 16.4483 14.464 17.035 14.816C17.6323 15.1573 18.091 15.6213 18.411 16.208C18.7416 16.7946 18.907 17.456 18.907 18.192C18.907 18.7466 18.8163 19.296 18.635 19.84C18.4536 20.384 18.1496 20.944 17.723 21.52L14.747 25.6H13.371L16.651 21.136L18.267 19.344C18.0536 20.112 17.643 20.7306 17.035 21.2C16.427 21.6693 15.6856 21.904 14.811 21.904C14.0536 21.904 13.3923 21.7493 12.827 21.44C12.2723 21.12 11.835 20.6773 11.515 20.112C11.2056 19.5466 11.051 18.896 11.051 18.16C11.051 17.4026 11.2163 16.736 11.547 16.16C11.8776 15.5733 12.3363 15.1146 12.923 14.784C13.5096 14.4533 14.187 14.288 14.955 14.288ZM17.611 18.176C17.611 17.6106 17.5043 17.1253 17.291 16.72C17.0883 16.304 16.7896 15.984 16.395 15.76C16.0003 15.536 15.5203 15.424 14.955 15.424C14.3896 15.424 13.9096 15.536 13.515 15.76C13.131 15.984 12.8376 16.304 12.635 16.72C12.443 17.1253 12.347 17.6053 12.347 18.16C12.347 18.7146 12.443 19.1893 12.635 19.584C12.8376 19.968 13.131 20.2613 13.515 20.464C13.9096 20.6666 14.3896 20.768 14.955 20.768C15.5203 20.768 16.0003 20.6666 16.395 20.464C16.7896 20.2613 17.0883 19.968 17.291 19.584C17.5043 19.2 17.611 18.7306 17.611 18.176Z" fill="#02F67C"/>
		<path d="M23.0451 19.712C22.4051 19.4986 21.9198 19.184 21.5891 18.768C21.2584 18.3413 21.0931 17.8186 21.0931 17.2C21.0931 16.656 21.2371 16.1653 21.5251 15.728C21.8131 15.2906 22.2344 14.944 22.7891 14.688C23.3544 14.4213 24.0478 14.288 24.8691 14.288C25.6904 14.288 26.3784 14.4213 26.9331 14.688C27.4984 14.944 27.9251 15.296 28.2131 15.744C28.5011 16.1813 28.6451 16.6666 28.6451 17.2C28.6451 17.808 28.4744 18.3253 28.1331 18.752C27.7918 19.1786 27.3118 19.4986 26.6931 19.712C27.3864 19.8933 27.9358 20.2186 28.3411 20.688C28.7464 21.1573 28.9491 21.744 28.9491 22.448C28.9491 23.1093 28.7784 23.6853 28.4371 24.176C28.0958 24.6666 27.6211 25.0453 27.0131 25.312C26.4051 25.5786 25.6904 25.712 24.8691 25.712C24.0584 25.712 23.3438 25.5786 22.7251 25.312C22.1171 25.0453 21.6424 24.6666 21.3011 24.176C20.9598 23.6853 20.7891 23.1093 20.7891 22.448C20.7891 21.7333 20.9918 21.1466 21.3971 20.688C21.8131 20.2186 22.3624 19.8933 23.0451 19.712ZM27.3491 17.344C27.3491 16.6826 27.1251 16.1973 26.6771 15.888C26.2398 15.5786 25.6371 15.424 24.8691 15.424C24.1118 15.424 23.5091 15.5786 23.0611 15.888C22.6131 16.1866 22.3891 16.6773 22.3891 17.36C22.3891 17.968 22.6131 18.432 23.0611 18.752C23.5091 19.072 24.1118 19.232 24.8691 19.232C25.6264 19.232 26.2291 19.072 26.6771 18.752C27.1251 18.432 27.3491 17.9626 27.3491 17.344ZM24.8691 20.304C24.3464 20.304 23.8718 20.3733 23.4451 20.512C23.0291 20.6506 22.6984 20.8746 22.4531 21.184C22.2078 21.4826 22.0851 21.8933 22.0851 22.416C22.0851 23.1093 22.3304 23.6426 22.8211 24.016C23.3118 24.3893 23.9944 24.576 24.8691 24.576C25.7331 24.576 26.4104 24.3893 26.9011 24.016C27.4024 23.632 27.6531 23.0986 27.6531 22.416C27.6531 21.904 27.5304 21.4933 27.2851 21.184C27.0398 20.8746 26.7091 20.6506 26.2931 20.512C25.8771 20.3733 25.4024 20.304 24.8691 20.304Z" fill="#02F67C"/>
		<path fill-rule="evenodd" clip-rule="evenodd" d="M7.5006 11.1718C5.10177 14.5147 4.08297 18.6532 4.65584 22.7277C5.22871 26.8022 7.34922 30.4993 10.5768 33.0511C13.8045 35.603 17.8911 36.8133 21.9878 36.4307C26.0845 36.0481 29.8764 34.102 32.5757 30.9966C35.2749 27.8912 36.6742 23.8654 36.4827 19.7553C36.2912 15.6452 34.5236 11.7669 31.5473 8.926C28.5709 6.0851 24.6145 4.50001 20.5 4.50001C19.6716 4.50001 19 3.82844 19 3.00001C19 2.17159 19.6716 1.50001 20.5 1.50001C25.386 1.50001 30.0842 3.38231 33.6186 6.75587C37.1531 10.1294 39.252 14.7349 39.4794 19.6157C39.7068 24.4964 38.0453 29.2771 34.8399 32.9647C31.6344 36.6523 27.1316 38.9633 22.2668 39.4177C17.4019 39.872 12.5491 38.4348 8.71625 35.4045C4.88344 32.3742 2.36535 27.9838 1.68506 23.1454C1.00478 18.307 2.21461 13.3925 5.06321 9.42276C7.91182 5.45306 12.1802 2.73334 16.9817 1.82859C17.7958 1.67519 18.5802 2.2108 18.7336 3.0249C18.887 3.839 18.3514 4.62331 17.5373 4.77671C13.4939 5.53861 9.89943 7.82889 7.5006 11.1718Z" fill="#02F67C"/>
	</symbol>
	<symbol id="TradeUp" xmlns="http://www.w3.org/2000/svg" width="currentWidth" height="currentHeight" viewBox="0 0 40 40" fill="none">
		<path fill-rule="evenodd" clip-rule="evenodd" d="M23.3333 13.3333C22.4129 13.3333 21.6667 12.5871 21.6667 11.6667C21.6667 10.7462 22.4129 10 23.3333 10H35C35.9205 10 36.6667 10.7462 36.6667 11.6667V23.3333C36.6667 24.2538 35.9205 25 35 25C34.0795 25 33.3333 24.2538 33.3333 23.3333V15.6904L22.8452 26.1785C22.1943 26.8294 21.139 26.8294 20.4882 26.1785L15 20.6904L6.17852 29.5118C5.52765 30.1627 4.47237 30.1627 3.8215 29.5118C3.17063 28.861 3.17063 27.8057 3.8215 27.1548L13.8215 17.1548C14.4724 16.5039 15.5276 16.5039 16.1785 17.1548L21.6667 22.643L30.9763 13.3333H23.3333Z" fill="#00FF80"/>
	</symbol>
	<symbol id="Calendar" xmlns="http://www.w3.org/2000/svg" width="currentWidth" height="currentHeight" viewBox="0 0 16 16" fill="none">
		<path fill-rule="evenodd" clip-rule="evenodd" d="M5.33333 1.33325C5.70152 1.33325 6 1.63173 6 1.99992V2.66659H10V1.99992C10 1.63173 10.2985 1.33325 10.6667 1.33325C11.0349 1.33325 11.3333 1.63173 11.3333 1.99992V2.66659H12C13.1046 2.66659 14 3.56202 14 4.66658V12.6666C14 13.7712 13.1046 14.6666 12 14.6666H4C2.89543 14.6666 2 13.7712 2 12.6666V4.66658C2 3.56202 2.89543 2.66659 4 2.66659H4.66667V1.99992C4.66667 1.63173 4.96514 1.33325 5.33333 1.33325ZM4.66667 3.99992H4C3.63181 3.99992 3.33333 4.2984 3.33333 4.66658V6.66658H12.6667V4.66658C12.6667 4.2984 12.3682 3.99992 12 3.99992H11.3333V4.66658C11.3333 5.03477 11.0349 5.33325 10.6667 5.33325C10.2985 5.33325 10 5.03477 10 4.66658V3.99992H6V4.66658C6 5.03477 5.70152 5.33325 5.33333 5.33325C4.96514 5.33325 4.66667 5.03477 4.66667 4.66658V3.99992ZM12.6667 7.99992H3.33333V12.6666C3.33333 13.0348 3.63181 13.3333 4 13.3333H12C12.3682 13.3333 12.6667 13.0348 12.6667 12.6666V7.99992ZM4.66667 9.99992C4.66667 9.63173 4.96514 9.33325 5.33333 9.33325H6.66667C7.03486 9.33325 7.33333 9.63173 7.33333 9.99992V11.3333C7.33333 11.7014 7.03486 11.9999 6.66667 11.9999H5.33333C4.96514 11.9999 4.66667 11.7014 4.66667 11.3333V9.99992Z" fill="#0D1717"/>
	</symbol>
	<symbol id="Local" xmlns="http://www.w3.org/2000/svg" width="currentWidth" height="currentHeight" viewBox="0 0 16 16" fill="none">
		<path fill-rule="evenodd" clip-rule="evenodd" d="M8 2.66683C7.07703 2.66683 6.17479 2.94052 5.40737 3.45329C4.63994 3.96606 4.0418 4.69488 3.68859 5.54758C3.33537 6.40029 3.24294 7.33859 3.42299 8.24383C3.60303 9.14904 4.04743 9.98053 4.70002 10.6332C4.7 10.6332 4.70004 10.6332 4.70002 10.6332L7.52917 13.4617C7.65417 13.5865 7.82364 13.6567 8.00034 13.6567C8.17703 13.6567 8.3465 13.5865 8.4715 13.4617L11.2999 10.6332C11.2999 10.6332 11.2999 10.6332 11.2999 10.6332C11.9525 9.98059 12.397 9.14906 12.577 8.24383C12.7571 7.33859 12.6646 6.40029 12.3114 5.54758C11.9582 4.69488 11.3601 3.96606 10.5926 3.45329C9.82521 2.94052 8.92297 2.66683 8 2.66683ZM4.66661 2.34466C5.6533 1.68538 6.81333 1.3335 8 1.3335C9.18668 1.3335 10.3467 1.68538 11.3334 2.34466C12.3201 3.00393 13.0891 3.94099 13.5433 5.03732C13.9974 6.13366 14.1162 7.34005 13.8847 8.50392C13.6533 9.6678 13.0818 10.7369 12.2428 11.576L9.41407 14.4047C9.03906 14.7793 8.53042 14.99 8.00034 14.99C7.47025 14.99 6.96185 14.7796 6.58684 14.4049L3.75732 11.5761C2.91824 10.737 2.34675 9.6678 2.11527 8.50392C1.88378 7.34005 2.00262 6.13366 2.45676 5.03732C2.91089 3.94099 3.67993 3.00393 4.66661 2.34466ZM8 6C7.26362 6 6.66667 6.59695 6.66667 7.33333C6.66667 8.06971 7.26362 8.66667 8 8.66667C8.73638 8.66667 9.33333 8.06971 9.33333 7.33333C9.33333 6.59695 8.73638 6 8 6ZM5.33333 7.33333C5.33333 5.86057 6.52724 4.66667 8 4.66667C9.47276 4.66667 10.6667 5.86057 10.6667 7.33333C10.6667 8.80609 9.47276 10 8 10C6.52724 10 5.33333 8.80609 5.33333 7.33333Z" fill="#0D1717"/>
	</symbol>
	<symbol id="Users" xmlns="http://www.w3.org/2000/svg" width="currentWidth" height="currentHeight" viewBox="0 0 40 40" fill="none">
		<path fill-rule="evenodd" clip-rule="evenodd" d="M15 6.66671C12.2386 6.66671 10 8.90528 10 11.6667C10 14.4281 12.2386 16.6667 15 16.6667C17.7614 16.6667 20 14.4281 20 11.6667C20 8.90528 17.7614 6.66671 15 6.66671ZM6.66667 11.6667C6.66667 7.06433 10.3976 3.33337 15 3.33337C19.6024 3.33337 23.3333 7.06433 23.3333 11.6667C23.3333 16.2691 19.6024 20 15 20C10.3976 20 6.66667 16.2691 6.66667 11.6667ZM25.0521 4.80332C25.2804 3.91161 26.1884 3.37382 27.0801 3.60213C28.8726 4.06109 30.4614 5.10359 31.596 6.56528C32.7306 8.02696 33.3464 9.82469 33.3464 11.675C33.3464 13.5254 32.7306 15.3231 31.596 16.7848C30.4614 18.2465 28.8726 19.289 27.0801 19.748C26.1884 19.9763 25.2804 19.4385 25.0521 18.5468C24.8238 17.6551 25.3616 16.7471 26.2533 16.5188C27.3288 16.2434 28.2821 15.6179 28.9628 14.7409C29.6436 13.8639 30.0131 12.7853 30.0131 11.675C30.0131 10.5648 29.6436 9.4862 28.9628 8.60919C28.2821 7.73217 27.3288 7.10668 26.2533 6.8313C25.3616 6.60299 24.8238 5.69503 25.0521 4.80332ZM11.6667 26.6667C10.3406 26.6667 9.06881 27.1935 8.13113 28.1312C7.19345 29.0689 6.66667 30.3406 6.66667 31.6667V35C6.66667 35.9205 5.92047 36.6667 5 36.6667C4.07952 36.6667 3.33333 35.9205 3.33333 35V31.6667C3.33333 29.4566 4.21131 27.337 5.77411 25.7742C7.33691 24.2114 9.45653 23.3334 11.6667 23.3334H18.3333C20.5435 23.3334 22.6631 24.2114 24.2259 25.7742C25.7887 27.337 26.6667 29.4566 26.6667 31.6667V35C26.6667 35.9205 25.9205 36.6667 25 36.6667C24.0795 36.6667 23.3333 35.9205 23.3333 35V31.6667C23.3333 30.3406 22.8065 29.0689 21.8689 28.1312C20.9312 27.1935 19.6594 26.6667 18.3333 26.6667H11.6667ZM28.3862 24.8334C28.6164 23.9422 29.5254 23.4062 30.4166 23.6363C32.1975 24.0961 33.7763 25.1322 34.9068 26.583C36.0373 28.0338 36.6561 29.8179 36.6666 31.6572L36.6667 31.6668L36.6667 35.0001C36.6667 35.9206 35.9205 36.6668 35 36.6668C34.0795 36.6668 33.3333 35.9206 33.3333 35.0001V31.6717C33.326 30.5698 32.9548 29.5011 32.2774 28.6318C31.5991 27.7613 30.6519 27.1397 29.5834 26.8638C28.6921 26.6337 28.1561 25.7247 28.3862 24.8334Z" fill="#02F67C"/>
	</symbol>
	<symbol id="Award" xmlns="http://www.w3.org/2000/svg" width="currentWidth" height="currentHeight" viewBox="0 0 34 32" fill="none">
		<path fill-rule="evenodd" clip-rule="evenodd" d="M7.00001 1.66667C7.00001 0.746192 7.7462 0 8.66668 0H25.3333C26.2538 0 27 0.746192 27 1.66667V5.28451C27.5213 5.10026 28.0823 5 28.6667 5C31.4281 5 33.6667 7.23858 33.6667 10C33.6667 12.7614 31.4281 15 28.6667 15C28.0823 15 27.5213 14.8997 27 14.7155V15C27 17.6522 25.9464 20.1957 24.0711 22.0711C22.5933 23.5489 20.7005 24.5164 18.6667 24.8602V28.3333H23.6667C24.5872 28.3333 25.3333 29.0795 25.3333 30C25.3333 30.9205 24.5872 31.6667 23.6667 31.6667H10.3333C9.41287 31.6667 8.66668 30.9205 8.66668 30C8.66668 29.0795 9.41287 28.3333 10.3333 28.3333H15.3333V24.8602C13.2995 24.5164 11.4068 23.5489 9.92894 22.0711C8.05358 20.1957 7.00001 17.6522 7.00001 15V14.7155C6.47871 14.8997 5.91774 15 5.33334 15C2.57192 15 0.333344 12.7614 0.333344 10C0.333344 7.23858 2.57192 5 5.33334 5C5.91774 5 6.47871 5.10026 7.00001 5.28451V1.66667ZM10.3333 15C10.3333 16.7681 11.0357 18.4638 12.286 19.714C13.5362 20.9643 15.2319 21.6667 17 21.6667C18.7681 21.6667 20.4638 20.9643 21.7141 19.714C22.9643 18.4638 23.6667 16.7681 23.6667 15V3.33333H10.3333V15ZM7.00001 10C7.00001 9.07952 6.25382 8.33333 5.33334 8.33333C4.41287 8.33333 3.66668 9.07952 3.66668 10C3.66668 10.9205 4.41287 11.6667 5.33334 11.6667C6.25382 11.6667 7.00001 10.9205 7.00001 10ZM27 10C27 10.9205 27.7462 11.6667 28.6667 11.6667C29.5872 11.6667 30.3333 10.9205 30.3333 10C30.3333 9.07952 29.5872 8.33333 28.6667 8.33333C27.7462 8.33333 27 9.07952 27 10Z" fill="#00FF80"/>
	</symbol>
</svg>
